font.ufo
<glyph name="exclam" format="1">
  <advance width="192"/>
  <unicode hex="0021"/>
  <outline>
    <contour>
      <point x="106.0" y="188.0" type="line"/>
      <point x="106.0" y="682" type="line"/>
      <point x="86" y="682" type="line"/>
      <point x="86" y="188.0" type="line"/>
    </contour>
    <contour>
      <point x="70" y="19" type="curve" smooth="yes"/>
      <point x="70" y="5"/>
      <point x="82" y="-7"/>
      <point x="96" y="-7" type="curve" smooth="yes"/>
      <point x="110" y="-7"/>
      <point x="122" y="5"/>
      <point x="122" y="19" type="curve" smooth="yes"/>
      <point x="122" y="33"/>
      <point x="110" y="45"/>
      <point x="96" y="45" type="curve" smooth="yes"/>
      <point x="82" y="45"/>
      <point x="70" y="33"/>
    </contour>
  </outline>
</glyph>
<glyph name="numbersign" format="1">
  <advance width="707"/>
  <unicode hex="0023"/>
  <outline>
    <contour>
      <point x="458.0515" y="228.0" type="line"/>
      <point x="218.0515" y="228.0" type="line"/>
      <point x="247.5794" y="468.0" type="line"/>
      <point x="487.5794" y="468.0" type="line"/>
    </contour>
    <contour>
      <point x="430.0" y="0" type="line"/>
      <point x="450.0" y="0" type="line"/>
      <point x="475.59084" y="208.0" type="line"/>
      <point x="627" y="208.0" type="line"/>
      <point x="626" y="228.0" type="line"/>
      <point x="478.0515" y="228.0" type="line"/>
      <point x="507.5794" y="468.0" type="line"/>
      <point x="659" y="468.0" type="line"/>
      <point x="658" y="488.0" type="line"/>
      <point x="510.04006" y="488.0" type="line"/>
      <point x="536" y="699.0" type="line"/>
      <point x="516" y="699.0" type="line"/>
      <point x="490.04006" y="488.0" type="line"/>
      <point x="250.04006" y="488.0" type="line"/>
      <point x="276" y="699.0" type="line"/>
      <point x="256" y="699.0" type="line"/>
      <point x="230.04006" y="488.0" type="line"/>
      <point x="78" y="488.0" type="line"/>
      <point x="79" y="468.0" type="line"/>
      <point x="227.5794" y="468.0" type="line"/>
      <point x="198.0515" y="228.0" type="line"/>
      <point x="46.0" y="228.0" type="line"/>
      <point x="47.0" y="208.0" type="line"/>
      <point x="195.59084" y="208.0" type="line"/>
      <point x="170" y="0" type="line"/>
      <point x="190.0" y="0" type="line"/>
      <point x="215.59084" y="208.0" type="line"/>
      <point x="455.59084" y="208.0" type="line"/>
    </contour>
  </outline>
</glyph>
<glyph name="dollar" format="1">
  <advance width="593"/>
  <unicode hex="0024"/>
  <note>
    dollar
  </note>
  <outline>
    <contour>
      <point x="280" y="678" type="curve"/>
      <point x="280" y="375" type="line"/>
      <point x="186" y="404"/>
      <point x="99" y="438"/>
      <point x="99" y="544" type="curve" smooth="yes"/>
      <point x="99" y="621"/>
      <point x="170" y="672"/>
    </contour>
    <contour>
      <point x="300" y="20" type="curve"/>
      <point x="300" y="348" type="line"/>
      <point x="401" y="318"/>
      <point x="498" y="286"/>
      <point x="497" y="170" type="curve" smooth="yes"/>
      <point x="497" y="84"/>
      <point x="421" y="26"/>
    </contour>
    <contour>
      <point x="300" y="679" type="line"/>
      <point x="302" y="679" type="line" smooth="yes"/>
      <point x="364" y="679"/>
      <point x="433" y="661"/>
      <point x="478" y="632" type="curve"/>
      <point x="488" y="648" type="line"/>
      <point x="440" y="679"/>
      <point x="367" y="699"/>
      <point x="302" y="699" type="curve" smooth="yes"/>
      <point x="300" y="699" type="line"/>
      <point x="300" y="804" type="line"/>
      <point x="280" y="804" type="line"/>
      <point x="280" y="698" type="line"/>
      <point x="158" y="692"/>
      <point x="79" y="633"/>
      <point x="79" y="544" type="curve" smooth="yes"/>
      <point x="79" y="421"/>
      <point x="178" y="385"/>
      <point x="280" y="354" type="curve"/>
      <point x="280" y="20" type="line"/>
      <point x="196" y="20"/>
      <point x="108" y="56"/>
      <point x="55" y="112" type="curve"/>
      <point x="41" y="98" type="line"/>
      <point x="99" y="39"/>
      <point x="192" y="0"/>
      <point x="280" y="0" type="curve"/>
      <point x="280" y="-119" type="line"/>
      <point x="300" y="-119" type="line"/>
      <point x="300" y="0" type="line"/>
      <point x="433" y="6"/>
      <point x="517" y="72"/>
      <point x="517" y="170" type="curve" smooth="yes"/>
      <point x="518" y="304"/>
      <point x="408" y="337"/>
      <point x="300" y="369" type="curve"/>
    </contour>
  </outline>
</glyph>
<glyph name="ampersand" format="1">
  <advance width="626"/>
  <unicode hex="0026"/>
  <outline>
    <contour>
      <point x="606.0" y="8.881784197e-15" type="curve"/>
      <point x="619" y="13.0" type="line"/>
      <point x="572.067148329" y="60.4562663732"/>
      <point x="527.873926168" y="104.320574056"/>
      <point x="486.89301" y="145.05504" type="curve"/>
      <point x="519.627788426" y="188.216212194"/>
      <point x="549.890544702" y="239.997067881"/>
      <point x="577.0" y="299.0" type="curve"/>
      <point x="558" y="311" type="line"/>
      <point x="531.909186652" y="252.454760293"/>
      <point x="503.084922292" y="201.704917919"/>
      <point x="472.13924" y="159.72468" type="curve"/>
      <point x="385.098535213" y="246.304287523"/>
      <point x="313.38917759" y="318.470244188"/>
      <point x="261.81068" y="380.91666" type="curve"/>
      <point x="352.457001912" y="429.608470519"/>
      <point x="443.0" y="477.107268807"/>
      <point x="443.0" y="571.0" type="curve" smooth="yes"/>
      <point x="443" y="646"/>
      <point x="388" y="699"/>
      <point x="304" y="699" type="curve" smooth="yes"/>
      <point x="214" y="699"/>
      <point x="151" y="638"/>
      <point x="151" y="562" type="curve" smooth="yes"/>
      <point x="151.0" y="509.928483301"/>
      <point x="179.9444657" y="453.655350613"/>
      <point x="231.5105" y="387.96705" type="curve"/>
      <point x="144.209629938" y="341.532724011"/>
      <point x="60.0" y="288.480379038"/>
      <point x="60.0" y="183.0" type="curve" smooth="yes"/>
      <point x="60" y="78"/>
      <point x="146" y="0"/>
      <point x="250" y="0" type="curve" smooth="yes"/>
      <point x="331.084640896" y="0.0"/>
      <point x="408.027987392" y="47.2107561582"/>
      <point x="475.23345" y="130.18294" type="curve"/>
      <point x="516.024562934" y="89.8067325433"/>
      <point x="559.787488512" y="46.5560989344"/>
    </contour>
    <contour>
      <point x="171.0" y="562.0" type="curve" smooth="yes"/>
      <point x="171" y="627"/>
      <point x="224" y="679"/>
      <point x="304" y="679" type="curve" smooth="yes"/>
      <point x="377" y="679"/>
      <point x="423" y="636"/>
      <point x="423" y="572" type="curve" smooth="yes"/>
      <point x="423.0" y="485.860533782"/>
      <point x="337.026532176" y="443.299905248"/>
      <point x="248.75992" y="397.05997" type="curve"/>
      <point x="198.7287486" y="460.375886415"/>
      <point x="171.0" y="513.589035963"/>
    </contour>
    <contour>
      <point x="250.0" y="20.0" type="curve" smooth="yes"/>
      <point x="156" y="20"/>
      <point x="80" y="88"/>
      <point x="80" y="183" type="curve" smooth="yes"/>
      <point x="80.0" y="275.854641401"/>
      <point x="159.833189164" y="325.603759176"/>
      <point x="244.62197" y="371.6438" type="curve"/>
      <point x="297.92785691" y="306.711663574"/>
      <point x="371.827261053" y="232.607863424"/>
      <point x="460.63424" y="144.63821" type="curve"/>
      <point x="397.090385168" y="64.1996726525"/>
      <point x="325.197516795" y="20.0"/>
    </contour>
  </outline>
</glyph>
<glyph name="quotesingle" format="1">
  <advance width="140"/>
  <unicode hex="0027"/>
  <outline>
    <contour>
      <point x="60" y="699" type="line"/>
      <point x="60" y="509" type="line"/>
      <point x="80" y="509" type="line"/>
      <point x="80" y="699" type="line"/>
    </contour>
  </outline>
</glyph>
<glyph name="parenright" format="1">
  <advance width="276"/>
  <unicode hex="0029"/>
  <outline>
    <contour>
      <point x="40" y="742" type="line"/>
      <point x="113" y="633"/>
      <point x="153" y="480"/>
      <point x="153" y="309" type="curve" smooth="yes"/>
      <point x="153" y="138"/>
      <point x="113" y="-15"/>
      <point x="40" y="-124" type="curve"/>
      <point x="60" y="-124" type="line"/>
      <point x="133" y="-15"/>
      <point x="173" y="138"/>
      <point x="173" y="309" type="curve" smooth="yes"/>
      <point x="173" y="480"/>
      <point x="133" y="633"/>
      <point x="60" y="742" type="curve"/>
    </contour>
  </outline>
</glyph>
<glyph name="plus" format="1">
  <advance width="480"/>
  <unicode hex="002B"/>
  <outline>
    <contour>
      <point x="440.0" y="310" type="line"/>
      <point x="440.0" y="330" type="line"/>
      <point x="250.0" y="330" type="line"/>
      <point x="250.0" y="520" type="line"/>
      <point x="230.0" y="520" type="line"/>
      <point x="230.0" y="330" type="line"/>
      <point x="40" y="330" type="line"/>
      <point x="40" y="310" type="line"/>
      <point x="230.0" y="310" type="line"/>
      <point x="230.0" y="120.0" type="line"/>
      <point x="250.0" y="120.0" type="line"/>
      <point x="250.0" y="310" type="line"/>
    </contour>
  </outline>
</glyph>
<glyph name="comma" format="1">
  <advance width="170"/>
  <unicode hex="002C"/>
  <outline>
    <contour>
      <point x="72" y="-54.0" type="line"/>
      <point x="103.0" y="-7.0" type="line" smooth="yes"/>
      <point x="109" y="2"/>
      <point x="113" y="9"/>
      <point x="113" y="18" type="curve" smooth="yes"/>
      <point x="113" y="33"/>
      <point x="101" y="45"/>
      <point x="87" y="45" type="curve" smooth="yes"/>
      <point x="73" y="45"/>
      <point x="61" y="34"/>
      <point x="61" y="19" type="curve" smooth="yes"/>
      <point x="61.0" y="7.36012104479"/>
      <point x="67.5861630184" y="-3.33887747922"/>
      <point x="78.9332" y="-6.66285" type="curve"/>
      <point x="52.0" y="-54.0" type="line"/>
    </contour>
  </outline>
</glyph>
<glyph name="zero" format="1">
  <advance width="617"/>
  <unicode hex="0030"/>
  <note>
    zero
  </note>
  <outline>
    <contour>
      <point x="56" y="351" type="curve" smooth="yes"/>
      <point x="56" y="125"/>
      <point x="146" y="0"/>
      <point x="308" y="0" type="curve" smooth="yes"/>
      <point x="471" y="0"/>
      <point x="561" y="125"/>
      <point x="561" y="351" type="curve" smooth="yes"/>
      <point x="561" y="575"/>
      <point x="471" y="700"/>
      <point x="308" y="700" type="curve" smooth="yes"/>
      <point x="146" y="700"/>
      <point x="56" y="575"/>
    </contour>
    <contour>
      <point x="541" y="351" type="curve" smooth="yes"/>
      <point x="541" y="138"/>
      <point x="458" y="20"/>
      <point x="308" y="20" type="curve" smooth="yes"/>
      <point x="158" y="20"/>
      <point x="76" y="138"/>
      <point x="76" y="351" type="curve" smooth="yes"/>
      <point x="76" y="563"/>
      <point x="158" y="680"/>
      <point x="308" y="680" type="curve" smooth="yes"/>
      <point x="458" y="680"/>
      <point x="541" y="563"/>
    </contour>
  </outline>
</glyph>
<glyph name="one" format="1">
  <advance width="617"/>
  <unicode hex="0031"/>
  <note>
    one
  </note>
  <outline>
    <contour>
      <point x="333" y="0" type="line"/>
      <point x="333" y="700" type="line"/>
      <point x="127" y="700" type="line"/>
      <point x="127" y="680" type="line"/>
      <point x="314" y="680" type="line"/>
      <point x="314" y="0" type="line"/>
    </contour>
  </outline>
</glyph>
<glyph name="two" format="1">
  <advance width="617"/>
  <unicode hex="0032"/>
  <note>
    two
  </note>
  <outline>
    <contour>
      <point x="64" y="609" type="curve"/>
      <point x="78" y="595" type="line"/>
      <point x="132" y="648"/>
      <point x="208" y="680"/>
      <point x="280" y="680" type="curve" smooth="yes"/>
      <point x="396" y="680"/>
      <point x="467" y="626"/>
      <point x="467" y="537" type="curve" smooth="yes"/>
      <point x="467" y="482"/>
      <point x="421" y="404"/>
      <point x="348" y="328" type="curve" smooth="yes"/>
      <point x="63" y="29" type="line"/>
      <point x="62" y="0" type="line"/>
      <point x="542" y="0" type="line"/>
      <point x="542" y="20" type="line"/>
      <point x="82" y="20" type="line"/>
      <point x="362" y="314" type="line" smooth="yes"/>
      <point x="439" y="394"/>
      <point x="487" y="477"/>
      <point x="487" y="537" type="curve" smooth="yes"/>
      <point x="487" y="638"/>
      <point x="408" y="700"/>
      <point x="280" y="700" type="curve" smooth="yes"/>
      <point x="203" y="700"/>
      <point x="121" y="666"/>
    </contour>
  </outline>
</glyph>
<glyph name="three" format="1">
  <advance width="617"/>
  <unicode hex="0033"/>
  <note>
    three
  </note>
  <outline>
    <contour>
      <point x="207" y="395" type="line"/>
      <point x="483" y="682" type="line"/>
      <point x="483" y="700" type="line"/>
      <point x="68" y="700" type="line"/>
      <point x="68" y="680" type="line"/>
      <point x="456" y="680" type="line"/>
      <point x="178" y="393" type="line"/>
      <point x="178" y="375" type="line"/>
      <point x="256" y="375" type="line" smooth="yes"/>
      <point x="408" y="375"/>
      <point x="500" y="317"/>
      <point x="500" y="207" type="curve" smooth="yes"/>
      <point x="500" y="98"/>
      <point x="410" y="20"/>
      <point x="259" y="20" type="curve" smooth="yes"/>
      <point x="183" y="20"/>
      <point x="104" y="42"/>
      <point x="49" y="75" type="curve"/>
      <point x="37" y="59" type="line"/>
      <point x="96" y="24"/>
      <point x="178" y="0"/>
      <point x="258" y="0" type="curve" smooth="yes"/>
      <point x="420" y="0"/>
      <point x="520" y="86"/>
      <point x="520" y="211" type="curve" smooth="yes"/>
      <point x="520" y="327"/>
      <point x="415" y="395"/>
      <point x="255" y="395" type="curve" smooth="yes"/>
    </contour>
  </outline>
</glyph>
<glyph name="four" format="1">
  <advance width="617"/>
  <unicode hex="0034"/>
  <note>
    four
  </note>
  <outline>
    <contour>
      <point x="343" y="700" type="line"/>
      <point x="52" y="233" type="line"/>
      <point x="52" y="208" type="line"/>
      <point x="418" y="208" type="line"/>
      <point x="418" y="0" type="line"/>
      <point x="438" y="0" type="line"/>
      <point x="438" y="208" type="line"/>
      <point x="559" y="208" type="line"/>
      <point x="559" y="228" type="line"/>
      <point x="438" y="228" type="line"/>
      <point x="438" y="452" type="line"/>
      <point x="418" y="452" type="line"/>
      <point x="418" y="228" type="line"/>
      <point x="72" y="228" type="line"/>
      <point x="366" y="700" type="line"/>
    </contour>
  </outline>
</glyph>
<glyph name="five" format="1">
  <advance width="617"/>
  <unicode hex="0035"/>
  <note>
    five
  </note>
  <outline>
    <contour>
      <point x="109" y="700" type="line"/>
      <point x="109" y="362" type="line"/>
      <point x="168" y="384"/>
      <point x="241" y="398"/>
      <point x="296" y="398" type="curve" smooth="yes"/>
      <point x="431" y="398"/>
      <point x="519" y="329"/>
      <point x="519" y="224" type="curve" smooth="yes"/>
      <point x="519" y="101"/>
      <point x="431" y="22"/>
      <point x="294" y="22" type="curve" smooth="yes"/>
      <point x="225" y="22"/>
      <point x="137" y="47"/>
      <point x="72" y="86" type="curve"/>
      <point x="62" y="70" type="line"/>
      <point x="129" y="29"/>
      <point x="219" y="2"/>
      <point x="294" y="2" type="curve" smooth="yes"/>
      <point x="443" y="2"/>
      <point x="539" y="89"/>
      <point x="539" y="224" type="curve" smooth="yes"/>
      <point x="539" y="341"/>
      <point x="444" y="418"/>
      <point x="296" y="418" type="curve" smooth="yes"/>
      <point x="248" y="418"/>
      <point x="183" y="407"/>
      <point x="129" y="390" type="curve"/>
      <point x="129" y="680" type="line"/>
      <point x="512" y="680" type="line"/>
      <point x="512" y="700" type="line"/>
    </contour>
  </outline>
</glyph>
<glyph name="seven" format="1">
  <advance width="617"/>
  <unicode hex="0037"/>
  <note>
    seven
  </note>
  <outline>
    <contour>
      <point x="65" y="700" type="line"/>
      <point x="65" y="568" type="line"/>
      <point x="85" y="568" type="line"/>
      <point x="85" y="680" type="line"/>
      <point x="540" y="680" type="line"/>
      <point x="194" y="0" type="line"/>
      <point x="216" y="0" type="line"/>
      <point x="558" y="675" type="line"/>
      <point x="558" y="700" type="line"/>
    </contour>
  </outline>
</glyph>
<glyph name="nine" format="1">
  <advance width="617"/>
  <unicode hex="0039"/>
  <note>
    nine
  </note>
  <outline>
    <contour>
      <point x="85" y="476" type="curve" smooth="yes"/>
      <point x="85" y="602"/>
      <point x="172" y="680"/>
      <point x="296" y="680" type="curve" smooth="yes"/>
      <point x="447" y="680"/>
      <point x="511" y="563"/>
      <point x="511" y="484" type="curve" smooth="yes"/>
      <point x="511" y="380"/>
      <point x="427" y="281"/>
      <point x="287" y="281" type="curve" smooth="yes"/>
      <point x="165" y="281"/>
      <point x="85" y="355"/>
    </contour>
    <contour>
      <point x="552" y="369" type="curve" smooth="yes"/>
      <point x="552" y="585"/>
      <point x="454" y="700"/>
      <point x="291" y="700" type="curve" smooth="yes"/>
      <point x="154" y="700"/>
      <point x="65" y="616"/>
      <point x="65" y="478" type="curve" smooth="yes"/>
      <point x="65" y="342"/>
      <point x="150" y="261"/>
      <point x="287" y="261" type="curve" smooth="yes"/>
      <point x="417" y="261"/>
      <point x="506" y="333"/>
      <point x="528" y="451" type="curve"/>
      <point x="552" y="183"/>
      <point x="456" y="20"/>
      <point x="278" y="20" type="curve" smooth="yes"/>
      <point x="222" y="20"/>
      <point x="157" y="36"/>
      <point x="106" y="62" type="curve"/>
      <point x="96" y="44" type="line"/>
      <point x="154" y="17"/>
      <point x="222" y="0"/>
      <point x="280" y="0" type="curve" smooth="yes"/>
      <point x="449" y="0"/>
      <point x="552" y="147"/>
    </contour>
  </outline>
</glyph>
<glyph name="less" format="1">
  <advance width="480"/>
  <unicode hex="003C"/>
  <outline>
    <contour>
      <point x="40" y="341" type="line"/>
      <point x="40" y="315" type="line"/>
      <point x="440" y="129" type="line"/>
      <point x="440" y="151" type="line"/>
      <point x="59" y="328" type="line"/>
      <point x="440" y="505" type="line"/>
      <point x="440" y="527" type="line"/>
    </contour>
  </outline>
</glyph>
<glyph name="greater" format="1">
  <advance width="480"/>
  <unicode hex="003E"/>
  <outline>
    <contour>
      <point x="440" y="315" type="line"/>
      <point x="440" y="341" type="line"/>
      <point x="40" y="527" type="line"/>
      <point x="40" y="505" type="line"/>
      <point x="421" y="328" type="line"/>
      <point x="40" y="151" type="line"/>
      <point x="40" y="129" type="line"/>
    </contour>
  </outline>
</glyph>
<glyph name="question" format="1">
  <advance width="395"/>
  <unicode hex="003F"/>
  <outline>
    <contour>
      <point x="28" y="534" type="line"/>
      <point x="34" y="617"/>
      <point x="92" y="659"/>
      <point x="181" y="659" type="curve" smooth="yes"/>
      <point x="270" y="659"/>
      <point x="335" y="617"/>
      <point x="335" y="529" type="curve" smooth="yes"/>
      <point x="335" y="365"/>
      <point x="171" y="380"/>
      <point x="171" y="206" type="curve"/>
      <point x="191" y="206" type="line"/>
      <point x="191" y="371"/>
      <point x="355" y="356"/>
      <point x="355" y="528" type="curve" smooth="yes"/>
      <point x="355" y="631"/>
      <point x="279" y="679"/>
      <point x="182" y="679" type="curve" smooth="yes"/>
      <point x="84" y="679"/>
      <point x="15" y="629"/>
      <point x="8" y="536" type="curve"/>
    </contour>
    <contour>
      <point x="152" y="19" type="curve" smooth="yes"/>
      <point x="152" y="5"/>
      <point x="164" y="-7"/>
      <point x="178" y="-7" type="curve" smooth="yes"/>
      <point x="192" y="-7"/>
      <point x="204" y="5"/>
      <point x="204" y="19" type="curve" smooth="yes"/>
      <point x="204" y="33"/>
      <point x="192" y="45"/>
      <point x="178" y="45" type="curve" smooth="yes"/>
      <point x="164" y="45"/>
      <point x="152" y="33"/>
    </contour>
  </outline>
</glyph>
<glyph name="A" format="1">
  <advance width="686"/>
  <unicode hex="0041"/>
  <outline>
    <contour>
      <point x="733" y="10" type="move" name="ogonek"/>
    </contour>
    <contour>
      <point x="343" y="699" type="move" name="abvm"/>
    </contour>
    <contour>
      <point x="341" y="676" type="line"/>
      <point x="545.46154" y="233.0" type="line"/>
      <point x="139.81509" y="233.0" type="line"/>
    </contour>
    <contour>
      <point x="653" y="0" type="line"/>
      <point x="676" y="0" type="line"/>
      <point x="352.0" y="699.0" type="line"/>
      <point x="330" y="699.0" type="line"/>
      <point x="10" y="0" type="line"/>
      <point x="34" y="0" type="line"/>
      <point x="130.73225" y="213.0" type="line"/>
      <point x="554.69231" y="213.0" type="line"/>
    </contour>
  </outline>
</glyph>
<glyph name="E" format="1">
  <advance width="644"/>
  <unicode hex="0045"/>
  <outline>
    <contour>
      <point x="322" y="0" type="move" name="blwm"/>
    </contour>
    <contour>
      <point x="580" y="10" type="move" name="ogonek"/>
    </contour>
    <contour>
      <point x="351" y="699" type="move" name="abvm"/>
    </contour>
    <contour>
      <point x="128" y="699" type="line"/>
      <point x="128" y="0" type="line"/>
      <point x="579" y="0" type="line"/>
      <point x="579" y="20" type="line"/>
      <point x="148" y="20" type="line"/>
      <point x="148" y="350" type="line"/>
      <point x="519" y="350" type="line"/>
      <point x="519" y="370" type="line"/>
      <point x="148" y="370" type="line"/>
      <point x="148" y="679" type="line"/>
      <point x="565" y="679" type="line"/>
      <point x="565" y="699" type="line"/>
    </contour>
  </outline>
</glyph>
<glyph name="G" format="1">
  <advance width="760"/>
  <unicode hex="0047"/>
  <outline>
    <contour>
      <point x="380" y="0" type="move" name="blwm"/>
    </contour>
    <contour>
      <point x="380" y="699" type="move" name="abvm"/>
    </contour>
    <contour>
      <point x="650" y="91" type="curve"/>
      <point x="650" y="343" type="line"/>
      <point x="630" y="343" type="line"/>
      <point x="630" y="98.83902" type="line"/>
      <point x="570.716628405" y="48.9244877333"/>
      <point x="493.131305049" y="19.0"/>
      <point x="409.0" y="19.0" type="curve" smooth="yes"/>
      <point x="222" y="19"/>
      <point x="69" y="168"/>
      <point x="69" y="350" type="curve" smooth="yes"/>
      <point x="69" y="532"/>
      <point x="222" y="680"/>
      <point x="409" y="680" type="curve" smooth="yes"/>
      <point x="496" y="680"/>
      <point x="576" y="649"/>
      <point x="636" y="596" type="curve"/>
      <point x="649" y="609" type="line"/>
      <point x="585" y="665"/>
      <point x="501" y="699"/>
      <point x="409" y="699" type="curve" smooth="yes"/>
      <point x="212" y="699"/>
      <point x="50" y="542"/>
      <point x="50" y="350" type="curve" smooth="yes"/>
      <point x="50" y="158"/>
      <point x="212" y="0"/>
      <point x="409" y="0" type="curve" smooth="yes"/>
      <point x="501" y="0"/>
      <point x="586" y="35"/>
    </contour>
  </outline>
</glyph>
<glyph name="H" format="1">
  <advance width="799"/>
  <unicode hex="0048"/>
  <outline>
    <contour>
      <point x="400" y="350" type="move" name="center"/>
    </contour>
    <contour>
      <point x="400" y="699" type="move" name="abvm"/>
    </contour>
    <contour>
      <point x="651" y="699" type="line"/>
      <point x="651" y="363" type="line"/>
      <point x="148" y="363" type="line"/>
      <point x="148" y="699" type="line"/>
      <point x="128" y="699" type="line"/>
      <point x="128" y="0" type="line"/>
      <point x="148" y="0" type="line"/>
      <point x="148" y="343" type="line"/>
      <point x="651" y="343" type="line"/>
      <point x="651" y="0" type="line"/>
      <point x="671" y="0" type="line"/>
      <point x="671" y="699" type="line"/>
    </contour>
  </outline>
</glyph>
<glyph name="I" format="1">
  <advance width="276"/>
  <unicode hex="0049"/>
  <outline>
    <contour>
      <point x="206" y="10" type="move" name="ogonek"/>
    </contour>
    <contour>
      <point x="138" y="699" type="move" name="abvm"/>
    </contour>
    <contour>
      <point x="128" y="699" type="line"/>
      <point x="128" y="0" type="line"/>
      <point x="148" y="0" type="line"/>
      <point x="148" y="699" type="line"/>
    </contour>
  </outline>
</glyph>
<glyph name="K" format="1">
  <advance width="670"/>
  <unicode hex="004B"/>
  <outline>
    <contour>
      <point x="335" y="0" type="move" name="blwm"/>
    </contour>
    <contour>
      <point x="335" y="699" type="move" name="abvm"/>
    </contour>
    <contour>
      <point x="148" y="191.0" type="line"/>
      <point x="313.21423" y="369.57197" type="line"/>
      <point x="613" y="0" type="line"/>
      <point x="640" y="0" type="line"/>
      <point x="327.39311" y="384.89723" type="line"/>
      <point x="618" y="699.0" type="line"/>
      <point x="590" y="699.0" type="line"/>
      <point x="148" y="220.0" type="line"/>
      <point x="148" y="699.0" type="line"/>
      <point x="128" y="699.0" type="line"/>
      <point x="128" y="0" type="line"/>
      <point x="148" y="0" type="line"/>
    </contour>
  </outline>
</glyph>
<glyph name="L" format="1">
  <advance width="491"/>
  <unicode hex="004C"/>
  <outline>
    <contour>
      <point x="288" y="0" type="move" name="blwm"/>
    </contour>
    <contour>
      <point x="148" y="699" type="move" name="abvm"/>
    </contour>
    <contour>
      <point x="128" y="699" type="line"/>
      <point x="128" y="0" type="line"/>
      <point x="461" y="0" type="line"/>
      <point x="461" y="20" type="line"/>
      <point x="148" y="20" type="line"/>
      <point x="148" y="699" type="line"/>
    </contour>
  </outline>
</glyph>
<glyph name="N" format="1">
  <advance width="799"/>
  <unicode hex="004E"/>
  <outline>
    <contour>
      <point x="400" y="0" type="move" name="blwm"/>
    </contour>
    <contour>
      <point x="400" y="699" type="move" name="abvm"/>
    </contour>
    <contour>
      <point x="651" y="699" type="line"/>
      <point x="651" y="20" type="line"/>
      <point x="158" y="699" type="line"/>
      <point x="128" y="699" type="line"/>
      <point x="128" y="0" type="line"/>
      <point x="148" y="0" type="line"/>
      <point x="148" y="679" type="line"/>
      <point x="641" y="0" type="line"/>
      <point x="671" y="0" type="line"/>
      <point x="671" y="699" type="line"/>
    </contour>
  </outline>
</glyph>
<glyph name="P" format="1">
  <advance width="662"/>
  <unicode hex="0050"/>
  <outline>
    <contour>
      <point x="128" y="699" type="line"/>
      <point x="128" y="0" type="line"/>
      <point x="148" y="0" type="line"/>
      <point x="148" y="240" type="line"/>
      <point x="365" y="240" type="line" smooth="yes"/>
      <point x="535" y="240"/>
      <point x="632" y="325"/>
      <point x="632" y="472" type="curve" smooth="yes"/>
      <point x="632" y="616"/>
      <point x="535" y="699"/>
      <point x="365" y="699" type="curve" smooth="yes"/>
    </contour>
    <contour>
      <point x="612" y="472" type="curve" smooth="yes"/>
      <point x="612" y="337"/>
      <point x="522" y="260"/>
      <point x="365" y="260" type="curve" smooth="yes"/>
      <point x="148" y="260" type="line"/>
      <point x="148" y="679" type="line"/>
      <point x="365" y="679" type="line" smooth="yes"/>
      <point x="522" y="679"/>
      <point x="612" y="604"/>
    </contour>
  </outline>
</glyph>
<glyph name="Q" format="1">
  <advance width="839"/>
  <unicode hex="0051"/>
  <outline>
    <contour>
      <point x="648" y="-124" type="curve" smooth="yes"/>
      <point x="701" y="-124"/>
      <point x="754" y="-99"/>
      <point x="808" y="-48" type="curve"/>
      <point x="794.0" y="-34" type="line"/>
      <point x="744" y="-81"/>
      <point x="696" y="-105"/>
      <point x="648" y="-105" type="curve" smooth="yes"/>
      <point x="588.675770501" y="-105.0"/>
      <point x="527.578114846" y="-69.5314768892"/>
      <point x="456.35726" y="3.0861" type="curve"/>
      <point x="631.307530444" y="25.9556080406"/>
      <point x="768.0" y="173.633532524"/>
      <point x="768.0" y="350.0" type="curve" smooth="yes"/>
      <point x="768" y="542"/>
      <point x="606" y="699"/>
      <point x="409" y="699" type="curve" smooth="yes"/>
      <point x="212" y="699"/>
      <point x="50" y="542"/>
      <point x="50" y="350" type="curve" smooth="yes"/>
      <point x="50" y="158"/>
      <point x="212" y="0"/>
      <point x="409" y="0" type="curve" smooth="yes"/>
      <point x="416.446196708" y="0.0"/>
      <point x="423.842389433" y="0.225732267675"/>
      <point x="431.18172" y="0.67198" type="curve"/>
      <point x="508" y="-82"/>
      <point x="579" y="-124"/>
    </contour>
    <contour>
      <point x="748" y="350" type="curve" smooth="yes"/>
      <point x="748" y="169"/>
      <point x="595" y="20"/>
      <point x="409" y="20" type="curve" smooth="yes"/>
      <point x="223" y="20"/>
      <point x="70" y="169"/>
      <point x="70" y="350" type="curve" smooth="yes"/>
      <point x="70" y="531"/>
      <point x="223" y="679"/>
      <point x="409" y="679" type="curve" smooth="yes"/>
      <point x="595" y="679"/>
      <point x="748" y="531"/>
    </contour>
  </outline>
</glyph>
<glyph name="R" format="1">
  <advance width="722"/>
  <unicode hex="0052"/>
  <outline>
    <contour>
      <point x="361" y="0" type="move" name="blwm"/>
    </contour>
    <contour>
      <point x="341" y="699" type="move" name="abvm"/>
    </contour>
    <contour>
      <point x="612" y="472" type="curve" smooth="yes"/>
      <point x="612" y="337"/>
      <point x="522" y="260"/>
      <point x="365" y="260" type="curve" smooth="yes"/>
      <point x="148" y="260" type="line"/>
      <point x="148" y="679" type="line"/>
      <point x="365" y="679" type="line" smooth="yes"/>
      <point x="522" y="679"/>
      <point x="612" y="604"/>
    </contour>
    <contour>
      <point x="148" y="240.0" type="line"/>
      <point x="365.0" y="240.0" type="line" smooth="yes"/>
      <point x="387.62659591" y="240.0"/>
      <point x="408.959998481" y="241.505773066"/>
      <point x="428.94362" y="244.46659" type="curve"/>
      <point x="607" y="0" type="line"/>
      <point x="632" y="0" type="line"/>
      <point x="451.04551" y="248.44562" type="line"/>
      <point x="567.326497756" y="273.275020789"/>
      <point x="632.0" y="351.968659162"/>
      <point x="632.0" y="472.0" type="curve" smooth="yes"/>
      <point x="632" y="616"/>
      <point x="535" y="699"/>
      <point x="365" y="699" type="curve" smooth="yes"/>
      <point x="128" y="699.0" type="line"/>
      <point x="128" y="0" type="line"/>
      <point x="148" y="0" type="line"/>
    </contour>
  </outline>
</glyph>
<glyph name="T" format="1">
  <advance width="526"/>
  <unicode hex="0054"/>
  <outline>
    <contour>
      <point x="258" y="0" type="move" name="blwm"/>
    </contour>
    <contour>
      <point x="263" y="350" type="move" name="center"/>
    </contour>
    <contour>
      <point x="263" y="699" type="move" name="abvm"/>
    </contour>
    <contour>
      <point x="13" y="699" type="line"/>
      <point x="13" y="679" type="line"/>
      <point x="253" y="679" type="line"/>
      <point x="253" y="0" type="line"/>
      <point x="273" y="0" type="line"/>
      <point x="273" y="679" type="line"/>
      <point x="513" y="679" type="line"/>
      <point x="513" y="699" type="line"/>
    </contour>
  </outline>
</glyph>
<glyph name="U" format="1">
  <advance width="774"/>
  <unicode hex="0055"/>
  <outline>
    <contour>
      <point x="527" y="10" type="move" name="ogonek"/>
    </contour>
    <contour>
      <point x="387" y="699" type="move" name="abvm"/>
    </contour>
    <contour>
      <point x="644" y="699" type="line"/>
      <point x="644" y="284" type="line"/>
      <point x="644" y="116"/>
      <point x="550" y="20"/>
      <point x="387" y="20" type="curve"/>
      <point x="224" y="20"/>
      <point x="130" y="116"/>
      <point x="130" y="284" type="curve"/>
      <point x="130" y="699" type="line"/>
      <point x="110" y="699" type="line"/>
      <point x="110" y="284" type="line"/>
      <point x="110" y="103"/>
      <point x="211" y="0"/>
      <point x="387" y="0" type="curve"/>
      <point x="563" y="0"/>
      <point x="664" y="103"/>
      <point x="664" y="284" type="curve"/>
      <point x="664" y="699" type="line"/>
    </contour>
  </outline>
</glyph>
<glyph name="V" format="1">
  <advance width="626"/>
  <unicode hex="0056"/>
  <outline>
    <contour>
      <point x="592" y="699" type="line"/>
      <point x="313" y="23" type="line"/>
      <point x="33" y="699" type="line"/>
      <point x="10" y="699" type="line"/>
      <point x="302" y="0" type="line"/>
      <point x="324" y="0" type="line"/>
      <point x="616" y="699" type="line"/>
    </contour>
  </outline>
</glyph>
<glyph name="Y" format="1">
  <advance width="606"/>
  <unicode hex="0059"/>
  <outline>
    <contour>
      <point x="303" y="699" type="move" name="abvm"/>
    </contour>
    <contour>
      <point x="315" y="0" type="line"/>
      <point x="315" y="268.71875" type="line"/>
      <point x="596" y="699.0" type="line"/>
      <point x="572" y="699.0" type="line"/>
      <point x="305" y="289" type="line"/>
      <point x="34" y="699.0" type="line"/>
      <point x="10" y="699.0" type="line"/>
      <point x="295" y="268.57192" type="line"/>
      <point x="295" y="0" type="line"/>
    </contour>
  </outline>
</glyph>
<glyph name="Z" format="1">
  <advance width="650"/>
  <unicode hex="005A"/>
  <outline>
    <contour>
      <point x="325" y="699" type="move" name="abvm"/>
    </contour>
    <contour>
      <point x="66" y="699" type="line"/>
      <point x="66" y="679" type="line"/>
      <point x="575" y="679" type="line"/>
      <point x="52" y="25" type="line"/>
      <point x="52" y="0" type="line"/>
      <point x="598" y="0" type="line"/>
      <point x="598" y="20" type="line"/>
      <point x="72" y="20" type="line"/>
      <point x="595" y="674" type="line"/>
      <point x="595" y="699" type="line"/>
    </contour>
  </outline>
</glyph>
<glyph name="bracketleft" format="1">
  <advance width="317"/>
  <unicode hex="005B"/>
  <outline>
    <contour>
      <point x="128" y="742" type="line"/>
      <point x="128" y="-124" type="line"/>
      <point x="277" y="-124" type="line"/>
      <point x="277" y="-104" type="line"/>
      <point x="148" y="-104" type="line"/>
      <point x="148" y="722" type="line"/>
      <point x="277" y="722" type="line"/>
      <point x="277" y="742" type="line"/>
    </contour>
  </outline>
</glyph>
<glyph name="backslash" format="1">
  <advance width="294"/>
  <unicode hex="005C"/>
  <outline>
    <contour>
      <point x="-37" y="826" type="line"/>
      <point x="269" y="-130" type="line"/>
      <point x="290" y="-130" type="line"/>
      <point x="-16" y="826" type="line"/>
    </contour>
  </outline>
</glyph>
<glyph name="bracketright" format="1">
  <advance width="317"/>
  <unicode hex="005D"/>
  <outline>
    <contour>
      <point x="40" y="742" type="line"/>
      <point x="40" y="722" type="line"/>
      <point x="169" y="722" type="line"/>
      <point x="169" y="-104" type="line"/>
      <point x="40" y="-104" type="line"/>
      <point x="40" y="-124" type="line"/>
      <point x="189" y="-124" type="line"/>
      <point x="189" y="742" type="line"/>
    </contour>
  </outline>
</glyph>
<glyph name="asciicircum" format="1">
  <advance width="478"/>
  <unicode hex="005E"/>
  <outline>
    <contour>
      <point x="252" y="528" type="line"/>
      <point x="226" y="528" type="line"/>
      <point x="40" y="128" type="line"/>
      <point x="62" y="128" type="line"/>
      <point x="239" y="509" type="line"/>
      <point x="416" y="128" type="line"/>
      <point x="438" y="128" type="line"/>
    </contour>
  </outline>
</glyph>
<glyph name="underscore" format="1">
  <advance width="537"/>
  <unicode hex="005F"/>
  <outline>
    <contour>
      <point x="0" y="-184" type="line"/>
      <point x="0" y="-204" type="line"/>
      <point x="537" y="-204" type="line"/>
      <point x="537" y="-184" type="line"/>
    </contour>
  </outline>
</glyph>
<glyph name="a" format="1">
  <advance width="562"/>
  <unicode hex="0061"/>
  <outline>
    <contour>
      <point x="505" y="10" type="move" name="ogonek"/>
    </contour>
    <contour>
      <point x="275" y="517" type="move" name="abvm"/>
    </contour>
    <contour>
      <point x="469.0" y="0" type="line"/>
      <point x="467.0" y="345" type="line"/>
      <point x="466" y="450"/>
      <point x="402" y="517"/>
      <point x="283" y="517" type="curve"/>
      <point x="210" y="517"/>
      <point x="148" y="487"/>
      <point x="90" y="441" type="curve"/>
      <point x="102.0" y="425.0" type="line"/>
      <point x="158" y="469"/>
      <point x="214" y="497"/>
      <point x="283" y="497" type="curve"/>
      <point x="392" y="497"/>
      <point x="446" y="440"/>
      <point x="447" y="345" type="curve"/>
      <point x="447.36522" y="282" type="line"/>
      <point x="255.0" y="282" type="line"/>
      <point x="137" y="282"/>
      <point x="63" y="233"/>
      <point x="63" y="149" type="curve"/>
      <point x="63" y="63"/>
      <point x="131" y="0"/>
      <point x="231" y="0" type="curve"/>
      <point x="324.238270708" y="0.0"/>
      <point x="401.530967338" y="35.6877134123"/>
      <point x="448.32169" y="117.00854" type="curve"/>
      <point x="449.0" y="0" type="line"/>
    </contour>
    <contour>
      <point x="232" y="20" type="curve"/>
      <point x="141" y="20"/>
      <point x="83" y="73"/>
      <point x="83" y="149" type="curve"/>
      <point x="83" y="221"/>
      <point x="145" y="262"/>
      <point x="255" y="262" type="curve"/>
      <point x="447.48116" y="262" type="line"/>
      <point x="448.06256" y="161.70782" type="line"/>
      <point x="408" y="61"/>
      <point x="333" y="20"/>
    </contour>
  </outline>
</glyph>
<glyph name="b" format="1">
  <advance width="669"/>
  <unicode hex="0062"/>
  <outline>
    <contour>
      <point x="597" y="258" type="curve" smooth="yes"/>
      <point x="597" y="120"/>
      <point x="500" y="20"/>
      <point x="366" y="20" type="curve" smooth="yes"/>
      <point x="232" y="20"/>
      <point x="135" y="120"/>
      <point x="135" y="258" type="curve" smooth="yes"/>
      <point x="135" y="396"/>
      <point x="232" y="497"/>
      <point x="366" y="497" type="curve" smooth="yes"/>
      <point x="500" y="497"/>
      <point x="597" y="396"/>
    </contour>
    <contour>
      <point x="366.0" y="0.0" type="curve" smooth="yes"/>
      <point x="511" y="0"/>
      <point x="617" y="109"/>
      <point x="617" y="258" type="curve" smooth="yes"/>
      <point x="617" y="408"/>
      <point x="511" y="517"/>
      <point x="366" y="517" type="curve" smooth="yes"/>
      <point x="258.393903733" y="517.0"/>
      <point x="172.266228688" y="456.970566327"/>
      <point x="135" y="364.66765" type="curve"/>
      <point x="135" y="742.0" type="line"/>
      <point x="115.0" y="742.0" type="line"/>
      <point x="115.0" y="0" type="line"/>
      <point x="135" y="0" type="line"/>
      <point x="135" y="151.92322" type="line"/>
      <point x="172.266228688" y="60.0294336729"/>
      <point x="258.393903733" y="7.1054273576e-15"/>
    </contour>
  </outline>
</glyph>
<glyph name="c" format="1">
  <advance width="557"/>
  <unicode hex="0063"/>
  <outline>
    <contour>
      <point x="289" y="0" type="move" name="blwm"/>
    </contour>
    <contour>
      <point x="279" y="517" type="move" name="abvm"/>
    </contour>
    <contour>
      <point x="52" y="259" type="curve" smooth="yes"/>
      <point x="52" y="108"/>
      <point x="159" y="0"/>
      <point x="303" y="0" type="curve" smooth="yes"/>
      <point x="379" y="0"/>
      <point x="445" y="30"/>
      <point x="490" y="81" type="curve"/>
      <point x="477" y="95" type="line"/>
      <point x="435" y="47"/>
      <point x="374" y="20"/>
      <point x="303" y="20" type="curve" smooth="yes"/>
      <point x="169" y="20"/>
      <point x="71" y="118"/>
      <point x="71" y="259" type="curve" smooth="yes"/>
      <point x="71" y="399"/>
      <point x="169" y="497"/>
      <point x="303" y="497" type="curve" smooth="yes"/>
      <point x="368" y="497"/>
      <point x="423" y="473"/>
      <point x="466" y="434" type="curve"/>
      <point x="479" y="448" type="line"/>
      <point x="434" y="491"/>
      <point x="372" y="517"/>
      <point x="303" y="517" type="curve" smooth="yes"/>
      <point x="159" y="517"/>
      <point x="52" y="409"/>
    </contour>
  </outline>
</glyph>
<glyph name="e" format="1">
  <advance width="589"/>
  <unicode hex="0065"/>
  <outline>
    <contour>
      <point x="295" y="0" type="move" name="blwm"/>
    </contour>
    <contour>
      <point x="509" y="10" type="move" name="ogonek"/>
    </contour>
    <contour>
      <point x="295" y="517" type="move" name="abvm"/>
    </contour>
    <contour>
      <point x="301.0" y="497.0" type="curve" smooth="yes"/>
      <point x="429" y="497"/>
      <point x="512" y="408"/>
      <point x="521" y="279" type="curve"/>
      <point x="72.68004" y="279" type="line"/>
      <point x="81.4650717387" y="408.338431969"/>
      <point x="174.495403129" y="497.0"/>
    </contour>
    <contour>
      <point x="498" y="81" type="curve"/>
      <point x="484.0" y="95.0" type="line"/>
      <point x="441" y="47"/>
      <point x="376" y="20"/>
      <point x="301" y="20" type="curve" smooth="yes"/>
      <point x="168" y="20"/>
      <point x="72" y="118"/>
      <point x="72" y="259" type="curve" smooth="yes"/>
      <point x="541" y="259" type="line"/>
      <point x="541" y="409"/>
      <point x="445" y="517"/>
      <point x="301" y="517" type="curve" smooth="yes"/>
      <point x="158" y="517"/>
      <point x="52" y="409"/>
      <point x="52" y="259" type="curve" smooth="yes"/>
      <point x="52" y="108"/>
      <point x="158" y="0"/>
      <point x="301" y="0" type="curve" smooth="yes"/>
      <point x="381" y="0"/>
      <point x="451" y="30"/>
    </contour>
  </outline>
</glyph>
<glyph name="g" format="1">
  <advance width="630"/>
  <unicode hex="0067"/>
  <outline>
    <contour>
      <point x="315" y="517" type="move" name="abvm"/>
    </contour>
    <contour>
      <point x="516" y="267" type="curve" smooth="yes"/>
      <point x="516" y="135"/>
      <point x="422" y="38"/>
      <point x="293" y="38" type="curve" smooth="yes"/>
      <point x="164" y="38"/>
      <point x="71" y="135"/>
      <point x="71" y="267" type="curve" smooth="yes"/>
      <point x="71" y="400"/>
      <point x="164" y="498"/>
      <point x="293" y="498" type="curve" smooth="yes"/>
      <point x="422" y="498"/>
      <point x="516" y="400"/>
    </contour>
    <contour>
      <point x="290" y="-193" type="curve" smooth="yes"/>
      <point x="439" y="-194"/>
      <point x="536" y="-95"/>
      <point x="536" y="59" type="curve"/>
      <point x="536" y="517" type="line"/>
      <point x="516" y="517" type="line"/>
      <point x="516" y="369.43001" type="line"/>
      <point x="480.25504758" y="458.900102102"/>
      <point x="397.140838648" y="517.0"/>
      <point x="293.0" y="517.0" type="curve" smooth="yes"/>
      <point x="154" y="517"/>
      <point x="52" y="412"/>
      <point x="52" y="267" type="curve" smooth="yes"/>
      <point x="52" y="124"/>
      <point x="154" y="19"/>
      <point x="293" y="19" type="curve" smooth="yes"/>
      <point x="397.140838648" y="19.0"/>
      <point x="480.25504758" y="77.0998978977"/>
      <point x="516" y="165.75668" type="curve"/>
      <point x="516" y="59.0" type="line"/>
      <point x="516" y="-83"/>
      <point x="427" y="-174"/>
      <point x="290" y="-173" type="curve" smooth="yes"/>
      <point x="212" y="-170"/>
      <point x="151" y="-144"/>
      <point x="96" y="-89" type="curve"/>
      <point x="82" y="-103.0" type="line"/>
      <point x="142" y="-162"/>
      <point x="207" y="-190"/>
    </contour>
  </outline>
</glyph>
<glyph name="h" format="1">
  <advance width="650"/>
  <unicode hex="0068"/>
  <outline>
    <contour>
      <point x="570" y="0" type="move" name="blwm"/>
    </contour>
    <contour>
      <point x="327" y="259" type="move" name="center"/>
    </contour>
    <contour>
      <point x="126" y="742" type="move" name="abvm"/>
    </contour>
    <contour>
      <point x="223" y="517" type="move" name="topright"/>
    </contour>
    <contour>
      <point x="135" y="253.0" type="line"/>
      <point x="135" y="403"/>
      <point x="216" y="494"/>
      <point x="354" y="497" type="curve"/>
      <point x="469" y="497"/>
      <point x="537" y="429"/>
      <point x="537" y="313" type="curve"/>
      <point x="537" y="0" type="line" smooth="yes"/>
      <point x="557" y="0" type="line"/>
      <point x="557" y="313" type="line"/>
      <point x="557" y="441"/>
      <point x="482" y="517"/>
      <point x="354" y="517" type="curve"/>
      <point x="244.4439753" y="514.794173999"/>
      <point x="167.866369385" y="461.228515466"/>
      <point x="135" y="368.18916" type="curve"/>
      <point x="135" y="742.0" type="line"/>
      <point x="115.0" y="742.0" type="line"/>
      <point x="115.0" y="0" type="line"/>
      <point x="135" y="0" type="line"/>
    </contour>
  </outline>
</glyph>
<glyph name="i" format="1">
  <advance width="240"/>
  <unicode hex="0069"/>
  <outline>
    <contour>
      <point x="120" y="517" type="move" name="_abvm"/>
    </contour>
    <contour>
      <point x="189" y="10" type="move" name="ogonek"/>
    </contour>
    <contour>
      <point x="120" y="517" type="move" name="abvm"/>
    </contour>
    <contour>
      <point x="94" y="666" type="curve" smooth="yes"/>
      <point x="94" y="652"/>
      <point x="106" y="640"/>
      <point x="120" y="640" type="curve" smooth="yes"/>
      <point x="134" y="640"/>
      <point x="146" y="652"/>
      <point x="146" y="666" type="curve" smooth="yes"/>
      <point x="146" y="680"/>
      <point x="134" y="692"/>
      <point x="120" y="692" type="curve" smooth="yes"/>
      <point x="106" y="692"/>
      <point x="94" y="680"/>
    </contour>
    <contour>
      <point x="110" y="517" type="line"/>
      <point x="110" y="0" type="line"/>
      <point x="130" y="0" type="line"/>
      <point x="130" y="517" type="line"/>
    </contour>
  </outline>
</glyph>
<glyph name="k" format="1">
  <advance width="538"/>
  <unicode hex="006B"/>
  <outline>
    <contour>
      <point x="105" y="0" type="move" name="blwm"/>
    </contour>
    <contour>
      <point x="125" y="742" type="move" name="abvm"/>
    </contour>
    <contour>
      <point x="223" y="517" type="move" name="topright"/>
    </contour>
    <contour>
      <point x="498.0" y="0" type="line"/>
      <point x="522" y="0" type="line"/>
      <point x="294.79047" y="316.53977" type="line"/>
      <point x="492.0" y="517" type="line"/>
      <point x="464.0" y="517" type="line"/>
      <point x="135" y="185.0625" type="line"/>
      <point x="135" y="742.0" type="line"/>
      <point x="115.0" y="742.0" type="line"/>
      <point x="115.0" y="0" type="line"/>
      <point x="135" y="0" type="line"/>
      <point x="135" y="154.11538" type="line"/>
      <point x="280.57337" y="302.08832" type="line"/>
    </contour>
  </outline>
</glyph>
<glyph name="l" format="1">
  <advance width="250"/>
  <unicode hex="006C"/>
  <outline>
    <contour>
      <point x="125" y="0" type="move" name="blwm"/>
    </contour>
    <contour>
      <point x="125" y="742" type="move" name="abvm"/>
    </contour>
    <contour>
      <point x="223" y="517" type="move" name="topright"/>
    </contour>
    <contour>
      <point x="115" y="742" type="line"/>
      <point x="115" y="0" type="line"/>
      <point x="135" y="0" type="line"/>
      <point x="135" y="742" type="line"/>
    </contour>
  </outline>
</glyph>
<glyph name="m" format="1">
  <advance width="1046"/>
  <unicode hex="006D"/>
  <outline>
    <contour>
      <point x="130" y="253.0" type="line"/>
      <point x="130" y="403"/>
      <point x="209" y="494"/>
      <point x="343" y="497" type="curve"/>
      <point x="455" y="497"/>
      <point x="522" y="429"/>
      <point x="522" y="313" type="curve"/>
      <point x="522" y="0" type="line" smooth="yes"/>
      <point x="542" y="0" type="line"/>
      <point x="542" y="253.0" type="line"/>
      <point x="542" y="403"/>
      <point x="620" y="494"/>
      <point x="755" y="497" type="curve"/>
      <point x="867" y="497"/>
      <point x="933" y="429"/>
      <point x="933" y="313" type="curve"/>
      <point x="933.0" y="0" type="line" smooth="yes"/>
      <point x="953.0" y="0" type="line"/>
      <point x="953.0" y="313" type="line"/>
      <point x="953" y="441"/>
      <point x="880" y="517"/>
      <point x="755" y="517" type="curve"/>
      <point x="644.840150886" y="514.720830708"/>
      <point x="568.733873666" y="457.609638877"/>
      <point x="538.52057" y="358.78531" type="curve"/>
      <point x="522.5495065" y="458.952614902"/>
      <point x="452.369287821" y="517.0"/>
      <point x="344.0" y="517.0" type="curve"/>
      <point x="237.094841564" y="514.803318662"/>
      <point x="162.359075791" y="461.671765607"/>
      <point x="130" y="369.35616" type="curve"/>
      <point x="130" y="517" type="line"/>
      <point x="110.0" y="517" type="line"/>
      <point x="110.0" y="0" type="line"/>
      <point x="130" y="0" type="line"/>
    </contour>
  </outline>
</glyph>
<glyph name="n" format="1">
  <advance width="644"/>
  <unicode hex="006E"/>
  <outline>
    <contour>
      <point x="325" y="0" type="move" name="blwm"/>
    </contour>
    <contour>
      <point x="332" y="517" type="move" name="abvm"/>
    </contour>
    <contour>
      <point x="348.0" y="497.0" type="curve"/>
      <point x="463" y="497"/>
      <point x="531" y="429"/>
      <point x="531" y="313" type="curve"/>
      <point x="531" y="0" type="line" smooth="yes"/>
      <point x="551" y="0" type="line"/>
      <point x="551" y="313" type="line"/>
      <point x="551" y="441"/>
      <point x="476" y="517"/>
      <point x="348" y="517" type="curve"/>
      <point x="239.540516467" y="514.816252009"/>
      <point x="163.402596543" y="462.295642662"/>
      <point x="130" y="371.00761" type="curve"/>
      <point x="130" y="517" type="line"/>
      <point x="110.0" y="517" type="line"/>
      <point x="110.0" y="0" type="line"/>
      <point x="130" y="0" type="line"/>
      <point x="130" y="281.04133" type="line"/>
      <point x="139.661558423" y="414.348131185"/>
      <point x="218.880973016" y="494.193064631"/>
    </contour>
  </outline>
</glyph>
<glyph name="q" format="1">
  <advance width="673"/>
  <unicode hex="0071"/>
  <outline>
    <contour>
      <point x="558" y="-194.0" type="line"/>
      <point x="558" y="517" type="line"/>
      <point x="538" y="517" type="line"/>
      <point x="538" y="364.97604" type="line"/>
      <point x="500.499430065" y="458.22337441"/>
      <point x="413.523753205" y="519.0"/>
      <point x="305.0" y="519.0" type="curve" smooth="yes"/>
      <point x="159" y="519"/>
      <point x="52" y="409"/>
      <point x="52" y="258" type="curve" smooth="yes"/>
      <point x="52" y="108"/>
      <point x="159" y="-2"/>
      <point x="305" y="-2" type="curve" smooth="yes"/>
      <point x="413.523753205" y="-2.0"/>
      <point x="500.499430065" y="58.7766255895"/>
      <point x="538" y="151.59947" type="curve"/>
      <point x="538" y="-194.0" type="line"/>
    </contour>
    <contour>
      <point x="538" y="258" type="curve" smooth="yes"/>
      <point x="538" y="119"/>
      <point x="440" y="18"/>
      <point x="305" y="18" type="curve" smooth="yes"/>
      <point x="170" y="18"/>
      <point x="72" y="119"/>
      <point x="72" y="258" type="curve" smooth="yes"/>
      <point x="72" y="397"/>
      <point x="170" y="499"/>
      <point x="305" y="499" type="curve" smooth="yes"/>
      <point x="440" y="499"/>
      <point x="538" y="397"/>
    </contour>
  </outline>
</glyph>
<glyph name="r" format="1">
  <advance width="338"/>
  <unicode hex="0072"/>
  <outline>
    <contour>
      <point x="120" y="0" type="move" name="blwm"/>
    </contour>
    <contour>
      <point x="166" y="517" type="move" name="abvm"/>
    </contour>
    <contour>
      <point x="130" y="0" type="line"/>
      <point x="130" y="282.49601" type="line"/>
      <point x="139.139960866" y="414.932334025"/>
      <point x="210.540766991" y="494.203351595"/>
      <point x="328.0" y="497.0" type="curve"/>
      <point x="328" y="517" type="line"/>
      <point x="230.085110419" y="514.85587833"/>
      <point x="161.286186489" y="464.185147243"/>
      <point x="130" y="375.92948" type="curve"/>
      <point x="130" y="517" type="line"/>
      <point x="110.0" y="517" type="line"/>
      <point x="110.0" y="0" type="line"/>
    </contour>
  </outline>
</glyph>
<glyph name="u" format="1">
  <advance width="637"/>
  <unicode hex="0075"/>
  <outline>
    <contour>
      <point x="567" y="10" type="move" name="ogonek"/>
    </contour>
    <contour>
      <point x="316" y="517" type="move" name="abvm"/>
    </contour>
    <contour>
      <point x="527" y="0" type="line"/>
      <point x="527" y="517" type="line"/>
      <point x="507.0" y="517" type="line"/>
      <point x="507.0" y="264" type="line"/>
      <point x="507" y="114"/>
      <point x="427" y="23"/>
      <point x="292" y="20" type="curve"/>
      <point x="179" y="20"/>
      <point x="112" y="88"/>
      <point x="112" y="204" type="curve"/>
      <point x="112.0" y="517" type="line" smooth="yes"/>
      <point x="92.0" y="517" type="line"/>
      <point x="92.0" y="204.0" type="line"/>
      <point x="92" y="76"/>
      <point x="166" y="0"/>
      <point x="292" y="0" type="curve"/>
      <point x="400.021680496" y="2.21962357184"/>
      <point x="475.198502321" y="56.4436067061"/>
      <point x="507.0" y="150.5594" type="curve"/>
      <point x="507.0" y="0" type="line"/>
    </contour>
  </outline>
</glyph>
<glyph name="v" format="1">
  <advance width="456"/>
  <unicode hex="0076"/>
  <outline>
    <contour>
      <point x="432" y="517" type="line"/>
      <point x="233" y="23" type="line"/>
      <point x="33" y="517" type="line"/>
      <point x="10" y="517" type="line"/>
      <point x="222" y="0" type="line"/>
      <point x="244" y="0" type="line"/>
      <point x="456" y="517" type="line"/>
    </contour>
  </outline>
</glyph>
<glyph name="bar" format="1">
  <advance width="220"/>
  <unicode hex="007C"/>
  <outline>
    <contour>
      <point x="100" y="824" type="line"/>
      <point x="100" y="-129" type="line"/>
      <point x="120" y="-129" type="line"/>
      <point x="120" y="824" type="line"/>
    </contour>
  </outline>
</glyph>
<glyph name="braceright" format="1">
  <advance width="284"/>
  <unicode hex="007D"/>
  <outline>
    <contour>
      <point x="28.0" y="-126.0" type="line"/>
      <point x="33" y="-126.0" type="line" smooth="yes"/>
      <point x="117" y="-126"/>
      <point x="156" y="-94"/>
      <point x="156" y="-24" type="curve" smooth="yes"/>
      <point x="156" y="226.0" type="line" smooth="yes"/>
      <point x="156" y="275"/>
      <point x="174" y="298"/>
      <point x="211" y="298" type="curve" smooth="yes"/>
      <point x="230.0" y="298" type="line"/>
      <point x="230.0" y="318" type="line"/>
      <point x="211.0" y="318" type="line"/>
      <point x="174" y="318"/>
      <point x="156" y="341"/>
      <point x="156" y="390" type="curve" smooth="yes"/>
      <point x="156" y="640" type="line" smooth="yes"/>
      <point x="156" y="710"/>
      <point x="117" y="742"/>
      <point x="33" y="742" type="curve" smooth="yes"/>
      <point x="28.0" y="742.0" type="line"/>
      <point x="28.0" y="722.0" type="line"/>
      <point x="102" y="722"/>
      <point x="136" y="696"/>
      <point x="136" y="640" type="curve" smooth="yes"/>
      <point x="136" y="390.0" type="line" smooth="yes"/>
      <point x="136.0" y="343.247901016"/>
      <point x="147.365945549" y="318.353389626"/>
      <point x="175.82041" y="307.99644" type="curve"/>
      <point x="147.365945549" y="297.646610374"/>
      <point x="136.0" y="272.752098984"/>
      <point x="136.0" y="226.0" type="curve" smooth="yes"/>
      <point x="136" y="-24.0" type="line" smooth="yes"/>
      <point x="136" y="-80"/>
      <point x="102" y="-106"/>
      <point x="28" y="-106" type="curve"/>
    </contour>
  </outline>
</glyph>
<glyph name="exclamdown" format="1">
  <advance width="192"/>
  <unicode hex="00A1"/>
  <outline>
    <contour>
      <point x="122" y="497" type="curve" smooth="yes"/>
      <point x="122" y="511"/>
      <point x="110" y="523"/>
      <point x="96" y="523" type="curve" smooth="yes"/>
      <point x="82" y="523"/>
      <point x="70" y="511"/>
      <point x="70" y="497" type="curve" smooth="yes"/>
      <point x="70" y="483"/>
      <point x="82" y="471"/>
      <point x="96" y="471" type="curve" smooth="yes"/>
      <point x="110" y="471"/>
      <point x="122" y="483"/>
    </contour>
    <contour>
      <point x="106.0" y="-166" type="line"/>
      <point x="106.0" y="328" type="line"/>
      <point x="86" y="328" type="line"/>
      <point x="86" y="-166" type="line"/>
    </contour>
  </outline>
</glyph>
<glyph name="cent" format="1">
  <advance width="557"/>
  <unicode hex="00A2"/>
  <note>
    cent
  </note>
  <outline>
    <contour>
      <point x="477" y="95" type="line"/>
      <point x="435" y="47"/>
      <point x="375" y="20"/>
      <point x="304" y="20" type="curve"/>
      <point x="304" y="497" type="line"/>
      <point x="369" y="497"/>
      <point x="423" y="473"/>
      <point x="466" y="434" type="curve"/>
      <point x="479" y="448" type="line"/>
      <point x="434" y="491"/>
      <point x="373" y="517"/>
      <point x="304" y="517" type="curve"/>
      <point x="304" y="654" type="line"/>
      <point x="284" y="654" type="line"/>
      <point x="284" y="516" type="line"/>
      <point x="150" y="507"/>
      <point x="52" y="402"/>
      <point x="52" y="259" type="curve" smooth="yes"/>
      <point x="52" y="115"/>
      <point x="150" y="10"/>
      <point x="284" y="1" type="curve"/>
      <point x="284" y="-119" type="line"/>
      <point x="304" y="-119" type="line"/>
      <point x="304" y="0" type="line"/>
      <point x="380" y="0"/>
      <point x="445" y="30"/>
      <point x="490" y="81" type="curve"/>
    </contour>
    <contour>
      <point x="284" y="496" type="curve"/>
      <point x="284" y="21" type="line"/>
      <point x="160" y="29"/>
      <point x="71" y="125"/>
      <point x="71" y="259" type="curve" smooth="yes"/>
      <point x="71" y="392"/>
      <point x="160" y="488"/>
    </contour>
  </outline>
</glyph>
<glyph name="sterling" format="1">
  <advance width="532"/>
  <unicode hex="00A3"/>
  <note>
    sterling
  </note>
  <outline>
    <contour>
      <point x="482.0" y="20" type="line"/>
      <point x="166" y="20" type="line"/>
      <point x="166" y="330" type="line"/>
      <point x="357.0" y="330" type="line"/>
      <point x="357.0" y="350.0" type="line"/>
      <point x="166" y="350.0" type="line"/>
      <point x="166" y="502.0" type="line" smooth="yes"/>
      <point x="166" y="617"/>
      <point x="220" y="679"/>
      <point x="318" y="679" type="curve" smooth="yes"/>
      <point x="381" y="679"/>
      <point x="437" y="647"/>
      <point x="478" y="587" type="curve"/>
      <point x="492.0" y="601" type="line"/>
      <point x="448" y="664"/>
      <point x="386" y="699"/>
      <point x="318" y="699" type="curve" smooth="yes"/>
      <point x="207" y="699"/>
      <point x="146" y="629"/>
      <point x="146" y="502" type="curve" smooth="yes"/>
      <point x="146" y="350.0" type="line"/>
      <point x="52.0" y="350.0" type="line"/>
      <point x="52.0" y="330" type="line"/>
      <point x="146" y="330" type="line"/>
      <point x="146" y="20" type="line"/>
      <point x="52.0" y="20" type="line"/>
      <point x="52.0" y="0" type="line"/>
      <point x="482.0" y="0" type="line"/>
    </contour>
  </outline>
</glyph>
<glyph name="yen" format="1">
  <advance width="606"/>
  <unicode hex="00A5"/>
  <note>
    yen
  </note>
  <outline>
    <contour>
      <point x="596" y="699" type="line"/>
      <point x="572" y="699" type="line"/>
      <point x="305" y="289" type="line"/>
      <point x="34" y="699" type="line"/>
      <point x="10" y="699" type="line"/>
      <point x="281" y="289" type="line"/>
      <point x="83" y="289" type="line"/>
      <point x="83" y="269" type="line"/>
      <point x="295" y="269" type="line"/>
      <point x="295" y="149" type="line"/>
      <point x="83" y="149" type="line"/>
      <point x="83" y="129" type="line"/>
      <point x="295" y="129" type="line"/>
      <point x="295" y="0" type="line"/>
      <point x="315" y="0" type="line"/>
      <point x="315" y="129" type="line"/>
      <point x="523" y="129" type="line"/>
      <point x="523" y="149" type="line"/>
      <point x="315" y="149" type="line"/>
      <point x="315" y="269" type="line"/>
      <point x="523" y="269" type="line"/>
      <point x="523" y="289" type="line"/>
      <point x="328" y="289" type="line"/>
    </contour>
  </outline>
</glyph>
<glyph name="dieresis" format="1">
  <advance width="350"/>
  <unicode hex="00A8"/>
  <outline>
    <contour>
      <point x="175" y="517" type="move" name="_abvm"/>
    </contour>
    <contour>
      <point x="74" y="666" type="curve" smooth="yes"/>
      <point x="74" y="652"/>
      <point x="86" y="640"/>
      <point x="100" y="640" type="curve" smooth="yes"/>
      <point x="114" y="640"/>
      <point x="126" y="652"/>
      <point x="126" y="666" type="curve" smooth="yes"/>
      <point x="126" y="680"/>
      <point x="114" y="692"/>
      <point x="100" y="692" type="curve" smooth="yes"/>
      <point x="86" y="692"/>
      <point x="74" y="680"/>
    </contour>
    <contour>
      <point x="224" y="666" type="curve" smooth="yes"/>
      <point x="224" y="652"/>
      <point x="236" y="640"/>
      <point x="250" y="640" type="curve" smooth="yes"/>
      <point x="264" y="640"/>
      <point x="276" y="652"/>
      <point x="276" y="666" type="curve" smooth="yes"/>
      <point x="276" y="680"/>
      <point x="264" y="692"/>
      <point x="250" y="692" type="curve" smooth="yes"/>
      <point x="236" y="692"/>
      <point x="224" y="680"/>
    </contour>
  </outline>
</glyph>
<glyph name="logicalnot" format="1">
  <advance width="534"/>
  <unicode hex="00AC"/>
  <outline>
    <contour>
      <point x="440.0" y="160" type="line"/>
      <point x="440.0" y="360.0" type="line"/>
      <point x="40" y="360.0" type="line"/>
      <point x="40" y="340" type="line"/>
      <point x="420.0" y="340" type="line"/>
      <point x="420.0" y="160" type="line"/>
    </contour>
  </outline>
</glyph>
<glyph name="registered" format="1">
  <advance width="777"/>
  <unicode hex="00AE"/>
  <outline>
    <contour>
      <point x="50" y="348" type="curve" smooth="yes"/>
      <point x="50" y="163"/>
      <point x="197" y="9"/>
      <point x="387" y="9" type="curve" smooth="yes"/>
      <point x="578" y="9"/>
      <point x="727" y="165"/>
      <point x="727" y="350" type="curve" smooth="yes"/>
      <point x="727" y="536"/>
      <point x="579" y="689"/>
      <point x="389" y="689" type="curve" smooth="yes"/>
      <point x="198" y="689"/>
      <point x="50" y="533"/>
    </contour>
    <contour>
      <point x="707" y="350" type="curve" smooth="yes"/>
      <point x="707" y="175"/>
      <point x="568" y="29"/>
      <point x="387" y="29" type="curve" smooth="yes"/>
      <point x="207" y="29"/>
      <point x="70" y="173"/>
      <point x="70" y="348" type="curve" smooth="yes"/>
      <point x="70" y="523"/>
      <point x="208" y="669"/>
      <point x="389" y="669" type="curve" smooth="yes"/>
      <point x="569" y="669"/>
      <point x="707" y="526"/>
    </contour>
    <contour>
      <point x="517" y="421" type="curve" smooth="yes"/>
      <point x="517" y="353"/>
      <point x="471" y="314"/>
      <point x="392" y="314" type="curve" smooth="yes"/>
      <point x="281" y="314" type="line"/>
      <point x="281" y="523" type="line"/>
      <point x="392" y="523" type="line" smooth="yes"/>
      <point x="471" y="523"/>
      <point x="517" y="488"/>
    </contour>
    <contour>
      <point x="281" y="294" type="line"/>
      <point x="392.0" y="294" type="line" smooth="yes"/>
      <point x="402.727960537" y="294.0"/>
      <point x="412.910348796" y="294.625412123"/>
      <point x="422.53028" y="295.87093" type="curve"/>
      <point x="514" y="168" type="line"/>
      <point x="539" y="168" type="line"/>
      <point x="443.76632" y="299.78803" type="line"/>
      <point x="504.074706876" y="314.578853494"/>
      <point x="537.0" y="357.341977967"/>
      <point x="537.0" y="421.0" type="curve" smooth="yes"/>
      <point x="537" y="499"/>
      <point x="485" y="543"/>
      <point x="392" y="543" type="curve" smooth="yes"/>
      <point x="261" y="543" type="line"/>
      <point x="261" y="168" type="line"/>
      <point x="281" y="168" type="line"/>
    </contour>
  </outline>
</glyph>
<glyph name="mu" format="1">
  <advance width="660"/>
  <unicode hex="00B5"/>
  <outline>
    <contour>
      <point x="315.0" y="-4.26325641456e-14" type="curve"/>
      <point x="423.021680496" y="2.21962357184"/>
      <point x="498.198502321" y="56.4436067061"/>
      <point x="530" y="150.5594" type="curve"/>
      <point x="530" y="0" type="line"/>
      <point x="550" y="0" type="line"/>
      <point x="550" y="517" type="line"/>
      <point x="530" y="517" type="line"/>
      <point x="530" y="264" type="line"/>
      <point x="530" y="114"/>
      <point x="450" y="23"/>
      <point x="315" y="20" type="curve"/>
      <point x="210.000047304" y="20.0"/>
      <point x="144.717342869" y="78.7124539508"/>
      <point x="136" y="180.22001" type="curve"/>
      <point x="136" y="517" type="line"/>
      <point x="115.0" y="517" type="line"/>
      <point x="115.0" y="204.0" type="line"/>
      <point x="115.0" y="195.380393305"/>
      <point x="115.335572745" y="186.996594485"/>
      <point x="116.0" y="178.9269" type="curve"/>
      <point x="116.0" y="-194.0" type="line"/>
      <point x="136" y="-194.0" type="line"/>
      <point x="136" y="99.99825" type="line"/>
      <point x="166.316799573" y="35.9284322437"/>
      <point x="228.367094019" y="-2.13162820728e-14"/>
    </contour>
  </outline>
</glyph>
<glyph name="onesuperior" format="1">
  <advance width="241"/>
  <unicode hex="00B9"/>
  <outline>
    <contour>
      <point x="137" y="699" type="line"/>
      <point x="27" y="699" type="line"/>
      <point x="27" y="680" type="line"/>
      <point x="116" y="680" type="line"/>
      <point x="116" y="293" type="line"/>
      <point x="137" y="293" type="line"/>
    </contour>
  </outline>
</glyph>
<glyph name="questiondown" format="1">
  <advance width="395"/>
  <unicode hex="00BF"/>
  <outline>
    <contour>
      <point x="243" y="497" type="curve" smooth="yes"/>
      <point x="243" y="511"/>
      <point x="231" y="523"/>
      <point x="217" y="523" type="curve" smooth="yes"/>
      <point x="203" y="523"/>
      <point x="191" y="511"/>
      <point x="191" y="497" type="curve" smooth="yes"/>
      <point x="191" y="483"/>
      <point x="203" y="471"/>
      <point x="217" y="471" type="curve" smooth="yes"/>
      <point x="231" y="471"/>
      <point x="243" y="483"/>
    </contour>
    <contour>
      <point x="367" y="-18" type="line"/>
      <point x="361" y="-101"/>
      <point x="303" y="-143"/>
      <point x="214" y="-143" type="curve" smooth="yes"/>
      <point x="125" y="-143"/>
      <point x="60" y="-101"/>
      <point x="60" y="-13" type="curve" smooth="yes"/>
      <point x="60" y="151"/>
      <point x="224" y="136"/>
      <point x="224" y="310" type="curve"/>
      <point x="204" y="310" type="line"/>
      <point x="204" y="145"/>
      <point x="40" y="160"/>
      <point x="40" y="-12" type="curve" smooth="yes"/>
      <point x="40" y="-115"/>
      <point x="116" y="-163"/>
      <point x="213" y="-163" type="curve" smooth="yes"/>
      <point x="311" y="-163"/>
      <point x="380" y="-113"/>
      <point x="387" y="-20" type="curve"/>
    </contour>
  </outline>
</glyph>
<glyph name="Aring" format="1">
  <advance width="686"/>
  <unicode hex="00C5"/>
  <outline>
    <contour>
      <point x="436" y="787" type="curve" smooth="yes"/>
      <point x="436" y="739"/>
      <point x="393" y="699"/>
      <point x="343" y="699" type="curve" smooth="yes"/>
      <point x="293" y="699"/>
      <point x="251" y="739"/>
      <point x="251" y="787" type="curve" smooth="yes"/>
      <point x="251" y="835"/>
      <point x="293" y="876"/>
      <point x="343" y="876" type="curve" smooth="yes"/>
      <point x="393" y="876"/>
      <point x="436" y="835"/>
    </contour>
    <contour>
      <point x="341" y="676" type="line"/>
      <point x="545.46154" y="233.0" type="line"/>
      <point x="139.81509" y="233.0" type="line"/>
    </contour>
    <contour>
      <point x="653" y="0" type="line"/>
      <point x="676" y="0" type="line"/>
      <point x="360.61285" y="680.41857" type="line"/>
      <point x="413.681231218" y="688.864532373"/>
      <point x="456.0" y="734.67697628"/>
      <point x="456.0" y="787.0" type="curve" smooth="yes"/>
      <point x="456" y="845"/>
      <point x="404" y="896"/>
      <point x="343" y="896" type="curve" smooth="yes"/>
      <point x="282" y="896"/>
      <point x="231" y="845"/>
      <point x="231" y="787" type="curve" smooth="yes"/>
      <point x="231.0" y="735.876970279"/>
      <point x="270.623000167" y="690.969313133"/>
      <point x="321.79207" y="681.0708" type="curve"/>
      <point x="10" y="0" type="line"/>
      <point x="34" y="0" type="line"/>
      <point x="130.73225" y="213.0" type="line"/>
      <point x="554.69231" y="213.0" type="line"/>
    </contour>
  </outline>
</glyph>
<glyph name="AE" format="1">
  <advance width="987"/>
  <unicode hex="00C6"/>
  <outline>
    <contour>
      <point x="665" y="0" type="move" name="blwm"/>
    </contour>
    <contour>
      <point x="923" y="10" type="move" name="ogonek"/>
    </contour>
    <contour>
      <point x="598" y="699" type="move" name="abvm"/>
    </contour>
    <contour>
      <point x="442.0" y="679" type="line"/>
      <point x="471.0" y="679" type="line"/>
      <point x="471.0" y="243.0" type="line"/>
      <point x="180.01473" y="243.0" type="line"/>
    </contour>
    <contour>
      <point x="471.0" y="0" type="line"/>
      <point x="922.0" y="0" type="line"/>
      <point x="922.0" y="20" type="line"/>
      <point x="491.0" y="20" type="line"/>
      <point x="491.0" y="350.0" type="line"/>
      <point x="862.0" y="350.0" type="line"/>
      <point x="862.0" y="370.0" type="line"/>
      <point x="491.0" y="370.0" type="line"/>
      <point x="491.0" y="679" type="line"/>
      <point x="908.0" y="679" type="line"/>
      <point x="908.0" y="699.0" type="line"/>
      <point x="431.0" y="699.0" type="line"/>
      <point x="10" y="0" type="line"/>
      <point x="34" y="0" type="line"/>
      <point x="167.99705" y="223.0" type="line"/>
      <point x="471.0" y="223.0" type="line"/>
    </contour>
  </outline>
</glyph>
<glyph name="Eth" format="1">
  <advance width="811"/>
  <unicode hex="00D0"/>
  <outline>
    <contour>
      <point x="403.0" y="0" type="line" smooth="yes"/>
      <point x="600" y="0"/>
      <point x="761" y="157"/>
      <point x="761" y="349" type="curve" smooth="yes"/>
      <point x="761" y="542"/>
      <point x="600" y="699"/>
      <point x="403" y="699" type="curve" smooth="yes"/>
      <point x="128" y="699.0" type="line"/>
      <point x="128" y="362.0" type="line"/>
      <point x="0" y="362.0" type="line"/>
      <point x="0" y="342" type="line"/>
      <point x="128" y="342" type="line"/>
      <point x="128" y="0" type="line"/>
    </contour>
    <contour>
      <point x="148" y="20" type="line"/>
      <point x="148" y="342" type="line"/>
      <point x="410.0" y="342" type="line"/>
      <point x="410.0" y="362.0" type="line"/>
      <point x="148" y="362.0" type="line"/>
      <point x="148" y="679" type="line"/>
      <point x="403.0" y="679" type="line" smooth="yes"/>
      <point x="589" y="679"/>
      <point x="741" y="531"/>
      <point x="741" y="349" type="curve" smooth="yes"/>
      <point x="741" y="168"/>
      <point x="589" y="20"/>
      <point x="403" y="20" type="curve" smooth="yes"/>
    </contour>
  </outline>
</glyph>
<glyph name="multiply" format="1">
  <advance width="480"/>
  <unicode hex="00D7"/>
  <outline>
    <contour>
      <point x="374.0" y="172" type="line"/>
      <point x="388.0" y="186.0" type="line"/>
      <point x="254.0" y="320" type="line"/>
      <point x="388.0" y="454.0" type="line"/>
      <point x="374.0" y="468.0" type="line"/>
      <point x="240.0" y="334" type="line"/>
      <point x="106.0" y="468.0" type="line"/>
      <point x="92.0" y="454.0" type="line"/>
      <point x="226.0" y="320" type="line"/>
      <point x="92.0" y="186.0" type="line"/>
      <point x="106.0" y="172" type="line"/>
      <point x="240.0" y="306" type="line"/>
    </contour>
  </outline>
</glyph>
<glyph name="Oslash" format="1">
  <advance width="818"/>
  <unicode hex="00D8"/>
  <outline>
    <contour>
      <point x="409" y="699" type="move" name="abvm"/>
    </contour>
    <contour>
      <point x="70.0" y="350.0" type="curve" smooth="yes"/>
      <point x="70" y="531"/>
      <point x="223" y="679"/>
      <point x="409" y="679" type="curve" smooth="yes"/>
      <point x="437.234487316" y="679.0"/>
      <point x="464.708564554" y="675.589676016"/>
      <point x="491.00249" y="669.17119" type="curve"/>
      <point x="290.01102" y="41.23705" type="line"/>
      <point x="161.982918275" y="88.5550393492"/>
      <point x="70.0" y="209.658390966"/>
    </contour>
    <contour>
      <point x="409" y="20" type="curve" smooth="yes"/>
      <point x="374.242890359" y="20.0"/>
      <point x="340.638106713" y="25.2029264632"/>
      <point x="308.96867" y="34.85636" type="curve"/>
      <point x="510.29954" y="663.85086" type="line"/>
      <point x="647.458649208" y="621.765353306"/>
      <point x="748.0" y="496.725371346"/>
      <point x="748.0" y="350.0" type="curve" smooth="yes"/>
      <point x="748" y="169"/>
      <point x="595" y="20"/>
    </contour>
    <contour>
      <point x="409.0" y="-2.13162820728e-14" type="curve" smooth="yes"/>
      <point x="606" y="0"/>
      <point x="768" y="158"/>
      <point x="768" y="350" type="curve" smooth="yes"/>
      <point x="768.0" y="505.602619109"/>
      <point x="661.598840009" y="638.217333281"/>
      <point x="516.39715" y="682.90089" type="curve"/>
      <point x="559" y="816.0" type="line"/>
      <point x="538" y="816.0" type="line"/>
      <point x="497.11026" y="688.25296" type="line"/>
      <point x="468.880996168" y="695.272163143"/>
      <point x="439.3560213" y="699.0"/>
      <point x="409.0" y="699.0" type="curve" smooth="yes"/>
      <point x="212" y="699"/>
      <point x="50" y="542"/>
      <point x="50" y="350" type="curve" smooth="yes"/>
      <point x="50.0" y="200.788895199"/>
      <point x="147.839640704" y="72.1120359788"/>
      <point x="283.91107" y="22.17969" type="curve"/>
      <point x="232.0" y="-140" type="line"/>
      <point x="253.0" y="-140" type="line"/>
      <point x="302.87122" y="15.80681" type="line"/>
      <point x="336.465256017" y="5.53762225966"/>
      <point x="372.119283771" y="-1.86517468137e-14"/>
    </contour>
  </outline>
</glyph>
<glyph name="Thorn" format="1">
  <advance width="662"/>
  <unicode hex="00DE"/>
  <outline>
    <contour>
      <point x="335" y="567" type="line" smooth="yes"/>
      <point x="521" y="567"/>
      <point x="612" y="501"/>
      <point x="612" y="367" type="curve" smooth="yes"/>
      <point x="612" y="229"/>
      <point x="521" y="162"/>
      <point x="335" y="162" type="curve" smooth="yes"/>
      <point x="148" y="162" type="line"/>
      <point x="148" y="567" type="line"/>
    </contour>
    <contour>
      <point x="335" y="142" type="line" smooth="yes"/>
      <point x="534" y="142"/>
      <point x="632" y="216"/>
      <point x="632" y="367" type="curve" smooth="yes"/>
      <point x="632" y="515"/>
      <point x="534" y="587"/>
      <point x="335" y="587" type="curve" smooth="yes"/>
      <point x="148" y="587" type="line"/>
      <point x="148" y="699.0" type="line"/>
      <point x="128" y="699.0" type="line"/>
      <point x="128" y="0" type="line"/>
      <point x="148" y="0" type="line"/>
      <point x="148" y="142" type="line"/>
    </contour>
  </outline>
</glyph>
<glyph name="ae" format="1">
  <advance width="988"/>
  <unicode hex="00E6"/>
  <outline>
    <contour>
      <point x="494" y="517" type="move" name="abvm"/>
    </contour>
    <contour>
      <point x="700.0" y="497.0" type="curve" smooth="yes"/>
      <point x="827" y="497"/>
      <point x="911" y="408"/>
      <point x="920" y="279" type="curve"/>
      <point x="470.687" y="279" type="line"/>
      <point x="479.560627413" y="408.338682613"/>
      <point x="573.495581941" y="497.0"/>
    </contour>
    <contour>
      <point x="232.0" y="20.0" type="curve"/>
      <point x="142" y="20"/>
      <point x="83" y="73"/>
      <point x="83" y="149" type="curve"/>
      <point x="83" y="221"/>
      <point x="146" y="262"/>
      <point x="256" y="262" type="curve"/>
      <point x="449.93023" y="262" type="line"/>
      <point x="450.0" y="259" type="line" smooth="yes"/>
      <point x="450.0" y="232.432133342"/>
      <point x="453.312403607" y="207.195419536"/>
      <point x="459.55049" y="183.69234" type="curve"/>
      <point x="413.68884275" y="61.5432113589"/>
      <point x="335.76897602" y="20.0"/>
    </contour>
    <contour>
      <point x="897" y="81" type="curve"/>
      <point x="883.0" y="95.0" type="line"/>
      <point x="839" y="47"/>
      <point x="775" y="20"/>
      <point x="700" y="20" type="curve" smooth="yes"/>
      <point x="567" y="20"/>
      <point x="470" y="118"/>
      <point x="470" y="259" type="curve" smooth="yes"/>
      <point x="940.0" y="259" type="line"/>
      <point x="940" y="409"/>
      <point x="843" y="517"/>
      <point x="700" y="517" type="curve" smooth="yes"/>
      <point x="591.287984316" y="517.0"/>
      <point x="503.381821473" y="454.582441477"/>
      <point x="467.47636" y="358.70733" type="curve"/>
      <point x="461.035640931" y="455.899077992"/>
      <point x="396.640580081" y="517.0"/>
      <point x="283.0" y="517.0" type="curve"/>
      <point x="209" y="517"/>
      <point x="148" y="487"/>
      <point x="89" y="441" type="curve"/>
      <point x="101.0" y="425.0" type="line"/>
      <point x="158" y="469"/>
      <point x="213" y="497"/>
      <point x="283" y="497" type="curve"/>
      <point x="392" y="497"/>
      <point x="447" y="440"/>
      <point x="448" y="345" type="curve"/>
      <point x="449.46512" y="282" type="line"/>
      <point x="256" y="282" type="line"/>
      <point x="138" y="282"/>
      <point x="63" y="233"/>
      <point x="63" y="149" type="curve"/>
      <point x="63" y="63"/>
      <point x="132" y="0"/>
      <point x="232" y="0" type="curve"/>
      <point x="339.166417199" y="0.0"/>
      <point x="424.100131559" y="46.3986841858"/>
      <point x="468.74395" y="155.38242" type="curve"/>
      <point x="505.419509975" y="60.9810434997"/>
      <point x="592.546247738" y="-1.42108547152e-14"/>
      <point x="700.0" y="0.0" type="curve" smooth="yes"/>
      <point x="780" y="0"/>
      <point x="849" y="30"/>
    </contour>
  </outline>
</glyph>
<glyph name="eth" format="1">
  <advance width="566"/>
  <unicode hex="00F0"/>
  <outline>
    <contour>
      <point x="281" y="0" type="curve" smooth="yes"/>
      <point x="424" y="0"/>
      <point x="516" y="89"/>
      <point x="516" y="227" type="curve" smooth="yes"/>
      <point x="516.0" y="365.674900734"/>
      <point x="443.019120532" y="510.74228726"/>
      <point x="321.55213" y="626.81454" type="curve"/>
      <point x="427.0" y="657" type="line"/>
      <point x="422.0" y="677" type="line"/>
      <point x="304.26065" y="642.8466" type="line"/>
      <point x="263.519284957" y="679.508306507"/>
      <point x="217.82259639" y="712.956495943"/>
      <point x="168.0" y="742.0" type="curve"/>
      <point x="156" y="724.0" type="line"/>
      <point x="200.422933887" y="699.594807926"/>
      <point x="242.665235455" y="669.85082638"/>
      <point x="281.4485" y="636.22934" type="curve"/>
      <point x="160" y="601" type="line"/>
      <point x="165" y="582" type="line"/>
      <point x="299.14152" y="620.39929" type="line"/>
      <point x="393.074935529" y="533.717527359"/>
      <point x="464.293324534" y="424.358763679"/>
      <point x="493.0" y="315.0" type="curve"/>
      <point x="461" y="390"/>
      <point x="380" y="438"/>
      <point x="287" y="438" type="curve" smooth="yes"/>
      <point x="149" y="438"/>
      <point x="60" y="353"/>
      <point x="60" y="222" type="curve" smooth="yes"/>
      <point x="60" y="87"/>
      <point x="147" y="0"/>
    </contour>
    <contour>
      <point x="496" y="216" type="curve"/>
      <point x="496" y="97"/>
      <point x="414" y="20"/>
      <point x="286" y="20" type="curve" smooth="yes"/>
      <point x="161" y="20"/>
      <point x="80" y="100"/>
      <point x="80" y="224" type="curve" smooth="yes"/>
      <point x="80" y="342"/>
      <point x="161" y="418"/>
      <point x="287" y="418" type="curve" smooth="yes"/>
      <point x="414" y="418"/>
      <point x="496" y="339"/>
    </contour>
  </outline>
</glyph>
<glyph name="divide" format="1">
  <advance width="480"/>
  <unicode hex="00F7"/>
  <outline>
    <contour>
      <point x="40" y="330" type="line"/>
      <point x="40" y="310" type="line"/>
      <point x="440" y="310" type="line"/>
      <point x="440" y="330" type="line"/>
    </contour>
    <contour>
      <point x="219" y="495" type="curve" smooth="yes"/>
      <point x="219" y="481"/>
      <point x="231" y="469"/>
      <point x="245" y="469" type="curve" smooth="yes"/>
      <point x="259" y="469"/>
      <point x="271" y="481"/>
      <point x="271" y="495" type="curve" smooth="yes"/>
      <point x="271" y="509"/>
      <point x="259" y="521"/>
      <point x="245" y="521" type="curve" smooth="yes"/>
      <point x="231" y="521"/>
      <point x="219" y="509"/>
    </contour>
    <component base="dotaccent" xOffset="70" yOffset="-521"/>
  </outline>
</glyph>
<glyph name="oslash" format="1">
  <advance width="606"/>
  <unicode hex="00F8"/>
  <outline>
    <contour>
      <point x="303" y="517" type="move" name="abvm"/>
    </contour>
    <contour>
      <point x="72.0" y="259.0" type="curve" smooth="yes"/>
      <point x="72" y="399"/>
      <point x="169" y="497"/>
      <point x="303" y="497" type="curve" smooth="yes"/>
      <point x="325.021583646" y="497.0"/>
      <point x="346.043882628" y="494.353246027"/>
      <point x="365.80059" y="489.29291" type="curve"/>
      <point x="220.5234" y="33.6765" type="line"/>
      <point x="130.993766357" y="65.2310776052"/>
      <point x="72.0" y="149.039600899"/>
    </contour>
    <contour>
      <point x="303" y="20" type="curve" smooth="yes"/>
      <point x="280.77965795" y="20.0"/>
      <point x="259.57672029" y="22.6947467632"/>
      <point x="239.66477" y="27.84749" type="curve"/>
      <point x="384.95911" y="483.51767" type="line"/>
      <point x="474.77883756" y="452.139363573"/>
      <point x="534.0" y="368.390758191"/>
      <point x="534.0" y="259.0" type="curve" smooth="yes"/>
      <point x="534" y="118"/>
      <point x="437" y="20"/>
    </contour>
    <contour>
      <point x="303.0" y="3.90798504668e-14" type="curve" smooth="yes"/>
      <point x="447" y="0"/>
      <point x="554" y="108"/>
      <point x="554" y="259" type="curve" smooth="yes"/>
      <point x="554.0" y="376.385340763"/>
      <point x="488.471686659" y="468.049287504"/>
      <point x="390.963" y="502.347" type="curve"/>
      <point x="439.0" y="653" type="line"/>
      <point x="418.0" y="653" type="line"/>
      <point x="371.83928" y="508.23135" type="line"/>
      <point x="350.146990251" y="513.977131247"/>
      <point x="327.091301347" y="517.0"/>
      <point x="303.0" y="517.0" type="curve" smooth="yes"/>
      <point x="159" y="517"/>
      <point x="52" y="409"/>
      <point x="52" y="259" type="curve" smooth="yes"/>
      <point x="52.0" y="141.041336325"/>
      <point x="117.296450066" y="49.3233021156"/>
      <point x="214.51931" y="14.84655" type="curve"/>
      <point x="161" y="-153" type="line"/>
      <point x="182.0" y="-153" type="line"/>
      <point x="233.6283" y="8.916" type="line"/>
      <point x="255.475629123" y="3.07255938201"/>
      <point x="278.711496519" y="3.8635761257e-14"/>
    </contour>
  </outline>
</glyph>
<glyph name="thorn" format="1">
  <advance width="669"/>
  <unicode hex="00FE"/>
  <outline>
    <contour>
      <point x="125" y="0" type="move" name="blwm"/>
    </contour>
    <contour>
      <point x="125" y="742" type="move" name="abvm"/>
    </contour>
    <contour>
      <point x="223" y="517" type="move" name="topright"/>
    </contour>
    <contour>
      <point x="597" y="258" type="curve" smooth="yes"/>
      <point x="597" y="120"/>
      <point x="500" y="20"/>
      <point x="366" y="20" type="curve" smooth="yes"/>
      <point x="232" y="20"/>
      <point x="135" y="120"/>
      <point x="135" y="258" type="curve" smooth="yes"/>
      <point x="135" y="396"/>
      <point x="232" y="497"/>
      <point x="366" y="497" type="curve" smooth="yes"/>
      <point x="500" y="497"/>
      <point x="597" y="396"/>
    </contour>
    <contour>
      <point x="135" y="-194.0" type="line"/>
      <point x="135" y="151.92322" type="line"/>
      <point x="172.266228688" y="60.0294336729"/>
      <point x="258.393903733" y="7.1054273576e-15"/>
      <point x="366.0" y="0.0" type="curve" smooth="yes"/>
      <point x="511" y="0"/>
      <point x="617" y="109"/>
      <point x="617" y="258" type="curve" smooth="yes"/>
      <point x="617" y="408"/>
      <point x="511" y="517"/>
      <point x="366" y="517" type="curve" smooth="yes"/>
      <point x="258.393903733" y="517.0"/>
      <point x="172.266228688" y="456.970566327"/>
      <point x="135" y="364.66765" type="curve"/>
      <point x="135" y="742.0" type="line"/>
      <point x="115.0" y="742.0" type="line"/>
      <point x="115.0" y="-194.0" type="line"/>
    </contour>
  </outline>
</glyph>
<glyph name="gcommaaccent" format="1">
  <advance width="630"/>
  <unicode hex="0123"/>
  <outline>
    <contour>
      <point x="311" y="582" type="curve" smooth="yes"/>
      <point x="325" y="582"/>
      <point x="337" y="593"/>
      <point x="337" y="608" type="curve" smooth="yes"/>
      <point x="337.0" y="619.639878955"/>
      <point x="330.413836982" y="630.338877479"/>
      <point x="319.0668" y="633.66285" type="curve"/>
      <point x="346" y="681" type="line"/>
      <point x="326" y="681" type="line"/>
      <point x="295" y="634" type="line" smooth="yes"/>
      <point x="289" y="625"/>
      <point x="285" y="618"/>
      <point x="285" y="609" type="curve" smooth="yes"/>
      <point x="285" y="594"/>
      <point x="297" y="582"/>
    </contour>
    <contour>
      <point x="516" y="267" type="curve" smooth="yes"/>
      <point x="516" y="135"/>
      <point x="422" y="38"/>
      <point x="293" y="38" type="curve" smooth="yes"/>
      <point x="164" y="38"/>
      <point x="71" y="135"/>
      <point x="71" y="267" type="curve" smooth="yes"/>
      <point x="71" y="400"/>
      <point x="164" y="498"/>
      <point x="293" y="498" type="curve" smooth="yes"/>
      <point x="422" y="498"/>
      <point x="516" y="400"/>
    </contour>
    <contour>
      <point x="290" y="-193" type="curve" smooth="yes"/>
      <point x="439" y="-194"/>
      <point x="536" y="-95"/>
      <point x="536" y="59" type="curve"/>
      <point x="536" y="517" type="line"/>
      <point x="516" y="517" type="line"/>
      <point x="516" y="369.43001" type="line"/>
      <point x="480.25504758" y="458.900102102"/>
      <point x="397.140838648" y="517.0"/>
      <point x="293.0" y="517.0" type="curve" smooth="yes"/>
      <point x="154" y="517"/>
      <point x="52" y="412"/>
      <point x="52" y="267" type="curve" smooth="yes"/>
      <point x="52" y="124"/>
      <point x="154" y="19"/>
      <point x="293" y="19" type="curve" smooth="yes"/>
      <point x="397.140838648" y="19.0"/>
      <point x="480.25504758" y="77.0998978977"/>
      <point x="516" y="165.75668" type="curve"/>
      <point x="516" y="59.0" type="line"/>
      <point x="516" y="-83"/>
      <point x="427" y="-174"/>
      <point x="290" y="-173" type="curve" smooth="yes"/>
      <point x="212" y="-170"/>
      <point x="151" y="-144"/>
      <point x="96" y="-89" type="curve"/>
      <point x="82" y="-103.0" type="line"/>
      <point x="142" y="-162"/>
      <point x="207" y="-190"/>
    </contour>
  </outline>
</glyph>
<glyph name="Hbar" format="1">
  <advance width="819"/>
  <unicode hex="0126"/>
  <outline>
    <contour>
      <point x="158" y="363.0" type="line"/>
      <point x="158" y="528" type="line"/>
      <point x="661" y="528" type="line"/>
      <point x="661" y="363.0" type="line"/>
    </contour>
    <contour>
      <point x="158" y="343" type="line"/>
      <point x="661" y="343" type="line"/>
      <point x="661" y="0" type="line"/>
      <point x="681" y="0" type="line"/>
      <point x="681" y="528" type="line"/>
      <point x="761.0" y="528" type="line"/>
      <point x="761.0" y="548" type="line"/>
      <point x="681" y="548" type="line"/>
      <point x="681" y="699.0" type="line"/>
      <point x="661" y="699.0" type="line"/>
      <point x="661" y="548" type="line"/>
      <point x="158" y="548" type="line"/>
      <point x="158" y="699.0" type="line"/>
      <point x="138" y="699.0" type="line"/>
      <point x="138" y="548" type="line"/>
      <point x="58.0" y="548" type="line"/>
      <point x="58.0" y="528" type="line"/>
      <point x="138" y="528" type="line"/>
      <point x="138" y="0" type="line"/>
      <point x="158" y="0" type="line"/>
    </contour>
  </outline>
</glyph>
<glyph name="hbar" format="1">
  <advance width="642"/>
  <unicode hex="0127"/>
  <outline>
    <contour>
      <point x="135" y="253.0" type="line"/>
      <point x="135" y="403"/>
      <point x="216" y="494"/>
      <point x="354" y="497" type="curve"/>
      <point x="469" y="497"/>
      <point x="537" y="429"/>
      <point x="537" y="313" type="curve"/>
      <point x="537" y="0" type="line" smooth="yes"/>
      <point x="557" y="0" type="line"/>
      <point x="557" y="313" type="line"/>
      <point x="557" y="441"/>
      <point x="482" y="517"/>
      <point x="354" y="517" type="curve"/>
      <point x="244.4439753" y="514.794173999"/>
      <point x="167.866369385" y="461.228515466"/>
      <point x="135" y="368.18916" type="curve"/>
      <point x="135" y="615" type="line"/>
      <point x="315" y="615" type="line"/>
      <point x="315" y="635" type="line"/>
      <point x="135" y="635" type="line"/>
      <point x="135" y="742.0" type="line"/>
      <point x="115.0" y="742.0" type="line"/>
      <point x="115.0" y="635" type="line"/>
      <point x="25.0" y="635" type="line"/>
      <point x="25.0" y="615" type="line"/>
      <point x="115.0" y="615" type="line"/>
      <point x="115.0" y="0" type="line"/>
      <point x="135" y="0" type="line"/>
    </contour>
  </outline>
</glyph>
<glyph name="idotless" format="1">
  <advance width="240"/>
  <unicode hex="0131"/>
  <outline>
    <contour>
      <point x="189" y="10" type="move" name="ogonek"/>
    </contour>
    <contour>
      <point x="120" y="517" type="move" name="abvm"/>
    </contour>
    <contour>
      <point x="110" y="517" type="line"/>
      <point x="110" y="0" type="line"/>
      <point x="130" y="0" type="line"/>
      <point x="130" y="517" type="line"/>
    </contour>
  </outline>
</glyph>
<glyph name="kgreenlandic" format="1">
  <advance width="535"/>
  <unicode hex="0138"/>
  <outline>
    <contour>
      <point x="266" y="0" type="move" name="blwm"/>
    </contour>
    <contour>
      <point x="189" y="10" type="move" name="ogonek"/>
    </contour>
    <contour>
      <point x="120" y="517" type="move" name="abvm"/>
    </contour>
    <contour>
      <point x="495.0" y="0" type="line"/>
      <point x="519" y="0" type="line"/>
      <point x="291.79047" y="316.53977" type="line"/>
      <point x="489.0" y="517" type="line"/>
      <point x="461.0" y="517" type="line"/>
      <point x="130" y="183.04464" type="line"/>
      <point x="130" y="517" type="line"/>
      <point x="110.0" y="517" type="line"/>
      <point x="110.0" y="0" type="line"/>
      <point x="130" y="0" type="line"/>
      <point x="130" y="152.08242" type="line"/>
      <point x="277.57337" y="302.08832" type="line"/>
    </contour>
  </outline>
</glyph>
<glyph name="ldot" format="1">
  <advance width="236"/>
  <unicode hex="0140"/>
  <outline>
    <contour>
      <point x="115" y="742" type="line"/>
      <point x="115" y="0" type="line"/>
      <point x="135" y="0" type="line"/>
      <point x="135" y="742" type="line"/>
    </contour>
    <contour>
      <point x="204" y="305" type="curve" smooth="yes"/>
      <point x="204" y="291"/>
      <point x="216" y="279"/>
      <point x="230" y="279" type="curve" smooth="yes"/>
      <point x="244" y="279"/>
      <point x="256" y="291"/>
      <point x="256" y="305" type="curve" smooth="yes"/>
      <point x="256" y="319"/>
      <point x="244" y="331"/>
      <point x="230" y="331" type="curve" smooth="yes"/>
      <point x="216" y="331"/>
      <point x="204" y="319"/>
    </contour>
  </outline>
</glyph>
<glyph name="Lslash" format="1">
  <advance width="503"/>
  <unicode hex="0141"/>
  <outline>
    <contour>
      <point x="473.0" y="0" type="line"/>
      <point x="473.0" y="20" type="line"/>
      <point x="160" y="20" type="line"/>
      <point x="160" y="443.0" type="line"/>
      <point x="349.0" y="497.0" type="line"/>
      <point x="344" y="517" type="line"/>
      <point x="160" y="463.83117" type="line"/>
      <point x="160" y="699.0" type="line"/>
      <point x="140" y="699.0" type="line"/>
      <point x="140" y="458.05195" type="line"/>
      <point x="36" y="428.0" type="line"/>
      <point x="41" y="409.0" type="line"/>
      <point x="140" y="437.28571" type="line"/>
      <point x="140" y="0" type="line"/>
    </contour>
  </outline>
</glyph>
<glyph name="lslash" format="1">
  <advance width="316"/>
  <unicode hex="0142"/>
  <outline>
    <contour>
      <point x="175.0" y="0" type="line"/>
      <point x="175.0" y="462.07634" type="line"/>
      <point x="297" y="497.0" type="line"/>
      <point x="292" y="517" type="line"/>
      <point x="175.0" y="483.06107" type="line"/>
      <point x="175.0" y="742.0" type="line"/>
      <point x="155" y="742.0" type="line"/>
      <point x="155" y="477.25954" type="line"/>
      <point x="30.0" y="441.0" type="line"/>
      <point x="35" y="422.0" type="line"/>
      <point x="155" y="456.35115" type="line"/>
      <point x="155" y="0" type="line"/>
    </contour>
  </outline>
</glyph>
<glyph name="Eng" format="1">
  <advance width="799"/>
  <unicode hex="014A"/>
  <outline>
    <contour>
      <point x="400" y="0" type="move" name="blwm"/>
    </contour>
    <contour>
      <point x="400" y="699" type="move" name="abvm"/>
    </contour>
    <contour>
      <point x="499" y="-196" type="curve" smooth="yes"/>
      <point x="610" y="-196"/>
      <point x="671" y="-126"/>
      <point x="671" y="0" type="curve"/>
      <point x="671" y="699.0" type="line"/>
      <point x="651" y="699.0" type="line"/>
      <point x="651" y="20" type="line"/>
      <point x="158" y="699.0" type="line"/>
      <point x="128" y="699.0" type="line"/>
      <point x="128" y="0" type="line"/>
      <point x="148" y="0" type="line"/>
      <point x="148" y="679" type="line"/>
      <point x="641" y="0" type="line"/>
      <point x="650.97233" y="0" type="line"/>
      <point x="651" y="-114"/>
      <point x="597" y="-176"/>
      <point x="499" y="-176" type="curve" smooth="yes"/>
      <point x="436" y="-176"/>
      <point x="380" y="-144"/>
      <point x="339" y="-84" type="curve"/>
      <point x="325" y="-98.0" type="line"/>
      <point x="369" y="-161"/>
      <point x="431" y="-196"/>
    </contour>
  </outline>
</glyph>
<glyph name="eng" format="1">
  <advance width="644"/>
  <unicode hex="014B"/>
  <outline>
    <contour>
      <point x="325" y="0" type="move" name="blwm"/>
    </contour>
    <contour>
      <point x="332" y="517" type="move" name="abvm"/>
    </contour>
    <contour>
      <point x="435" y="-193" type="curve" smooth="yes"/>
      <point x="511" y="-194"/>
      <point x="551" y="-140"/>
      <point x="551" y="-32" type="curve" smooth="yes"/>
      <point x="551" y="313" type="line" smooth="yes"/>
      <point x="551" y="441"/>
      <point x="476" y="517"/>
      <point x="348" y="517" type="curve" smooth="yes"/>
      <point x="239.540516467" y="514.816252009"/>
      <point x="163.402596543" y="462.295642662"/>
      <point x="130" y="371.00761" type="curve"/>
      <point x="130" y="517" type="line"/>
      <point x="110.0" y="517" type="line"/>
      <point x="110.0" y="0" type="line"/>
      <point x="130" y="0" type="line"/>
      <point x="130" y="281.04133" type="line"/>
      <point x="139.661558423" y="414.348131185"/>
      <point x="218.880973016" y="494.193064631"/>
      <point x="348.0" y="497.0" type="curve" smooth="yes"/>
      <point x="463" y="497"/>
      <point x="531" y="429"/>
      <point x="531" y="313" type="curve" smooth="yes"/>
      <point x="531" y="-32" type="line" smooth="yes"/>
      <point x="531" y="-126"/>
      <point x="498" y="-174"/>
      <point x="435" y="-173" type="curve" smooth="yes"/>
      <point x="403" y="-172"/>
      <point x="371" y="-161"/>
      <point x="345" y="-140" type="curve"/>
      <point x="333" y="-156" type="line"/>
      <point x="363" y="-179"/>
      <point x="398" y="-192"/>
    </contour>
  </outline>
</glyph>
<glyph name="OE" format="1">
  <advance width="1089"/>
  <unicode hex="0152"/>
  <outline>
    <contour>
      <point x="767" y="0" type="move" name="blwm"/>
    </contour>
    <contour>
      <point x="1025" y="10" type="move" name="ogonek"/>
    </contour>
    <contour>
      <point x="545" y="699" type="move" name="abvm"/>
    </contour>
    <contour>
      <point x="409.0" y="19" type="line"/>
      <point x="222" y="19"/>
      <point x="69" y="168"/>
      <point x="69" y="350" type="curve" smooth="yes"/>
      <point x="69" y="532"/>
      <point x="222" y="680"/>
      <point x="409" y="680" type="curve"/>
      <point x="573" y="680" type="line"/>
      <point x="573" y="17.05917" type="line"/>
    </contour>
    <contour>
      <point x="409" y="0" type="curve"/>
      <point x="1024" y="0" type="line"/>
      <point x="1024" y="20" type="line"/>
      <point x="593" y="20" type="line"/>
      <point x="593" y="350.0" type="line"/>
      <point x="964.0" y="350.0" type="line"/>
      <point x="964.0" y="370.0" type="line"/>
      <point x="593" y="370.0" type="line"/>
      <point x="593" y="679" type="line"/>
      <point x="1010.0" y="679" type="line"/>
      <point x="1010.0" y="699.0" type="line"/>
      <point x="409.0" y="699.0" type="line"/>
      <point x="212" y="699"/>
      <point x="50" y="542"/>
      <point x="50" y="350" type="curve" smooth="yes"/>
      <point x="50" y="158"/>
      <point x="212" y="0"/>
    </contour>
  </outline>
</glyph>
<glyph name="oe" format="1">
  <advance width="1075"/>
  <unicode hex="0153"/>
  <outline>
    <contour>
      <point x="538" y="517" type="move" name="abvm"/>
    </contour>
    <contour>
      <point x="786.0" y="497.0" type="curve" smooth="yes"/>
      <point x="914" y="497"/>
      <point x="998" y="408"/>
      <point x="1007" y="279" type="curve"/>
      <point x="555.68717" y="279" type="line"/>
      <point x="564.563390353" y="408.339038928"/>
      <point x="658.544677015" y="497.0"/>
    </contour>
    <contour>
      <point x="534" y="259" type="curve" smooth="yes"/>
      <point x="534" y="118"/>
      <point x="437" y="20"/>
      <point x="303" y="20" type="curve" smooth="yes"/>
      <point x="169" y="20"/>
      <point x="72" y="118"/>
      <point x="72" y="259" type="curve" smooth="yes"/>
      <point x="72" y="399"/>
      <point x="169" y="497"/>
      <point x="303" y="497" type="curve" smooth="yes"/>
      <point x="437" y="497"/>
      <point x="534" y="399"/>
    </contour>
    <contour>
      <point x="984" y="81" type="curve"/>
      <point x="970.0" y="95.0" type="line"/>
      <point x="926" y="47"/>
      <point x="861" y="20"/>
      <point x="786" y="20" type="curve" smooth="yes"/>
      <point x="652" y="20"/>
      <point x="555" y="118"/>
      <point x="555" y="259" type="curve" smooth="yes"/>
      <point x="1027" y="259" type="line"/>
      <point x="1027" y="409"/>
      <point x="930" y="517"/>
      <point x="786" y="517" type="curve" smooth="yes"/>
      <point x="667.261612956" y="517.0"/>
      <point x="573.68023636" y="443.568726262"/>
      <point x="544.50084" y="333.65694" type="curve"/>
      <point x="515.32335574" y="443.565907585"/>
      <point x="421.740665923" y="517.0"/>
      <point x="303.0" y="517.0" type="curve" smooth="yes"/>
      <point x="159" y="517"/>
      <point x="52" y="409"/>
      <point x="52" y="259" type="curve" smooth="yes"/>
      <point x="52" y="108"/>
      <point x="159" y="0"/>
      <point x="303" y="0" type="curve" smooth="yes"/>
      <point x="421.740503139" y="0.0"/>
      <point x="515.323099152" y="73.4338910714"/>
      <point x="544.50072" y="183.90027" type="curve"/>
      <point x="573.679979791" y="73.4314750624"/>
      <point x="667.261450186" y="0.0"/>
      <point x="786.0" y="-1.42108547152e-14" type="curve" smooth="yes"/>
      <point x="866" y="0"/>
      <point x="936" y="30"/>
    </contour>
  </outline>
</glyph>
<glyph name="tbar" format="1">
  <advance width="362"/>
  <unicode hex="0167"/>
  <outline>
    <contour>
      <point x="221" y="0" type="move" name="blwm"/>
    </contour>
    <contour>
      <point x="181" y="259" type="move" name="center"/>
    </contour>
    <contour>
      <point x="236" y="0" type="curve"/>
      <point x="273" y="1"/>
      <point x="308" y="14"/>
      <point x="338" y="37" type="curve"/>
      <point x="326" y="53.0" type="line"/>
      <point x="300" y="32"/>
      <point x="268" y="21"/>
      <point x="236" y="20" type="curve"/>
      <point x="177" y="19"/>
      <point x="146" y="62"/>
      <point x="146" y="142" type="curve"/>
      <point x="146" y="297" type="line"/>
      <point x="328" y="297" type="line"/>
      <point x="328" y="317" type="line"/>
      <point x="146" y="317" type="line"/>
      <point x="146" y="487.0" type="line"/>
      <point x="328" y="487.0" type="line"/>
      <point x="328" y="507.0" type="line"/>
      <point x="146" y="507.0" type="line"/>
      <point x="146" y="630" type="line"/>
      <point x="126.0" y="630" type="line"/>
      <point x="126.0" y="507.0" type="line"/>
      <point x="50.0" y="507.0" type="line"/>
      <point x="50.0" y="487.0" type="line"/>
      <point x="126.0" y="487.0" type="line"/>
      <point x="126.0" y="317" type="line"/>
      <point x="50.0" y="317" type="line"/>
      <point x="50.0" y="297" type="line"/>
      <point x="126.0" y="297" type="line"/>
      <point x="126.0" y="142" type="line"/>
      <point x="126" y="48"/>
      <point x="164" y="-1"/>
    </contour>
  </outline>
</glyph>
<glyph name="Uogonek" format="1">
  <advance width="774"/>
  <unicode hex="0172"/>
  <outline>
    <contour>
      <point x="453" y="-199" type="curve" smooth="yes"/>
      <point x="480" y="-199"/>
      <point x="508" y="-181"/>
      <point x="527" y="-159" type="curve"/>
      <point x="513" y="-145" type="line"/>
      <point x="495" y="-165"/>
      <point x="475" y="-179"/>
      <point x="453" y="-179" type="curve" smooth="yes"/>
      <point x="428" y="-179"/>
      <point x="409" y="-162"/>
      <point x="409" y="-131" type="curve" smooth="yes"/>
      <point x="409.0" y="-97.1024547638"/>
      <point x="422.299115429" y="-59.6584787465"/>
      <point x="473.9422" y="9.71337" type="curve"/>
      <point x="595.843042385" y="39.2620750967"/>
      <point x="664.0" y="135.31300441"/>
      <point x="664.0" y="284.0" type="curve"/>
      <point x="664" y="699.0" type="line"/>
      <point x="644" y="699.0" type="line"/>
      <point x="644" y="284" type="line"/>
      <point x="644" y="116"/>
      <point x="550" y="20"/>
      <point x="387" y="20" type="curve"/>
      <point x="224" y="20"/>
      <point x="130" y="116"/>
      <point x="130" y="284" type="curve"/>
      <point x="130" y="699.0" type="line"/>
      <point x="110.0" y="699.0" type="line"/>
      <point x="110.0" y="284" type="line"/>
      <point x="110" y="103"/>
      <point x="211" y="0"/>
      <point x="387" y="0" type="curve"/>
      <point x="409.478741959" y="0.0"/>
      <point x="430.734051648" y="1.68018031788"/>
      <point x="450.71176" y="4.99391" type="curve"/>
      <point x="405.741359742" y="-57.2811811243"/>
      <point x="389.0" y="-96.2332605299"/>
      <point x="389.0" y="-131.0" type="curve" smooth="yes"/>
      <point x="389" y="-172"/>
      <point x="417" y="-199"/>
    </contour>
  </outline>
</glyph>
<glyph name="uogonek" format="1">
  <advance width="638"/>
  <unicode hex="0173"/>
  <outline>
    <contour>
      <point x="513" y="517" type="line"/>
      <point x="513" y="236" type="line"/>
      <point x="504" y="101"/>
      <point x="419" y="21"/>
      <point x="296" y="20" type="curve" smooth="yes"/>
      <point x="183" y="19"/>
      <point x="112" y="85"/>
      <point x="112" y="204" type="curve" smooth="yes"/>
      <point x="112" y="517" type="line"/>
      <point x="92" y="517" type="line"/>
      <point x="92" y="204" type="line" smooth="yes"/>
      <point x="92" y="76"/>
      <point x="164" y="1"/>
      <point x="294" y="1" type="curve" smooth="yes"/>
      <point x="407" y="1"/>
      <point x="480" y="57"/>
      <point x="513" y="146" type="curve"/>
      <point x="513" y="5" type="line"/>
      <point x="514" y="5" type="line"/>
      <point x="460" y="-65"/>
      <point x="446" y="-103"/>
      <point x="446" y="-133" type="curve" smooth="yes"/>
      <point x="446" y="-179"/>
      <point x="478" y="-199"/>
      <point x="509" y="-199" type="curve" smooth="yes"/>
      <point x="536" y="-199"/>
      <point x="563" y="-183"/>
      <point x="584" y="-159" type="curve"/>
      <point x="570" y="-145" type="line"/>
      <point x="551" y="-166"/>
      <point x="532" y="-179"/>
      <point x="509" y="-179" type="curve" smooth="yes"/>
      <point x="485" y="-179"/>
      <point x="466" y="-166"/>
      <point x="466" y="-131" type="curve" smooth="yes"/>
      <point x="466" y="-106"/>
      <point x="475" y="-67"/>
      <point x="532" y="0" type="curve"/>
      <point x="533" y="0" type="line"/>
      <point x="533" y="517" type="line"/>
    </contour>
  </outline>
</glyph>
<glyph name="commaaccentcomb" format="1">
  <advance width="170"/>
  <unicode hex="0326"/>
  <outline>
    <contour>
      <point x="83" y="0" type="move" name="_blwm"/>
    </contour>
    <contour>
      <point x="72" y="-164" type="line"/>
      <point x="103.0" y="-117.0" type="line" smooth="yes"/>
      <point x="109" y="-108"/>
      <point x="113" y="-101"/>
      <point x="113" y="-92" type="curve" smooth="yes"/>
      <point x="113" y="-77"/>
      <point x="101" y="-65"/>
      <point x="87" y="-65" type="curve" smooth="yes"/>
      <point x="73" y="-65"/>
      <point x="61" y="-76"/>
      <point x="61" y="-91" type="curve" smooth="yes"/>
      <point x="61.0" y="-102.639878955"/>
      <point x="67.5861630184" y="-113.338877479"/>
      <point x="78.9332" y="-116.66285" type="curve"/>
      <point x="52.0" y="-164" type="line"/>
    </contour>
  </outline>
</glyph>
<glyph name="Delta" format="1">
  <advance width="686"/>
  <unicode hex="0394"/>
  <outline>
    <contour>
      <point x="341" y="676" type="line"/>
      <point x="643.76923" y="20" type="line"/>
      <point x="43.08284" y="20" type="line"/>
    </contour>
    <contour>
      <point x="10" y="0" type="line"/>
      <point x="676" y="0" type="line"/>
      <point x="352.0" y="699.0" type="line"/>
      <point x="330" y="699.0" type="line"/>
    </contour>
  </outline>
</glyph>
<glyph name="uni0964" format="1">
  <advance width="202"/>
  <unicode hex="0964"/>
  <outline>
    <contour>
      <point x="170" y="0" type="line"/>
      <point x="170" y="680" type="line"/>
      <point x="150" y="680" type="line"/>
      <point x="150" y="0" type="line"/>
    </contour>
  </outline>
</glyph>
<glyph name="uni0A03" format="1">
  <advance width="399"/>
  <unicode hex="0A03"/>
  <outline>
    <contour>
      <point x="299" y="501" type="curve" smooth="yes"/>
      <point x="299" y="555"/>
      <point x="254" y="600"/>
      <point x="200" y="600" type="curve" smooth="yes"/>
      <point x="145" y="600"/>
      <point x="100" y="555"/>
      <point x="100" y="501" type="curve" smooth="yes"/>
      <point x="100" y="447"/>
      <point x="145" y="401"/>
      <point x="200" y="401" type="curve" smooth="yes"/>
      <point x="254" y="401"/>
      <point x="299" y="447"/>
    </contour>
    <contour>
      <point x="120" y="501" type="curve" smooth="yes"/>
      <point x="120" y="545"/>
      <point x="156" y="580"/>
      <point x="200" y="580" type="curve" smooth="yes"/>
      <point x="243" y="580"/>
      <point x="279" y="545"/>
      <point x="279" y="501" type="curve" smooth="yes"/>
      <point x="279" y="456"/>
      <point x="243" y="421"/>
      <point x="200" y="421" type="curve" smooth="yes"/>
      <point x="156" y="421"/>
      <point x="120" y="456"/>
    </contour>
    <contour>
      <point x="299" y="180" type="curve" smooth="yes"/>
      <point x="299" y="234"/>
      <point x="254" y="279"/>
      <point x="200" y="279" type="curve" smooth="yes"/>
      <point x="145" y="279"/>
      <point x="100" y="234"/>
      <point x="100" y="180" type="curve" smooth="yes"/>
      <point x="100" y="126"/>
      <point x="145" y="80"/>
      <point x="200" y="80" type="curve" smooth="yes"/>
      <point x="254" y="80"/>
      <point x="299" y="126"/>
    </contour>
    <contour>
      <point x="120" y="180" type="curve" smooth="yes"/>
      <point x="120" y="224"/>
      <point x="156" y="259"/>
      <point x="200" y="259" type="curve" smooth="yes"/>
      <point x="243" y="259"/>
      <point x="279" y="224"/>
      <point x="279" y="180" type="curve" smooth="yes"/>
      <point x="279" y="135"/>
      <point x="243" y="100"/>
      <point x="200" y="100" type="curve" smooth="yes"/>
      <point x="156" y="100"/>
      <point x="120" y="135"/>
    </contour>
  </outline>
</glyph>
<glyph name="uni0A05" format="1">
  <advance width="794"/>
  <unicode hex="0A05"/>
  <outline>
    <contour>
      <point x="673" y="680" type="move" name="abvm_bindu"/>
    </contour>
    <contour>
      <point x="673" y="690" type="move" name="abvm_candra"/>
    </contour>
    <contour>
      <point x="673" y="670" type="move" name="abvm"/>
    </contour>
    <contour>
      <point x="682" y="0" type="line"/>
      <point x="682" y="660" type="line"/>
      <point x="794.0" y="660" type="line"/>
      <point x="794.0" y="680" type="line"/>
      <point x="662" y="680" type="line"/>
      <point x="662" y="381.0" type="line"/>
      <point x="435.9835" y="381.0" type="line"/>
      <point x="436.0" y="385.0" type="line" smooth="yes"/>
      <point x="436" y="510"/>
      <point x="401" y="584"/>
      <point x="301" y="584" type="curve" smooth="yes"/>
      <point x="225.876190822" y="584.0"/>
      <point x="182.813978729" y="542.990980474"/>
      <point x="158.93665" y="485.43563" type="curve"/>
      <point x="154" y="624"/>
      <point x="91" y="680"/>
      <point x="10" y="680" type="curve" smooth="yes"/>
      <point x="0" y="680" type="line"/>
      <point x="0" y="660" type="line"/>
      <point x="12.0" y="660" type="line" smooth="yes"/>
      <point x="118.309179168" y="660.0"/>
      <point x="142.640061933" y="534.191723341"/>
      <point x="142.0302" y="451.92811" type="curve"/>
      <point x="116.844099398" y="376.700357547"/>
      <point x="95.1162770212" y="293.953477447"/>
      <point x="79.0" y="208.0" type="curve"/>
      <point x="98.0" y="203.0" type="line"/>
      <point x="138.027673351" y="307.961454565"/>
      <point x="155.901267814" y="370.988402663"/>
      <point x="158.65869" y="437.88785" type="curve"/>
      <point x="190.621419519" y="531.959166812"/>
      <point x="241.733447875" y="564.0"/>
      <point x="302.0" y="564.0" type="curve" smooth="yes"/>
      <point x="393.063221296" y="564.0"/>
      <point x="414.783075259" y="489.077281272"/>
      <point x="416.97071" y="378.11093" type="curve"/>
      <point x="403.657223117" y="323.562439411"/>
      <point x="389.172698969" y="264.406669586"/>
      <point x="379.0" y="211.0" type="curve" smooth="yes"/>
      <point x="373" y="181"/>
      <point x="364" y="124"/>
      <point x="361" y="104" type="curve"/>
      <point x="381.0" y="100.0" type="line"/>
      <point x="411.293747742" y="189.963250871"/>
      <point x="432.317685866" y="271.499402089"/>
      <point x="435.5622" y="361.0" type="curve"/>
      <point x="662" y="361.0" type="line"/>
      <point x="662" y="0" type="line"/>
    </contour>
  </outline>
</glyph>
<glyph name="uni0A06" format="1">
  <advance width="1018"/>
  <unicode hex="0A06"/>
  <outline>
    <contour>
      <point x="896" y="680" type="move" name="abvm_bindu"/>
    </contour>
    <contour>
      <point x="896" y="690" type="move" name="abvm_candra"/>
    </contour>
    <contour>
      <point x="896" y="670" type="move" name="abvm"/>
    </contour>
    <component base="uni0A05"/>
    <component base="uni0A3E" xOffset="794"/>
  </outline>
</glyph>
<glyph name="uni0A0A" format="1">
  <advance width="619"/>
  <unicode hex="0A0A"/>
  <outline>
    <contour>
      <point x="610" y="680" type="move" name="abvm_bindu"/>
    </contour>
    <contour>
      <point x="700" y="650" type="move" name="abvm_candra"/>
    </contour>
    <component base="uni0A73"/>
    <component base="uni0A42" xOffset="346"/>
  </outline>
</glyph>
<glyph name="uni0A10" format="1">
  <advance width="794"/>
  <unicode hex="0A10"/>
  <outline>
    <contour>
      <point x="673" y="670" type="move" name="_abvm"/>
    </contour>
    <contour>
      <point x="770" y="680" type="move" name="abvm_bindu"/>
    </contour>
    <contour>
      <point x="820" y="690" type="move" name="abvm_candra"/>
    </contour>
    <contour>
      <point x="770" y="670" type="move" name="abvm"/>
    </contour>
    <contour>
      <point x="682" y="0" type="line"/>
      <point x="682" y="660" type="line"/>
      <point x="794.0" y="660" type="line"/>
      <point x="794.0" y="680" type="line"/>
      <point x="682.82275" y="680" type="line"/>
      <point x="677.707139165" y="876.744414405"/>
      <point x="566.646798634" y="947.0"/>
      <point x="445.0" y="947.0" type="curve"/>
      <point x="444.0" y="927.0" type="line"/>
      <point x="543.930463788" y="927.0"/>
      <point x="633.587164621" y="878.199625961"/>
      <point x="659.10204" y="739.38001" type="curve"/>
      <point x="621.680236106" y="802.316170547"/>
      <point x="533.107782829" y="836.0"/>
      <point x="447.0" y="836.0" type="curve" smooth="yes"/>
      <point x="397" y="836"/>
      <point x="350" y="827"/>
      <point x="315" y="814" type="curve"/>
      <point x="320" y="796.0" type="line"/>
      <point x="354" y="808"/>
      <point x="399" y="816"/>
      <point x="447" y="816" type="curve" smooth="yes"/>
      <point x="544.952283087" y="816.0"/>
      <point x="653.048851774" y="768.967403128"/>
      <point x="662.35951" y="680" type="curve"/>
      <point x="662" y="680" type="line"/>
      <point x="662" y="381.0" type="line"/>
      <point x="435.9835" y="381.0" type="line"/>
      <point x="436.0" y="385.0" type="line" smooth="yes"/>
      <point x="436" y="510"/>
      <point x="401" y="584"/>
      <point x="301" y="584" type="curve" smooth="yes"/>
      <point x="225.876190822" y="584.0"/>
      <point x="182.813978729" y="542.990980474"/>
      <point x="158.93665" y="485.43563" type="curve"/>
      <point x="154" y="624"/>
      <point x="91" y="680"/>
      <point x="10" y="680" type="curve" smooth="yes"/>
      <point x="0" y="680" type="line"/>
      <point x="0" y="660" type="line"/>
      <point x="12.0" y="660" type="line" smooth="yes"/>
      <point x="118.309179168" y="660.0"/>
      <point x="142.640061933" y="534.191723341"/>
      <point x="142.0302" y="451.92811" type="curve"/>
      <point x="116.844099398" y="376.700357547"/>
      <point x="95.1162770212" y="293.953477447"/>
      <point x="79.0" y="208.0" type="curve"/>
      <point x="98.0" y="203.0" type="line"/>
      <point x="138.027673351" y="307.961454565"/>
      <point x="155.901267814" y="370.988402663"/>
      <point x="158.65869" y="437.88785" type="curve"/>
      <point x="190.621419519" y="531.959166812"/>
      <point x="241.733447875" y="564.0"/>
      <point x="302.0" y="564.0" type="curve" smooth="yes"/>
      <point x="393.063221296" y="564.0"/>
      <point x="414.783075259" y="489.077281272"/>
      <point x="416.97071" y="378.11093" type="curve"/>
      <point x="403.657223117" y="323.562439411"/>
      <point x="389.172698969" y="264.406669586"/>
      <point x="379.0" y="211.0" type="curve" smooth="yes"/>
      <point x="373" y="181"/>
      <point x="364" y="124"/>
      <point x="361" y="104" type="curve"/>
      <point x="381.0" y="100.0" type="line"/>
      <point x="411.293747742" y="189.963250871"/>
      <point x="432.317685866" y="271.499402089"/>
      <point x="435.5622" y="361.0" type="curve"/>
      <point x="662" y="361.0" type="line"/>
      <point x="662" y="0" type="line"/>
    </contour>
  </outline>
</glyph>
<glyph name="uni0A13" format="1">
  <advance width="619"/>
  <unicode hex="0A13"/>
  <outline>
    <contour>
      <point x="610" y="680" type="move" name="abvm_bindu"/>
    </contour>
    <contour>
      <point x="356" y="0" type="move" name="blwm"/>
    </contour>
    <contour>
      <point x="700" y="650" type="move" name="abvm_candra"/>
    </contour>
    <contour>
      <point x="346" y="30" type="move" name="blwm_caret_1"/>
    </contour>
    <contour>
      <point x="92" y="0" type="move" name="blwm_nukta"/>
    </contour>
    <contour>
      <point x="538" y="670" type="move" name="abvm"/>
    </contour>
    <contour>
      <point x="82.0" y="550.0" type="curve" smooth="yes"/>
      <point x="82.0" y="590.325455899"/>
      <point x="84.3867651807" y="626.995233484"/>
      <point x="89.13929" y="660" type="curve"/>
      <point x="527.89922" y="660" type="line"/>
      <point x="524.644545387" y="523.752598026"/>
      <point x="442.499701779" y="398.0"/>
      <point x="273.0" y="398.0" type="curve" smooth="yes"/>
      <point x="90.85042" y="398.0" type="line"/>
      <point x="84.7382609152" y="446.921561132"/>
      <point x="81.810723911" y="498.138351625"/>
    </contour>
    <contour>
      <point x="536" y="193" type="curve" smooth="yes"/>
      <point x="536.0" y="292.347052385"/>
      <point x="476.767440224" y="378.155233964"/>
      <point x="338.84273" y="388.9169" type="curve"/>
      <point x="451.263138317" y="404.364054009"/>
      <point x="544.054113357" y="512.471213346"/>
      <point x="547.87745" y="660" type="curve"/>
      <point x="619" y="660" type="line"/>
      <point x="619" y="680" type="line"/>
      <point x="92.37935" y="680" type="line"/>
      <point x="118.419879086" y="823.662294668"/>
      <point x="193.285039093" y="893.0"/>
      <point x="315.0" y="893.0" type="curve" smooth="yes"/>
      <point x="353" y="893"/>
      <point x="420" y="886"/>
      <point x="475" y="874" type="curve"/>
      <point x="480.0" y="893.0" type="line"/>
      <point x="425" y="905"/>
      <point x="353" y="913"/>
      <point x="316" y="913" type="curve" smooth="yes"/>
      <point x="185.488766893" y="913.0"/>
      <point x="100.409736868" y="839.010412122"/>
      <point x="72.26618" y="680" type="curve"/>
      <point x="0" y="680" type="line"/>
      <point x="0" y="660" type="line"/>
      <point x="69.09144" y="660" type="line"/>
      <point x="64.3946076979" y="626.830019298"/>
      <point x="62.0" y="590.171922906"/>
      <point x="62.0" y="550.0" type="curve" smooth="yes"/>
      <point x="62" y="245"/>
      <point x="158" y="0"/>
      <point x="353" y="0" type="curve" smooth="yes"/>
      <point x="463" y="0"/>
      <point x="536" y="83"/>
    </contour>
    <contour>
      <point x="350" y="20" type="curve" smooth="yes"/>
      <point x="206.384388441" y="20.0"/>
      <point x="122.509827875" y="177.667103651"/>
      <point x="93.54293" y="378.0" type="curve"/>
      <point x="273" y="378.0" type="line" smooth="yes"/>
      <point x="466" y="378"/>
      <point x="516" y="284"/>
      <point x="516" y="193" type="curve" smooth="yes"/>
      <point x="516" y="81"/>
      <point x="439" y="20"/>
    </contour>
  </outline>
</glyph>
<glyph name="uni0A14" format="1">
  <advance width="794"/>
  <unicode hex="0A14"/>
  <outline>
    <contour>
      <point x="673" y="680" type="move" name="abvm_bindu"/>
    </contour>
    <contour>
      <point x="673" y="690" type="move" name="abvm_candra"/>
    </contour>
    <contour>
      <point x="673" y="670" type="move" name="abvm"/>
    </contour>
    <component base="uni0A05"/>
    <component base="uni0A4C" xOffset="673"/>
  </outline>
</glyph>
<glyph name="uni0A15" format="1">
  <advance width="629"/>
  <unicode hex="0A15"/>
  <outline>
    <contour>
      <point x="507" y="680" type="move" name="abvm_bindu"/>
    </contour>
    <contour>
      <point x="531" y="0" type="move" name="blwm"/>
    </contour>
    <contour>
      <point x="507" y="690" type="move" name="abvm_candra"/>
    </contour>
    <contour>
      <point x="257" y="30" type="move" name="blwm_caret_1"/>
    </contour>
    <contour>
      <point x="94" y="0" type="move" name="blwm_nukta"/>
    </contour>
    <contour>
      <point x="507" y="670" type="move" name="abvm"/>
    </contour>
    <contour>
      <point x="541" y="0" type="line"/>
      <point x="541" y="37" type="line" smooth="yes"/>
      <point x="541.0" y="157.130186669"/>
      <point x="516.597502245" y="252.857875584"/>
      <point x="478.70371" y="325.08548" type="curve"/>
      <point x="503.368223121" y="394.449213807"/>
      <point x="517.0" y="481.136755651"/>
      <point x="517.0" y="586.0" type="curve" smooth="yes"/>
      <point x="517" y="660" type="line"/>
      <point x="629" y="660" type="line"/>
      <point x="629" y="680" type="line"/>
      <point x="0" y="680" type="line"/>
      <point x="0" y="660" type="line"/>
      <point x="497.0" y="660" type="line"/>
      <point x="497.0" y="588" type="line" smooth="yes"/>
      <point x="497" y="493"/>
      <point x="486" y="413"/>
      <point x="465" y="348" type="curve"/>
      <point x="407" y="441"/>
      <point x="322" y="488"/>
      <point x="232" y="488" type="curve" smooth="yes"/>
      <point x="125" y="488"/>
      <point x="41" y="421"/>
      <point x="41" y="303" type="curve" smooth="yes"/>
      <point x="41" y="182"/>
      <point x="135" y="116"/>
      <point x="235" y="116" type="curve" smooth="yes"/>
      <point x="331.398097074" y="116.0"/>
      <point x="417.574341716" y="176.401855276"/>
      <point x="469.34245" y="299.92086" type="curve"/>
      <point x="500.861463954" y="232.175505474"/>
      <point x="521.0" y="145.15702076"/>
      <point x="521.0" y="38.0" type="curve" smooth="yes"/>
      <point x="521" y="0" type="line"/>
    </contour>
    <contour>
      <point x="235" y="136" type="curve" smooth="yes"/>
      <point x="139" y="136"/>
      <point x="61" y="200"/>
      <point x="61" y="302" type="curve" smooth="yes"/>
      <point x="61" y="406"/>
      <point x="133" y="468"/>
      <point x="232" y="468" type="curve" smooth="yes"/>
      <point x="318.949606828" y="468.0"/>
      <point x="401.994134045" y="419.186504858"/>
      <point x="457.01816" y="323.48695" type="curve"/>
      <point x="414" y="201"/>
      <point x="331" y="136"/>
    </contour>
  </outline>
</glyph>
<glyph name="uni0A17" format="1">
  <advance width="734"/>
  <unicode hex="0A17"/>
  <outline>
    <contour>
      <point x="612" y="680" type="move" name="abvm_bindu"/>
    </contour>
    <contour>
      <point x="612" y="0" type="move" name="blwm"/>
    </contour>
    <contour>
      <point x="612" y="690" type="move" name="abvm_candra"/>
    </contour>
    <contour>
      <point x="418" y="30" type="move" name="blwm_caret_1"/>
    </contour>
    <contour>
      <point x="74" y="6" type="move" name="blwm_nukta"/>
    </contour>
    <contour>
      <point x="612" y="670" type="move" name="abvm"/>
    </contour>
    <contour>
      <point x="622" y="0" type="line"/>
      <point x="622" y="660" type="line"/>
      <point x="734.0" y="660" type="line"/>
      <point x="734.0" y="680" type="line"/>
      <point x="0" y="680" type="line"/>
      <point x="0" y="660" type="line"/>
      <point x="414.96983" y="660" type="line"/>
      <point x="414.02155" y="440.0" type="line"/>
      <point x="188.0" y="440.0" type="line" smooth="yes"/>
      <point x="104" y="440"/>
      <point x="52" y="383"/>
      <point x="52" y="286" type="curve" smooth="yes"/>
      <point x="52" y="114"/>
      <point x="222" y="0"/>
      <point x="343" y="0" type="curve" smooth="yes"/>
      <point x="397" y="0"/>
      <point x="433" y="24"/>
      <point x="433" y="102" type="curve" smooth="yes"/>
      <point x="434.97522" y="660" type="line"/>
      <point x="602" y="660" type="line"/>
      <point x="602" y="0" type="line"/>
    </contour>
    <contour>
      <point x="340" y="20" type="curve" smooth="yes"/>
      <point x="216" y="20"/>
      <point x="72" y="141"/>
      <point x="72" y="283" type="curve" smooth="yes"/>
      <point x="72" y="359"/>
      <point x="111" y="420"/>
      <point x="192" y="420" type="curve" smooth="yes"/>
      <point x="413.98418" y="420.0" type="line"/>
      <point x="413.0" y="109.0" type="line" smooth="yes"/>
      <point x="413" y="54"/>
      <point x="403" y="20"/>
    </contour>
  </outline>
</glyph>
<glyph name="uni0A19" format="1">
  <advance width="640"/>
  <unicode hex="0A19"/>
  <outline>
    <contour>
      <point x="439" y="680" type="move" name="abvm_bindu"/>
    </contour>
    <contour>
      <point x="285" y="0" type="move" name="blwm"/>
    </contour>
    <contour>
      <point x="439" y="690" type="move" name="abvm_candra"/>
    </contour>
    <contour>
      <point x="307" y="30" type="move" name="blwm_caret_1"/>
    </contour>
    <contour>
      <point x="72" y="0" type="move" name="blwm_nukta"/>
    </contour>
    <contour>
      <point x="439" y="670" type="move" name="abvm"/>
    </contour>
    <contour>
      <point x="285" y="0" type="curve" smooth="yes"/>
      <point x="454" y="0"/>
      <point x="555" y="93"/>
      <point x="555" y="229" type="curve" smooth="yes"/>
      <point x="555" y="335"/>
      <point x="494" y="444"/>
      <point x="326" y="444" type="curve" smooth="yes"/>
      <point x="132" y="444.0" type="line"/>
      <point x="132" y="660" type="line"/>
      <point x="640" y="660" type="line"/>
      <point x="640" y="680" type="line"/>
      <point x="0" y="680" type="line"/>
      <point x="0" y="660" type="line"/>
      <point x="112.0" y="660" type="line"/>
      <point x="112.0" y="424.0" type="line"/>
      <point x="314" y="424.0" type="line" smooth="yes"/>
      <point x="483" y="424"/>
      <point x="535" y="324"/>
      <point x="535" y="232" type="curve" smooth="yes"/>
      <point x="535.0" y="199.69070579"/>
      <point x="528.62334886" y="168.525938709"/>
      <point x="515.5428" y="140.51216" type="curve"/>
      <point x="458" y="200"/>
      <point x="370" y="237"/>
      <point x="271" y="237" type="curve" smooth="yes"/>
      <point x="159" y="237"/>
      <point x="94" y="190"/>
      <point x="94" y="121" type="curve" smooth="yes"/>
      <point x="94" y="51"/>
      <point x="161" y="0"/>
    </contour>
    <contour>
      <point x="287.0" y="20.0" type="curve" smooth="yes"/>
      <point x="177" y="20"/>
      <point x="114" y="61"/>
      <point x="114" y="122" type="curve" smooth="yes"/>
      <point x="114" y="180"/>
      <point x="173" y="217"/>
      <point x="271" y="217" type="curve" smooth="yes"/>
      <point x="364.747658293" y="217.0"/>
      <point x="448.005423163" y="182.669439705"/>
      <point x="505.87325" y="122.38649" type="curve"/>
      <point x="469.310839056" y="61.9332017373"/>
      <point x="397.639533467" y="20.0"/>
    </contour>
  </outline>
</glyph>
<glyph name="uni0A1A" format="1">
  <advance width="655"/>
  <unicode hex="0A1A"/>
  <outline>
    <contour>
      <point x="533" y="680" type="move" name="abvm_bindu"/>
    </contour>
    <contour>
      <point x="451" y="2" type="move" name="blwm"/>
    </contour>
    <contour>
      <point x="533" y="690" type="move" name="abvm_candra"/>
    </contour>
    <contour>
      <point x="383" y="30" type="move" name="blwm_caret_1"/>
    </contour>
    <contour>
      <point x="162" y="0" type="move" name="blwm_nukta"/>
    </contour>
    <contour>
      <point x="533" y="670" type="move" name="abvm"/>
    </contour>
    <contour>
      <point x="451.0" y="0.0" type="curve" smooth="yes"/>
      <point x="506" y="0"/>
      <point x="543" y="24"/>
      <point x="543" y="102" type="curve"/>
      <point x="543" y="660" type="line"/>
      <point x="655" y="660" type="line"/>
      <point x="655" y="680" type="line"/>
      <point x="0" y="680" type="line"/>
      <point x="0" y="660" type="line"/>
      <point x="523" y="660" type="line"/>
      <point x="523" y="381.0" type="line"/>
      <point x="146.44312" y="381.0" type="line"/>
      <point x="119.095905088" y="399.38783206"/>
      <point x="101.828570606" y="401.453887936"/>
      <point x="30.0" y="406.0" type="curve"/>
      <point x="25.0" y="387.0" type="line"/>
      <point x="50.8223312406" y="375.082000966"/>
      <point x="83.5493215566" y="361.191242196"/>
      <point x="125.14025" y="361.01215" type="curve"/>
      <point x="130.952087259" y="143.365821761"/>
      <point x="316.161931236" y="0.0"/>
    </contour>
    <contour>
      <point x="448" y="20" type="curve" smooth="yes"/>
      <point x="309.015000681" y="20.0"/>
      <point x="149.625925573" y="175.459625056"/>
      <point x="145.09872" y="361.0" type="curve"/>
      <point x="523" y="361.0" type="line"/>
      <point x="523" y="109.0" type="line"/>
      <point x="523" y="53"/>
      <point x="512" y="20"/>
    </contour>
  </outline>
</glyph>
<glyph name="uni0A1B" format="1">
  <advance width="621"/>
  <unicode hex="0A1B"/>
  <outline>
    <contour>
      <point x="499" y="680" type="move" name="abvm_bindu"/>
    </contour>
    <contour>
      <point x="305" y="2" type="move" name="blwm"/>
    </contour>
    <contour>
      <point x="499" y="690" type="move" name="abvm_candra"/>
    </contour>
    <contour>
      <point x="304" y="30" type="move" name="blwm_caret_1"/>
    </contour>
    <contour>
      <point x="72" y="0" type="move" name="blwm_nukta"/>
    </contour>
    <contour>
      <point x="499" y="670" type="move" name="abvm"/>
    </contour>
    <contour>
      <point x="564" y="133" type="curve" smooth="yes"/>
      <point x="564" y="214"/>
      <point x="481" y="270"/>
      <point x="295" y="270" type="curve" smooth="yes"/>
      <point x="275" y="270"/>
      <point x="256" y="269"/>
      <point x="239" y="268" type="curve" smooth="yes"/>
      <point x="172" y="266"/>
      <point x="100" y="298"/>
      <point x="100" y="370" type="curve" smooth="yes"/>
      <point x="100" y="414"/>
      <point x="130" y="467"/>
      <point x="241" y="467" type="curve" smooth="yes"/>
      <point x="509.0" y="467.0" type="line"/>
      <point x="509.0" y="660" type="line"/>
      <point x="621" y="660" type="line"/>
      <point x="621" y="680" type="line"/>
      <point x="0" y="680" type="line"/>
      <point x="0" y="660" type="line"/>
      <point x="489.0" y="660" type="line"/>
      <point x="489.0" y="487.0" type="line"/>
      <point x="229.0" y="487.0" type="line" smooth="yes"/>
      <point x="123" y="487"/>
      <point x="80" y="426"/>
      <point x="80" y="370" type="curve" smooth="yes"/>
      <point x="80" y="316"/>
      <point x="113" y="276"/>
      <point x="172" y="259" type="curve"/>
      <point x="86" y="239"/>
      <point x="52" y="197"/>
      <point x="52" y="139" type="curve" smooth="yes"/>
      <point x="52" y="57"/>
      <point x="121" y="0"/>
      <point x="308" y="0" type="curve" smooth="yes"/>
      <point x="496" y="0"/>
      <point x="564" y="59"/>
    </contour>
    <contour>
      <point x="72.0" y="138.0" type="curve" smooth="yes"/>
      <point x="72.0" y="204.594807455"/>
      <point x="130.28853518" y="249.454906878"/>
      <point x="294" y="249.98831" type="curve"/>
      <point x="294" y="20.10443" type="line"/>
      <point x="129.016819075" y="22.4800014554"/>
      <point x="72.0" y="70.7371975485"/>
    </contour>
    <contour>
      <point x="544.0" y="132.0" type="curve" smooth="yes"/>
      <point x="544.0" y="71.8158265648"/>
      <point x="484.620742097" y="21.3659577038"/>
      <point x="314" y="20.03652" type="curve"/>
      <point x="314" y="249.83008" type="line"/>
      <point x="473.046450692" y="246.667676223"/>
      <point x="544.0" y="198.669831442"/>
    </contour>
  </outline>
</glyph>
<glyph name="uni0A1C" format="1">
  <advance width="617"/>
  <unicode hex="0A1C"/>
  <outline>
    <contour>
      <point x="495" y="680" type="move" name="abvm_bindu"/>
    </contour>
    <contour>
      <point x="495" y="0" type="move" name="blwm"/>
    </contour>
    <contour>
      <point x="495" y="690" type="move" name="abvm_candra"/>
    </contour>
    <contour>
      <point x="309" y="30" type="move" name="blwm_caret_1"/>
    </contour>
    <contour>
      <point x="309" y="21" type="move" name="blwm_nukta"/>
    </contour>
    <contour>
      <point x="495" y="670" type="move" name="abvm"/>
    </contour>
    <contour>
      <point x="505.0" y="0" type="line"/>
      <point x="505.0" y="660" type="line"/>
      <point x="617" y="660" type="line"/>
      <point x="617" y="680" type="line"/>
      <point x="0" y="680" type="line"/>
      <point x="0" y="660" type="line"/>
      <point x="485.0" y="660" type="line"/>
      <point x="485.0" y="353.0" type="line"/>
      <point x="128" y="353.0" type="line"/>
      <point x="109" y="374"/>
      <point x="93" y="379"/>
      <point x="34" y="394" type="curve"/>
      <point x="25.0" y="376.0" type="line"/>
      <point x="46" y="359"/>
      <point x="78" y="340"/>
      <point x="118" y="334" type="curve"/>
      <point x="132" y="298"/>
      <point x="138" y="260"/>
      <point x="138" y="217" type="curve" smooth="yes"/>
      <point x="138" y="145"/>
      <point x="123" y="69"/>
      <point x="104" y="7" type="curve"/>
      <point x="103.0" y="4" type="line"/>
      <point x="122.0" y="0" type="line"/>
      <point x="142" y="65"/>
      <point x="158" y="144"/>
      <point x="158" y="217" type="curve" smooth="yes"/>
      <point x="158" y="259"/>
      <point x="153" y="296"/>
      <point x="140" y="333" type="curve"/>
      <point x="485.0" y="333" type="line"/>
      <point x="485.0" y="0" type="line"/>
    </contour>
  </outline>
</glyph>
<glyph name="uni0A1D" format="1">
  <advance width="612"/>
  <unicode hex="0A1D"/>
  <outline>
    <contour>
      <point x="540" y="680" type="move" name="abvm_bindu"/>
    </contour>
    <contour>
      <point x="179" y="-37" type="move" name="blwm"/>
    </contour>
    <contour>
      <point x="540" y="690" type="move" name="abvm_candra"/>
    </contour>
    <contour>
      <point x="309" y="0" type="move" name="blwm_caret_1"/>
    </contour>
    <contour>
      <point x="112" y="0" type="move" name="blwm_nukta"/>
    </contour>
    <contour>
      <point x="540" y="670" type="move" name="abvm"/>
    </contour>
    <contour>
      <point x="312.0" y="428.0" type="curve" smooth="yes"/>
      <point x="204.771681457" y="428.0"/>
      <point x="98.4936035996" y="485.964681831"/>
      <point x="94.13218" y="660" type="curve"/>
      <point x="530.00484" y="660" type="line"/>
      <point x="527.228955305" y="487.766742439"/>
      <point x="419.140138427" y="428.0"/>
    </contour>
    <contour>
      <point x="280.0" y="80.0" type="curve" smooth="yes"/>
      <point x="460" y="80"/>
      <point x="550" y="148"/>
      <point x="550" y="252" type="curve" smooth="yes"/>
      <point x="550.0" y="316.435849006"/>
      <point x="509.95390975" y="392.885525087"/>
      <point x="386.13822" y="418.98689" type="curve"/>
      <point x="473.508507508" y="444.320503223"/>
      <point x="545.626515896" y="515.64918912"/>
      <point x="549.80844" y="660" type="curve"/>
      <point x="612" y="660" type="line"/>
      <point x="612" y="680" type="line"/>
      <point x="0" y="680" type="line"/>
      <point x="0" y="660" type="line"/>
      <point x="74.1911" y="660" type="line"/>
      <point x="77.9757942887" y="529.180035479"/>
      <point x="137.530462106" y="457.994303522"/>
      <point x="213.0" y="428.0" type="curve"/>
      <point x="92.0" y="428.0" type="line"/>
      <point x="92.0" y="408.0" type="line"/>
      <point x="288" y="408.0" type="line" smooth="yes"/>
      <point x="483" y="408"/>
      <point x="530" y="320"/>
      <point x="530" y="254" type="curve" smooth="yes"/>
      <point x="530" y="164"/>
      <point x="457" y="100"/>
      <point x="282" y="100" type="curve" smooth="yes"/>
      <point x="246.041124617" y="100.0"/>
      <point x="210.693327079" y="104.277544911"/>
      <point x="178.34505" y="111.40635" type="curve"/>
      <point x="155.444260653" y="127.144139378"/>
      <point x="134.816456813" y="136.694763741"/>
      <point x="115.0" y="143.0" type="curve" smooth="yes"/>
      <point x="100" y="148"/>
      <point x="83" y="151"/>
      <point x="57" y="153" type="curve"/>
      <point x="52.0" y="134" type="line"/>
      <point x="85" y="113"/>
      <point x="126" y="100"/>
      <point x="169" y="91" type="curve"/>
      <point x="169" y="-37" type="line"/>
      <point x="189.0" y="-37" type="line"/>
      <point x="189.0" y="87.25539" type="line"/>
      <point x="221.110245557" y="82.4182883095"/>
      <point x="252.167314985" y="80.0"/>
    </contour>
  </outline>
</glyph>
<glyph name="uni0A1F" format="1">
  <advance width="570"/>
  <unicode hex="0A1F"/>
  <outline>
    <contour>
      <point x="448" y="680" type="move" name="abvm_bindu"/>
    </contour>
    <contour>
      <point x="358" y="2" type="move" name="blwm"/>
    </contour>
    <contour>
      <point x="448" y="690" type="move" name="abvm_candra"/>
    </contour>
    <contour>
      <point x="346" y="30" type="move" name="blwm_caret_1"/>
    </contour>
    <contour>
      <point x="102" y="0" type="move" name="blwm_nukta"/>
    </contour>
    <contour>
      <point x="448" y="670" type="move" name="abvm"/>
    </contour>
    <contour>
      <point x="517" y="31" type="curve"/>
      <point x="509.0" y="51.0" type="line"/>
      <point x="469" y="31"/>
      <point x="412" y="20"/>
      <point x="361" y="20" type="curve" smooth="yes"/>
      <point x="164.600606253" y="20.0"/>
      <point x="81.6988105882" y="180.28286752"/>
      <point x="71.97252" y="228.30921" type="curve"/>
      <point x="89.6934120863" y="276.273198085"/>
      <point x="160.297829488" y="432.064642769"/>
      <point x="454.0" y="433.0" type="curve"/>
      <point x="458.0" y="433.0" type="line"/>
      <point x="458.0" y="660" type="line"/>
      <point x="570" y="660" type="line"/>
      <point x="570" y="680" type="line"/>
      <point x="0" y="680" type="line"/>
      <point x="0" y="660" type="line"/>
      <point x="438.0" y="660" type="line"/>
      <point x="438.0" y="452.95142" type="line"/>
      <point x="150" y="453"/>
      <point x="69" y="289"/>
      <point x="52" y="231" type="curve"/>
      <point x="62" y="168"/>
      <point x="150" y="0"/>
      <point x="358" y="0" type="curve" smooth="yes"/>
      <point x="419" y="0"/>
      <point x="481" y="14"/>
    </contour>
  </outline>
</glyph>
<glyph name="uni0A20" format="1">
  <advance width="636"/>
  <unicode hex="0A20"/>
  <outline>
    <contour>
      <point x="479" y="680" type="move" name="abvm_bindu"/>
    </contour>
    <contour>
      <point x="318" y="2" type="move" name="blwm"/>
    </contour>
    <contour>
      <point x="317" y="690" type="move" name="abvm_candra"/>
    </contour>
    <contour>
      <point x="318" y="30" type="move" name="blwm_caret_1"/>
    </contour>
    <contour>
      <point x="82" y="0" type="move" name="blwm_nukta"/>
    </contour>
    <contour>
      <point x="479" y="670" type="move" name="abvm"/>
    </contour>
    <contour>
      <point x="584" y="227" type="curve" smooth="yes"/>
      <point x="584.0" y="355.332712228"/>
      <point x="486.111352902" y="451.035875424"/>
      <point x="327" y="453.92925" type="curve"/>
      <point x="327" y="660" type="line"/>
      <point x="636" y="660" type="line"/>
      <point x="636" y="680" type="line"/>
      <point x="0" y="680" type="line"/>
      <point x="0" y="660" type="line"/>
      <point x="307" y="660" type="line"/>
      <point x="307" y="453.86499" type="line"/>
      <point x="149.838968834" y="450.028092446"/>
      <point x="52.0" y="355.300143817"/>
      <point x="52.0" y="227.0" type="curve" smooth="yes"/>
      <point x="52" y="96"/>
      <point x="154" y="0"/>
      <point x="318" y="0" type="curve" smooth="yes"/>
      <point x="482" y="0"/>
      <point x="584" y="96"/>
    </contour>
    <contour>
      <point x="72" y="227" type="curve" smooth="yes"/>
      <point x="72" y="345"/>
      <point x="166" y="434"/>
      <point x="317" y="434" type="curve" smooth="yes"/>
      <point x="468" y="434"/>
      <point x="564" y="345"/>
      <point x="564" y="226" type="curve" smooth="yes"/>
      <point x="564" y="108"/>
      <point x="469" y="20"/>
      <point x="318" y="20" type="curve" smooth="yes"/>
      <point x="166" y="20"/>
      <point x="72" y="108"/>
    </contour>
  </outline>
</glyph>
<glyph name="uni0A21" format="1">
  <advance width="573"/>
  <unicode hex="0A21"/>
  <outline>
    <contour>
      <point x="493" y="680" type="move" name="abvm_bindu"/>
    </contour>
    <contour>
      <point x="249" y="2" type="move" name="blwm"/>
    </contour>
    <contour>
      <point x="493" y="690" type="move" name="abvm_candra"/>
    </contour>
    <contour>
      <point x="263" y="30" type="move" name="blwm_caret_1"/>
    </contour>
    <contour>
      <point x="52" y="0" type="move" name="blwm_nukta"/>
    </contour>
    <contour>
      <point x="493" y="670" type="move" name="abvm"/>
    </contour>
    <contour>
      <point x="247" y="0" type="curve" smooth="yes"/>
      <point x="408" y="0"/>
      <point x="511" y="89"/>
      <point x="511" y="207" type="curve" smooth="yes"/>
      <point x="511.0" y="291.028855993"/>
      <point x="457.609840155" y="385.902588205"/>
      <point x="315.01825" y="397.88573" type="curve"/>
      <point x="426.62558167" y="419.965283895"/>
      <point x="498.160610084" y="513.324972122"/>
      <point x="502.76366" y="660" type="curve"/>
      <point x="573" y="660" type="line"/>
      <point x="573" y="680" type="line"/>
      <point x="0" y="680" type="line"/>
      <point x="0" y="660" type="line"/>
      <point x="482.7515" y="660" type="line"/>
      <point x="478.579908144" y="533.039502692"/>
      <point x="421.563314962" y="430.58869303"/>
      <point x="287.31405" y="408.84209" type="curve"/>
      <point x="259.074356891" y="412.765871584"/>
      <point x="220.920114237" y="414.0"/>
      <point x="184.0" y="414.0" type="curve" smooth="yes"/>
      <point x="165" y="414"/>
      <point x="134" y="414"/>
      <point x="104" y="410" type="curve"/>
      <point x="104.0" y="390.0" type="line"/>
      <point x="135" y="386"/>
      <point x="164" y="383"/>
      <point x="200" y="383" type="curve" smooth="yes"/>
      <point x="220.405906035" y="383.0"/>
      <point x="250.714332906" y="383.990252084"/>
      <point x="274.55065" y="387.0272" type="curve"/>
      <point x="445.72238522" y="375.772773524"/>
      <point x="491.0" y="283.001643284"/>
      <point x="491.0" y="207.0" type="curve" smooth="yes"/>
      <point x="491.0" y="182.634143575"/>
      <point x="486.012962342" y="159.040090597"/>
      <point x="476.16908" y="137.31635" type="curve"/>
      <point x="409" y="196"/>
      <point x="331" y="236"/>
      <point x="227" y="236" type="curve" smooth="yes"/>
      <point x="127" y="236"/>
      <point x="52" y="198"/>
      <point x="52" y="123" type="curve" smooth="yes"/>
      <point x="52" y="48"/>
      <point x="129" y="0"/>
    </contour>
    <contour>
      <point x="248.0" y="20.0" type="curve" smooth="yes"/>
      <point x="136" y="20"/>
      <point x="72" y="63"/>
      <point x="72" y="123" type="curve" smooth="yes"/>
      <point x="72" y="183"/>
      <point x="136" y="216"/>
      <point x="226" y="216" type="curve" smooth="yes"/>
      <point x="320.150722754" y="216.0"/>
      <point x="396.026400662" y="180.411754772"/>
      <point x="466.83346" y="119.60804" type="curve"/>
      <point x="431.409440122" y="61.2513284533"/>
      <point x="357.485465084" y="20.0"/>
    </contour>
  </outline>
</glyph>
<glyph name="uni0A22" format="1">
  <advance width="651"/>
  <unicode hex="0A22"/>
  <outline>
    <contour>
      <point x="529" y="680" type="move" name="abvm_bindu"/>
    </contour>
    <contour>
      <point x="402" y="2" type="move" name="blwm"/>
    </contour>
    <contour>
      <point x="529" y="690" type="move" name="abvm_candra"/>
    </contour>
    <contour>
      <point x="373" y="30" type="move" name="blwm_caret_1"/>
    </contour>
    <contour>
      <point x="132" y="0" type="move" name="blwm_nukta"/>
    </contour>
    <contour>
      <point x="529" y="670" type="move" name="abvm"/>
    </contour>
    <contour>
      <point x="592" y="121" type="curve" smooth="yes"/>
      <point x="592" y="190"/>
      <point x="528" y="237"/>
      <point x="413" y="237" type="curve" smooth="yes"/>
      <point x="306.911804144" y="237.0"/>
      <point x="232.665624311" y="195.508888211"/>
      <point x="174.14837" y="141.9019" type="curve"/>
      <point x="153.952570331" y="180.209795408"/>
      <point x="144.0" y="224.905792845"/>
      <point x="144.0" y="272.0" type="curve" smooth="yes"/>
      <point x="144" y="401.0" type="line"/>
      <point x="539" y="401.0" type="line"/>
      <point x="539" y="660" type="line"/>
      <point x="651" y="660" type="line"/>
      <point x="651" y="680" type="line"/>
      <point x="0" y="680" type="line"/>
      <point x="0" y="660" type="line"/>
      <point x="519" y="660" type="line"/>
      <point x="519" y="421.0" type="line"/>
      <point x="145.27482" y="421.0" type="line"/>
      <point x="118.221306692" y="438.973500147"/>
      <point x="101.783405676" y="441.214439622"/>
      <point x="30.0" y="446.0" type="curve"/>
      <point x="25.0" y="427.0" type="line"/>
      <point x="51" y="415"/>
      <point x="83" y="401"/>
      <point x="124" y="401" type="curve"/>
      <point x="124.0" y="268" type="line" smooth="yes"/>
      <point x="124" y="114"/>
      <point x="227" y="0"/>
      <point x="402" y="0" type="curve" smooth="yes"/>
      <point x="525" y="0"/>
      <point x="592" y="51"/>
    </contour>
    <contour>
      <point x="400" y="20" type="curve" smooth="yes"/>
      <point x="295.99754105" y="20.0"/>
      <point x="224.521595919" y="61.9230622557"/>
      <point x="184.0513" y="124.91637" type="curve"/>
      <point x="241" y="180"/>
      <point x="312" y="217"/>
      <point x="413" y="217" type="curve" smooth="yes"/>
      <point x="514" y="217"/>
      <point x="572" y="180"/>
      <point x="572" y="122" type="curve" smooth="yes"/>
      <point x="572" y="61"/>
      <point x="508" y="20"/>
    </contour>
  </outline>
</glyph>
<glyph name="uni0A23" format="1">
  <advance width="576"/>
  <unicode hex="0A23"/>
  <outline>
    <contour>
      <point x="408" y="680" type="move" name="abvm_bindu"/>
    </contour>
    <contour>
      <point x="355" y="2" type="move" name="blwm"/>
    </contour>
    <contour>
      <point x="408" y="690" type="move" name="abvm_candra"/>
    </contour>
    <contour>
      <point x="333" y="30" type="move" name="blwm_caret_1"/>
    </contour>
    <contour>
      <point x="102" y="0" type="move" name="blwm_nukta"/>
    </contour>
    <contour>
      <point x="408" y="670" type="move" name="abvm"/>
    </contour>
    <contour>
      <point x="517" y="31" type="curve"/>
      <point x="509.0" y="51.0" type="line"/>
      <point x="469" y="31"/>
      <point x="413" y="20"/>
      <point x="357" y="20" type="curve" smooth="yes"/>
      <point x="166.992543293" y="20.0"/>
      <point x="80.7777555395" y="149.315456402"/>
      <point x="71.67543" y="188.27302" type="curve"/>
      <point x="86.8375066531" y="224.890638577"/>
      <point x="157.909993026" y="345.614935383"/>
      <point x="373.0" y="353.0" type="curve"/>
      <point x="373.0" y="456.24407" type="line"/>
      <point x="417.325456526" y="440.574102841"/>
      <point x="467.459518486" y="431.569579591"/>
      <point x="521.0" y="431.0" type="curve"/>
      <point x="521" y="447.0" type="line"/>
      <point x="347.886636187" y="453.76979635"/>
      <point x="214.056251766" y="540.97616955"/>
      <point x="207.25022" y="660" type="curve"/>
      <point x="576" y="660" type="line"/>
      <point x="576" y="680" type="line"/>
      <point x="0" y="680" type="line"/>
      <point x="0" y="660" type="line"/>
      <point x="187.41262" y="660" type="line"/>
      <point x="193.112423923" y="575.690733731"/>
      <point x="257.424559297" y="503.649947251"/>
      <point x="353.0" y="463.92524" type="curve"/>
      <point x="353.0" y="371.48689" type="line"/>
      <point x="144.531286659" y="361.464968186"/>
      <point x="66.6759711307" y="236.984709543"/>
      <point x="52.0" y="191.0" type="curve"/>
      <point x="61" y="141"/>
      <point x="150" y="0"/>
      <point x="355" y="0" type="curve" smooth="yes"/>
      <point x="420" y="0"/>
      <point x="481" y="14"/>
    </contour>
  </outline>
</glyph>
<glyph name="uni0A24" format="1">
  <advance width="574"/>
  <unicode hex="0A24"/>
  <outline>
    <contour>
      <point x="493" y="680" type="move" name="abvm_bindu"/>
    </contour>
    <contour>
      <point x="247" y="2" type="move" name="blwm"/>
    </contour>
    <contour>
      <point x="493" y="690" type="move" name="abvm_candra"/>
    </contour>
    <contour>
      <point x="258" y="30" type="move" name="blwm_caret_1"/>
    </contour>
    <contour>
      <point x="33" y="-33" type="move" name="blwm_nukta"/>
    </contour>
    <contour>
      <point x="493" y="670" type="move" name="abvm"/>
    </contour>
    <contour>
      <point x="222.0" y="378.0" type="line"/>
      <point x="226.375048581" y="378.101745316"/>
      <point x="230.683843663" y="378.16166811"/>
      <point x="234.92727" y="378.16573" type="curve"/>
    </contour>
    <contour>
      <point x="247" y="0" type="curve" smooth="yes"/>
      <point x="410" y="0"/>
      <point x="512" y="90"/>
      <point x="512" y="205" type="curve" smooth="yes"/>
      <point x="512.0" y="287.735849777"/>
      <point x="455.789999154" y="377.91125849"/>
      <point x="311.80496" y="389.0805" type="curve"/>
      <point x="427.001157991" y="408.017566214"/>
      <point x="498.386127445" y="504.478469848"/>
      <point x="502.78424" y="660" type="curve"/>
      <point x="574" y="660" type="line"/>
      <point x="574" y="680" type="line"/>
      <point x="0" y="680" type="line"/>
      <point x="0" y="660" type="line"/>
      <point x="482.79623" y="660" type="line"/>
      <point x="479.177271074" y="526.058692177"/>
      <point x="426.781650348" y="420.770534555"/>
      <point x="280.02521" y="398.72375" type="curve"/>
      <point x="253.075680766" y="402.836081096"/>
      <point x="219.328820109" y="404.0"/>
      <point x="185.0" y="404.0" type="curve" smooth="yes"/>
      <point x="166" y="404"/>
      <point x="135" y="404"/>
      <point x="105" y="400" type="curve"/>
      <point x="105.0" y="380.0" type="line"/>
      <point x="136" y="376"/>
      <point x="167" y="373"/>
      <point x="199" y="373" type="curve" smooth="yes"/>
      <point x="222.173142608" y="373.0"/>
      <point x="251.639189962" y="375.097634915"/>
      <point x="275.6257" y="377.01499" type="curve"/>
      <point x="446.345209213" y="366.040170018"/>
      <point x="492.0" y="279.709475272"/>
      <point x="492.0" y="205.0" type="curve" smooth="yes"/>
      <point x="492" y="98"/>
      <point x="397" y="20"/>
      <point x="248" y="20" type="curve" smooth="yes"/>
      <point x="183" y="20"/>
      <point x="104" y="35"/>
      <point x="59" y="56" type="curve"/>
      <point x="52.0" y="36" type="line"/>
      <point x="105" y="15"/>
      <point x="180" y="0"/>
    </contour>
  </outline>
</glyph>
<glyph name="uni0A26" format="1">
  <advance width="650"/>
  <unicode hex="0A26"/>
  <outline>
    <contour>
      <point x="528" y="680" type="move" name="abvm_bindu"/>
    </contour>
    <contour>
      <point x="398" y="2" type="move" name="blwm"/>
    </contour>
    <contour>
      <point x="528" y="690" type="move" name="abvm_candra"/>
    </contour>
    <contour>
      <point x="383" y="30" type="move" name="blwm_caret_1"/>
    </contour>
    <contour>
      <point x="122" y="0" type="move" name="blwm_nukta"/>
    </contour>
    <contour>
      <point x="528" y="670" type="move" name="abvm"/>
    </contour>
    <contour>
      <point x="554" y="32" type="curve"/>
      <point x="545" y="51.0" type="line"/>
      <point x="500" y="31"/>
      <point x="449" y="20"/>
      <point x="396" y="20" type="curve" smooth="yes"/>
      <point x="242" y="20"/>
      <point x="145" y="110"/>
      <point x="145" y="270" type="curve" smooth="yes"/>
      <point x="145" y="401.0" type="line"/>
      <point x="538" y="401.0" type="line"/>
      <point x="538" y="660" type="line"/>
      <point x="650" y="660" type="line"/>
      <point x="650" y="680" type="line"/>
      <point x="0" y="680" type="line"/>
      <point x="0" y="660" type="line"/>
      <point x="518" y="660" type="line"/>
      <point x="518" y="421.0" type="line"/>
      <point x="145.66019" y="421.0" type="line"/>
      <point x="118.857072888" y="438.973551206"/>
      <point x="101.782587903" y="441.21449414"/>
      <point x="30.0" y="446.0" type="curve"/>
      <point x="25.0" y="427.0" type="line"/>
      <point x="50" y="416"/>
      <point x="82" y="401"/>
      <point x="125" y="401" type="curve"/>
      <point x="125.0" y="269" type="line" smooth="yes"/>
      <point x="125" y="106"/>
      <point x="223" y="0"/>
      <point x="398" y="0" type="curve" smooth="yes"/>
      <point x="469" y="0"/>
      <point x="524" y="17"/>
    </contour>
  </outline>
</glyph>
<glyph name="uni0A28" format="1">
  <advance width="636"/>
  <unicode hex="0A28"/>
  <outline>
    <contour>
      <point x="479" y="680" type="move" name="abvm_bindu"/>
    </contour>
    <contour>
      <point x="409" y="23" type="move" name="blwm"/>
    </contour>
    <contour>
      <point x="317" y="690" type="move" name="abvm_candra"/>
    </contour>
    <contour>
      <point x="318" y="30" type="move" name="blwm_caret_1"/>
    </contour>
    <contour>
      <point x="72" y="0" type="move" name="blwm_nukta"/>
    </contour>
    <contour>
      <point x="479" y="670" type="move" name="abvm"/>
    </contour>
    <contour>
      <point x="584" y="225" type="curve" smooth="yes"/>
      <point x="584.0" y="360.156236865"/>
      <point x="485.201299021" y="450.229571342"/>
      <point x="328" y="453.88425" type="curve"/>
      <point x="328" y="660" type="line"/>
      <point x="636" y="660" type="line"/>
      <point x="636" y="680" type="line"/>
      <point x="0" y="680" type="line"/>
      <point x="0" y="660" type="line"/>
      <point x="308" y="660" type="line"/>
      <point x="308" y="453.87362" type="line"/>
      <point x="150.798700979" y="450.269511358"/>
      <point x="52.0" y="361.115022907"/>
      <point x="52.0" y="224.0" type="curve" smooth="yes"/>
      <point x="52" y="107"/>
      <point x="125" y="21"/>
      <point x="239" y="4" type="curve"/>
      <point x="242.0" y="23.0" type="line"/>
      <point x="138" y="40"/>
      <point x="72" y="118"/>
      <point x="72" y="226" type="curve" smooth="yes"/>
      <point x="72" y="355"/>
      <point x="166" y="434"/>
      <point x="318" y="434" type="curve" smooth="yes"/>
      <point x="470" y="434"/>
      <point x="564" y="354"/>
      <point x="564" y="226" type="curve" smooth="yes"/>
      <point x="564" y="123"/>
      <point x="504" y="42"/>
      <point x="399" y="23" type="curve"/>
      <point x="402.0" y="4" type="line"/>
      <point x="517" y="23"/>
      <point x="584" y="113"/>
    </contour>
  </outline>
</glyph>
<glyph name="uni0A2B" format="1">
  <advance width="573"/>
  <unicode hex="0A2B"/>
  <outline>
    <contour>
      <point x="451" y="680" type="move" name="abvm_bindu"/>
    </contour>
    <contour>
      <point x="322" y="2" type="move" name="blwm"/>
    </contour>
    <contour>
      <point x="451" y="690" type="move" name="abvm_candra"/>
    </contour>
    <contour>
      <point x="309" y="30" type="move" name="blwm_caret_1"/>
    </contour>
    <contour>
      <point x="77" y="0" type="move" name="blwm_nukta"/>
    </contour>
    <contour>
      <point x="451" y="670" type="move" name="abvm"/>
    </contour>
    <contour>
      <point x="513" y="121" type="curve" smooth="yes"/>
      <point x="513" y="190"/>
      <point x="449" y="237"/>
      <point x="334" y="237" type="curve" smooth="yes"/>
      <point x="226.969806585" y="237.0"/>
      <point x="152.721846845" y="195.540116236"/>
      <point x="93.2677" y="141.02153" type="curve"/>
      <point x="79.1221515747" y="170.483835551"/>
      <point x="72.0" y="203.76686131"/>
      <point x="72.0" y="239.0" type="curve" smooth="yes"/>
      <point x="72" y="333"/>
      <point x="124" y="431"/>
      <point x="293" y="431" type="curve" smooth="yes"/>
      <point x="461.0" y="431.0" type="line"/>
      <point x="461.0" y="660" type="line"/>
      <point x="573" y="660" type="line"/>
      <point x="573" y="680" type="line"/>
      <point x="0" y="680" type="line"/>
      <point x="0" y="660" type="line"/>
      <point x="441.0" y="660" type="line"/>
      <point x="441.0" y="451.0" type="line"/>
      <point x="281" y="451.0" type="line" smooth="yes"/>
      <point x="113" y="451"/>
      <point x="52" y="345"/>
      <point x="52" y="237" type="curve" smooth="yes"/>
      <point x="52" y="98"/>
      <point x="153" y="0"/>
      <point x="322" y="0" type="curve" smooth="yes"/>
      <point x="446" y="0"/>
      <point x="513" y="51"/>
    </contour>
    <contour>
      <point x="320" y="20" type="curve" smooth="yes"/>
      <point x="213.755922001" y="20.0"/>
      <point x="141.086514168" y="61.1289709537"/>
      <point x="103.07931" y="123.02339" type="curve"/>
      <point x="163.211772996" y="181.624658419"/>
      <point x="234.264531803" y="217.0"/>
      <point x="334.0" y="217.0" type="curve" smooth="yes"/>
      <point x="435" y="217"/>
      <point x="493" y="180"/>
      <point x="493" y="122" type="curve" smooth="yes"/>
      <point x="493" y="61"/>
      <point x="430" y="20"/>
    </contour>
  </outline>
</glyph>
<glyph name="uni0A2D" format="1">
  <advance width="574"/>
  <unicode hex="0A2D"/>
  <outline>
    <contour>
      <point x="493" y="680" type="move" name="abvm_bindu"/>
    </contour>
    <contour>
      <point x="247" y="2" type="move" name="blwm"/>
    </contour>
    <contour>
      <point x="493" y="690" type="move" name="abvm_candra"/>
    </contour>
    <contour>
      <point x="258" y="30" type="move" name="blwm_caret_1"/>
    </contour>
    <contour>
      <point x="52" y="-27" type="move" name="blwm_nukta"/>
    </contour>
    <contour>
      <point x="493" y="670" type="move" name="abvm"/>
    </contour>
    <contour>
      <point x="216.0" y="320.0" type="curve" smooth="yes"/>
      <point x="140" y="320"/>
      <point x="99" y="342"/>
      <point x="99" y="374" type="curve" smooth="yes"/>
      <point x="99" y="406"/>
      <point x="140" y="426"/>
      <point x="205" y="426" type="curve" smooth="yes"/>
      <point x="266.403174556" y="426.0"/>
      <point x="330.4835206" y="409.044580576"/>
      <point x="381.22386" y="376.81476" type="curve"/>
      <point x="338.018965044" y="338.933717208"/>
      <point x="281.517510429" y="320.0"/>
    </contour>
    <contour>
      <point x="247" y="0" type="curve" smooth="yes"/>
      <point x="409" y="0"/>
      <point x="512" y="90"/>
      <point x="512" y="204" type="curve" smooth="yes"/>
      <point x="512.0" y="275.69977393"/>
      <point x="471.948304852" y="336.719095821"/>
      <point x="411.1575" y="381.17417" type="curve"/>
      <point x="467.747217773" y="440.569370758"/>
      <point x="500.382656654" y="535.213047902"/>
      <point x="502.84918" y="660" type="curve"/>
      <point x="574" y="660" type="line"/>
      <point x="574" y="680" type="line"/>
      <point x="0" y="680" type="line"/>
      <point x="0" y="660" type="line"/>
      <point x="482.91291" y="660" type="line"/>
      <point x="481.031116328" y="536.11253495"/>
      <point x="448.755026802" y="446.905328159"/>
      <point x="395.94159" y="391.06644" type="curve"/>
      <point x="341.355112405" y="426.27556434"/>
      <point x="273.280990945" y="446.0"/>
      <point x="207.0" y="446.0" type="curve" smooth="yes"/>
      <point x="133" y="446"/>
      <point x="79" y="421"/>
      <point x="79" y="374" type="curve" smooth="yes"/>
      <point x="79" y="328"/>
      <point x="131" y="300"/>
      <point x="213" y="300" type="curve" smooth="yes"/>
      <point x="287.28692485" y="300.0"/>
      <point x="350.404585669" y="322.338528064"/>
      <point x="397.8631" y="367.01692" type="curve"/>
      <point x="451" y="331"/>
      <point x="492" y="274"/>
      <point x="492" y="205" type="curve" smooth="yes"/>
      <point x="492" y="99"/>
      <point x="398" y="20"/>
      <point x="248" y="20" type="curve" smooth="yes"/>
      <point x="183" y="20"/>
      <point x="104" y="35"/>
      <point x="59" y="56" type="curve"/>
      <point x="52.0" y="36" type="line"/>
      <point x="105" y="15"/>
      <point x="180" y="0"/>
    </contour>
  </outline>
</glyph>
<glyph name="uni0A2E" format="1">
  <advance width="658"/>
  <unicode hex="0A2E"/>
  <outline>
    <contour>
      <point x="536" y="680" type="move" name="abvm_bindu"/>
    </contour>
    <contour>
      <point x="536" y="0" type="move" name="blwm"/>
    </contour>
    <contour>
      <point x="536" y="690" type="move" name="abvm_candra"/>
    </contour>
    <contour>
      <point x="341" y="30" type="move" name="blwm_caret_1"/>
    </contour>
    <contour>
      <point x="72" y="0" type="move" name="blwm_nukta"/>
    </contour>
    <contour>
      <point x="536" y="670" type="move" name="abvm"/>
    </contour>
    <contour>
      <point x="546" y="0" type="line"/>
      <point x="546" y="660" type="line"/>
      <point x="658" y="660" type="line"/>
      <point x="658" y="680" type="line"/>
      <point x="526" y="680" type="line"/>
      <point x="526" y="311" type="line"/>
      <point x="164.01788" y="311" type="line"/>
      <point x="170.160916564" y="352.542196835"/>
      <point x="174.0" y="398.616510775"/>
      <point x="174.0" y="449.0" type="curve" smooth="yes"/>
      <point x="174" y="593"/>
      <point x="130" y="680"/>
      <point x="24" y="680" type="curve" smooth="yes"/>
      <point x="0" y="680" type="line"/>
      <point x="0" y="660" type="line"/>
      <point x="31.0" y="660" type="line" smooth="yes"/>
      <point x="125" y="660"/>
      <point x="154" y="561"/>
      <point x="154" y="460" type="curve" smooth="yes"/>
      <point x="154.0" y="405.315498176"/>
      <point x="149.045499839" y="347.799853402"/>
      <point x="140.92288" y="302.94238" type="curve"/>
      <point x="123.961318531" y="259.767962038"/>
      <point x="94.6437490232" y="176.218745116"/>
      <point x="77.0" y="88.0" type="curve"/>
      <point x="97.0" y="83" type="line"/>
      <point x="115.884265657" y="124.14072161"/>
      <point x="144.320731924" y="194.392911745"/>
      <point x="160.83484" y="291" type="curve"/>
      <point x="526" y="291" type="line"/>
      <point x="526" y="0" type="line"/>
    </contour>
  </outline>
</glyph>
<glyph name="uni0A2F" format="1">
  <advance width="717"/>
  <unicode hex="0A2F"/>
  <outline>
    <contour>
      <point x="595" y="680" type="move" name="abvm_bindu"/>
    </contour>
    <contour>
      <point x="595" y="0" type="move" name="blwm"/>
    </contour>
    <contour>
      <point x="595" y="690" type="move" name="abvm_candra"/>
    </contour>
    <contour>
      <point x="341" y="30" type="move" name="blwm_caret_1"/>
    </contour>
    <contour>
      <point x="102" y="0" type="move" name="blwm_nukta"/>
    </contour>
    <contour>
      <point x="595" y="670" type="move" name="abvm"/>
    </contour>
    <contour>
      <point x="717.0" y="660" type="line"/>
      <point x="717.0" y="680" type="line"/>
      <point x="0" y="680" type="line"/>
      <point x="0" y="660" type="line"/>
      <point x="24.0" y="660" type="line" smooth="yes"/>
      <point x="114" y="660"/>
      <point x="155" y="590"/>
      <point x="155" y="511" type="curve" smooth="yes"/>
      <point x="155" y="439"/>
      <point x="121" y="359"/>
      <point x="56" y="318" type="curve"/>
      <point x="71" y="219"/>
      <point x="127" y="161"/>
      <point x="231" y="161" type="curve" smooth="yes"/>
      <point x="294" y="161"/>
      <point x="402" y="190"/>
      <point x="402" y="322" type="curve"/>
      <point x="402.0" y="396.0" type="line"/>
      <point x="585" y="396.0" type="line"/>
      <point x="585" y="0" type="line"/>
      <point x="605" y="0" type="line"/>
      <point x="605" y="660" type="line"/>
    </contour>
    <contour>
      <point x="230" y="181" type="curve" smooth="yes"/>
      <point x="140.150997654" y="181.0"/>
      <point x="91.415388814" y="232.16333414"/>
      <point x="76.80689" y="307.49109" type="curve"/>
      <point x="141.403728413" y="352.900462085"/>
      <point x="175.0" y="432.674253063"/>
      <point x="175.0" y="507.0" type="curve" smooth="yes"/>
      <point x="175.0" y="570.270885028"/>
      <point x="150.783081516" y="630.082210273"/>
      <point x="99.91714" y="660" type="curve"/>
      <point x="585" y="660" type="line"/>
      <point x="585" y="416.0" type="line"/>
      <point x="382.0" y="416.0" type="line"/>
      <point x="382.0" y="326" type="line"/>
      <point x="382" y="202"/>
      <point x="282" y="181"/>
    </contour>
  </outline>
</glyph>
<glyph name="uni0A32" format="1">
  <advance width="703"/>
  <unicode hex="0A32"/>
  <outline>
    <contour>
      <point x="583" y="680" type="move" name="abvm_bindu"/>
    </contour>
    <contour>
      <point x="472" y="23" type="move" name="blwm"/>
    </contour>
    <contour>
      <point x="353" y="690" type="move" name="abvm_candra"/>
    </contour>
    <contour>
      <point x="353" y="30" type="move" name="blwm_caret_1"/>
    </contour>
    <contour>
      <point x="353" y="10" type="move" name="blwm_nukta"/>
    </contour>
    <contour>
      <point x="583" y="670" type="move" name="abvm"/>
    </contour>
    <contour>
      <point x="353.0" y="308.0" type="curve"/>
      <point x="250.345988286" y="361.301121467"/>
      <point x="139.89771169" y="461.367832227"/>
      <point x="137.05602" y="660" type="curve"/>
      <point x="572.87176" y="660" type="line"/>
      <point x="567.881449878" y="470.22420021"/>
      <point x="440.922197463" y="357.394492957"/>
    </contour>
    <contour>
      <point x="641" y="218" type="curve" smooth="yes"/>
      <point x="641" y="309"/>
      <point x="592" y="382"/>
      <point x="508" y="419" type="curve"/>
      <point x="554.070064319" y="480.75349047"/>
      <point x="588.610291646" y="559.801736429"/>
      <point x="592.7845" y="660" type="curve"/>
      <point x="703.0" y="660" type="line"/>
      <point x="703.0" y="680" type="line"/>
      <point x="0" y="680" type="line"/>
      <point x="0" y="660" type="line"/>
      <point x="117.14567" y="660" type="line"/>
      <point x="119" y="560"/>
      <point x="149" y="479"/>
      <point x="193" y="418" type="curve"/>
      <point x="113" y="382"/>
      <point x="62" y="311"/>
      <point x="62" y="218" type="curve" smooth="yes"/>
      <point x="62" y="112"/>
      <point x="130" y="21"/>
      <point x="246" y="3" type="curve"/>
      <point x="248.0" y="23.0" type="line"/>
      <point x="148" y="39"/>
      <point x="82" y="119"/>
      <point x="82" y="219" type="curve" smooth="yes"/>
      <point x="82" y="304"/>
      <point x="131" y="369"/>
      <point x="206" y="402" type="curve"/>
      <point x="249" y="349"/>
      <point x="302" y="312"/>
      <point x="353" y="288" type="curve"/>
      <point x="397" y="311"/>
      <point x="451" y="349"/>
      <point x="496" y="404" type="curve"/>
      <point x="575" y="370"/>
      <point x="621" y="302"/>
      <point x="621" y="219" type="curve" smooth="yes"/>
      <point x="621" y="123"/>
      <point x="560" y="41"/>
      <point x="462" y="23" type="curve"/>
      <point x="465.0" y="3.0" type="line"/>
      <point x="575" y="21"/>
      <point x="641" y="113"/>
    </contour>
  </outline>
</glyph>
<glyph name="uni0A33" format="1">
  <advance width="703"/>
  <unicode hex="0A33"/>
  <outline>
    <contour>
      <point x="583" y="680" type="move" name="abvm_bindu"/>
    </contour>
    <contour>
      <point x="472" y="23" type="move" name="blwm"/>
    </contour>
    <contour>
      <point x="353" y="690" type="move" name="abvm_candra"/>
    </contour>
    <contour>
      <point x="353" y="30" type="move" name="blwm_caret_1"/>
    </contour>
    <contour>
      <point x="353" y="10" type="move" name="blwm_nukta"/>
    </contour>
    <contour>
      <point x="583" y="670" type="move" name="abvm"/>
    </contour>
    <component base="uni0A32"/>
    <component base="uni0A3C" xOffset="353" yOffset="52"/>
  </outline>
</glyph>
<glyph name="uni0A35" format="1">
  <advance width="613"/>
  <unicode hex="0A35"/>
  <outline>
    <contour>
      <point x="491" y="680" type="move" name="abvm_bindu"/>
    </contour>
    <contour>
      <point x="383" y="0" type="move" name="blwm"/>
    </contour>
    <contour>
      <point x="491" y="690" type="move" name="abvm_candra"/>
    </contour>
    <contour>
      <point x="343" y="30" type="move" name="blwm_caret_1"/>
    </contour>
    <contour>
      <point x="102" y="0" type="move" name="blwm_nukta"/>
    </contour>
    <contour>
      <point x="491" y="670" type="move" name="abvm"/>
    </contour>
    <contour>
      <point x="501" y="15" type="curve"/>
      <point x="496.0" y="34" type="line"/>
      <point x="461" y="25"/>
      <point x="422" y="20"/>
      <point x="381" y="20" type="curve" smooth="yes"/>
      <point x="280" y="20"/>
      <point x="182" y="51"/>
      <point x="182" y="172" type="curve" smooth="yes"/>
      <point x="182.0" y="182.495672597"/>
      <point x="182.76499405" y="199.111297598"/>
      <point x="185.63317" y="221.82921" type="curve"/>
      <point x="196.492135365" y="220.619729318"/>
      <point x="207.955569565" y="220.0"/>
      <point x="220.0" y="220.0" type="curve"/>
      <point x="471.0" y="220.0" type="line"/>
      <point x="471.0" y="240.0" type="line"/>
      <point x="216.0" y="240.0" type="line"/>
      <point x="120" y="240"/>
      <point x="73" y="283"/>
      <point x="73" y="343" type="curve" smooth="yes"/>
      <point x="73" y="387"/>
      <point x="103" y="440"/>
      <point x="214" y="440" type="curve"/>
      <point x="501.0" y="440.0" type="line"/>
      <point x="501.0" y="660" type="line"/>
      <point x="613" y="660" type="line"/>
      <point x="613" y="680" type="line"/>
      <point x="0" y="680" type="line"/>
      <point x="0" y="660" type="line"/>
      <point x="481.0" y="660" type="line"/>
      <point x="481.0" y="460.0" type="line"/>
      <point x="202.0" y="460.0" type="line"/>
      <point x="96" y="460"/>
      <point x="53" y="399"/>
      <point x="53" y="343" type="curve" smooth="yes"/>
      <point x="53.0" y="281.824136276"/>
      <point x="93.58518479" y="238.612206804"/>
      <point x="166.07242" y="224.76836" type="curve"/>
      <point x="163" y="202"/>
      <point x="162" y="181"/>
      <point x="162" y="170" type="curve" smooth="yes"/>
      <point x="162" y="47"/>
      <point x="262" y="0"/>
      <point x="383" y="0" type="curve" smooth="yes"/>
      <point x="419" y="0"/>
      <point x="462" y="4"/>
    </contour>
  </outline>
</glyph>
<glyph name="uni0A38" format="1">
  <advance width="658"/>
  <unicode hex="0A38"/>
  <outline>
    <contour>
      <point x="536" y="680" type="move" name="abvm_bindu"/>
    </contour>
    <contour>
      <point x="536" y="0" type="move" name="blwm"/>
    </contour>
    <contour>
      <point x="536" y="690" type="move" name="abvm_candra"/>
    </contour>
    <contour>
      <point x="341" y="30" type="move" name="blwm_caret_1"/>
    </contour>
    <contour>
      <point x="341" y="20" type="move" name="blwm_nukta"/>
    </contour>
    <contour>
      <point x="536" y="670" type="move" name="abvm"/>
    </contour>
    <contour>
      <point x="174.0" y="449.0" type="curve" smooth="yes"/>
      <point x="174.0" y="552.496712358"/>
      <point x="151.270975278" y="626.549006326"/>
      <point x="99.13003" y="660" type="curve"/>
      <point x="526" y="660" type="line"/>
      <point x="526" y="311" type="line"/>
      <point x="164.01788" y="311" type="line"/>
      <point x="170.160916564" y="352.542196835"/>
      <point x="174.0" y="398.616510775"/>
    </contour>
    <contour>
      <point x="658" y="660" type="line"/>
      <point x="658" y="680" type="line"/>
      <point x="0" y="680" type="line"/>
      <point x="0" y="660" type="line"/>
      <point x="31.0" y="660" type="line" smooth="yes"/>
      <point x="125" y="660"/>
      <point x="154" y="561"/>
      <point x="154" y="460" type="curve" smooth="yes"/>
      <point x="154.0" y="405.315498176"/>
      <point x="149.045499839" y="347.799853402"/>
      <point x="140.92288" y="302.94238" type="curve"/>
      <point x="123.961318531" y="259.767962038"/>
      <point x="94.6437490232" y="176.218745116"/>
      <point x="77.0" y="88.0" type="curve"/>
      <point x="97.0" y="83" type="line"/>
      <point x="115.884265657" y="124.14072161"/>
      <point x="144.320731924" y="194.392911745"/>
      <point x="160.83484" y="291" type="curve"/>
      <point x="526" y="291" type="line"/>
      <point x="526" y="0" type="line"/>
      <point x="546" y="0" type="line"/>
      <point x="546" y="660" type="line"/>
    </contour>
  </outline>
</glyph>
<glyph name="uni0A39" format="1">
  <advance width="576"/>
  <unicode hex="0A39"/>
  <outline>
    <contour>
      <point x="454" y="680" type="move" name="abvm_bindu"/>
    </contour>
    <contour>
      <point x="373" y="2" type="move" name="blwm"/>
    </contour>
    <contour>
      <point x="454" y="690" type="move" name="abvm_candra"/>
    </contour>
    <contour>
      <point x="281" y="30" type="move" name="blwm_caret_1"/>
    </contour>
    <contour>
      <point x="105" y="0" type="move" name="blwm_nukta"/>
    </contour>
    <contour>
      <point x="454" y="670" type="move" name="abvm"/>
    </contour>
    <contour>
      <point x="373" y="0" type="curve" smooth="yes"/>
      <point x="428" y="0"/>
      <point x="464" y="23"/>
      <point x="464" y="102" type="curve"/>
      <point x="464.0" y="660" type="line"/>
      <point x="576" y="660" type="line"/>
      <point x="576" y="680" type="line"/>
      <point x="0" y="680" type="line"/>
      <point x="0" y="660" type="line"/>
      <point x="444.0" y="660" type="line"/>
      <point x="444.0" y="109.0" type="line"/>
      <point x="444" y="53"/>
      <point x="434" y="20"/>
      <point x="370" y="20" type="curve" smooth="yes"/>
      <point x="233" y="20"/>
      <point x="72" y="140"/>
      <point x="72" y="284" type="curve" smooth="yes"/>
      <point x="72" y="397"/>
      <point x="131" y="422"/>
      <point x="237" y="422" type="curve"/>
      <point x="235.0" y="442.0" type="line"/>
      <point x="127" y="442"/>
      <point x="52" y="421"/>
      <point x="52" y="287" type="curve" smooth="yes"/>
      <point x="52" y="113"/>
      <point x="241" y="0"/>
    </contour>
  </outline>
</glyph>
<glyph name="uni0A3C" format="1">
  <advance width="0"/>
  <unicode hex="0A3C"/>
  <outline>
    <contour>
      <point x="0" y="-42" type="move" name="_blwm_nukta"/>
    </contour>
    <contour>
      <point x="26" y="-42" type="curve" smooth="yes"/>
      <point x="26" y="-28"/>
      <point x="14" y="-16"/>
      <point x="0" y="-16" type="curve" smooth="yes"/>
      <point x="-14" y="-16"/>
      <point x="-26" y="-28"/>
      <point x="-26" y="-42" type="curve" smooth="yes"/>
      <point x="-26" y="-56"/>
      <point x="-14" y="-68"/>
      <point x="0" y="-68" type="curve" smooth="yes"/>
      <point x="14" y="-68"/>
      <point x="26" y="-56"/>
    </contour>
  </outline>
</glyph>
<glyph name="uni0A3E" format="1">
  <advance width="224"/>
  <unicode hex="0A3E"/>
  <outline>
    <contour>
      <point x="102" y="680" type="move" name="abvm_bindu"/>
    </contour>
    <contour>
      <point x="102" y="690" type="move" name="abvm_candra"/>
    </contour>
    <contour>
      <point x="102" y="670" type="move" name="abvm"/>
    </contour>
    <contour>
      <point x="112" y="310" type="line"/>
      <point x="112" y="660" type="line"/>
      <point x="224" y="660" type="line"/>
      <point x="224" y="680" type="line"/>
      <point x="0" y="680" type="line"/>
      <point x="0" y="660" type="line"/>
      <point x="92" y="660" type="line"/>
      <point x="92" y="310" type="line"/>
    </contour>
  </outline>
</glyph>
<glyph name="uni0A3F" format="1">
  <advance width="214"/>
  <unicode hex="0A3F"/>
  <outline>
    <contour>
      <point x="461" y="670" type="move" name="abvm_bindu"/>
    </contour>
    <contour>
      <point x="638" y="690" type="move" name="abvm_candra"/>
    </contour>
    <contour>
      <point x="102.0" y="660" type="line"/>
      <point x="214.0" y="660" type="line"/>
      <point x="214.0" y="680" type="line"/>
      <point x="102.0" y="680" type="line"/>
      <point x="102.0" y="753.0" type="line" smooth="yes"/>
      <point x="102" y="844"/>
      <point x="135" y="887"/>
      <point x="212" y="887" type="curve" smooth="yes"/>
      <point x="308" y="887"/>
      <point x="364" y="819"/>
      <point x="403" y="757" type="curve"/>
      <point x="420.0" y="767.0" type="line"/>
      <point x="360" y="864"/>
      <point x="291" y="907"/>
      <point x="212" y="907" type="curve" smooth="yes"/>
      <point x="119" y="907"/>
      <point x="82" y="847"/>
      <point x="82" y="751" type="curve" smooth="yes"/>
      <point x="82" y="680" type="line"/>
      <point x="0" y="680" type="line"/>
      <point x="0" y="660" type="line"/>
      <point x="82" y="660" type="line"/>
      <point x="82" y="0" type="line"/>
      <point x="102.0" y="0" type="line"/>
    </contour>
  </outline>
</glyph>
<glyph name="uni0A40" format="1">
  <advance width="226"/>
  <unicode hex="0A40"/>
  <outline>
    <contour>
      <point x="181" y="670" type="move" name="abvm_bindu"/>
    </contour>
    <contour>
      <point x="355" y="690" type="move" name="abvm_candra"/>
    </contour>
    <contour>
      <point x="114.0" y="660" type="line"/>
      <point x="226.0" y="660" type="line"/>
      <point x="226.0" y="680" type="line"/>
      <point x="114.0" y="680" type="line"/>
      <point x="114.0" y="750.0" type="line" smooth="yes"/>
      <point x="114" y="849"/>
      <point x="71" y="907"/>
      <point x="-7" y="907" type="curve" smooth="yes"/>
      <point x="-85" y="907"/>
      <point x="-124" y="848"/>
      <point x="-133" y="760" type="curve"/>
      <point x="-115.0" y="757.0" type="line"/>
      <point x="-105" y="826"/>
      <point x="-81" y="887"/>
      <point x="-7" y="887" type="curve" smooth="yes"/>
      <point x="60" y="887"/>
      <point x="94" y="837"/>
      <point x="94" y="753" type="curve" smooth="yes"/>
      <point x="94.0" y="680" type="line"/>
      <point x="0" y="680" type="line"/>
      <point x="0" y="660" type="line"/>
      <point x="94.0" y="660" type="line"/>
      <point x="94.0" y="0" type="line"/>
      <point x="114.0" y="0" type="line"/>
    </contour>
  </outline>
</glyph>
<glyph name="uni0A42" format="1">
  <advance width="0"/>
  <unicode hex="0A42"/>
  <outline>
    <contour>
      <point x="0" y="30" type="move" name="_blwm_caret_1"/>
    </contour>
    <contour>
      <point x="196" y="-95" type="curve"/>
      <point x="187" y="-76" type="line"/>
      <point x="136" y="-108"/>
      <point x="65" y="-126"/>
      <point x="0" y="-126" type="curve" smooth="yes"/>
      <point x="-65" y="-126"/>
      <point x="-136" y="-108"/>
      <point x="-187" y="-76" type="curve"/>
      <point x="-196" y="-95" type="line"/>
      <point x="-152" y="-123"/>
      <point x="-75" y="-146"/>
      <point x="0" y="-146" type="curve" smooth="yes"/>
      <point x="75" y="-146"/>
      <point x="152" y="-123"/>
    </contour>
    <contour>
      <point x="196" y="-193" type="curve"/>
      <point x="187" y="-174" type="line"/>
      <point x="136" y="-206"/>
      <point x="65" y="-224"/>
      <point x="0" y="-224" type="curve" smooth="yes"/>
      <point x="-65" y="-224"/>
      <point x="-136" y="-206"/>
      <point x="-187" y="-174" type="curve"/>
      <point x="-196" y="-193" type="line"/>
      <point x="-152" y="-221"/>
      <point x="-75" y="-244"/>
      <point x="0" y="-244" type="curve" smooth="yes"/>
      <point x="75" y="-244"/>
      <point x="152" y="-221"/>
    </contour>
  </outline>
</glyph>
<glyph name="uni0A47" format="1">
  <advance width="0"/>
  <unicode hex="0A47"/>
  <outline>
    <contour>
      <point x="0" y="670" type="move" name="_abvm"/>
    </contour>
    <contour>
      <point x="99" y="680" type="move" name="abvm_bindu"/>
    </contour>
    <contour>
      <point x="150" y="690" type="move" name="abvm_candra"/>
    </contour>
    <contour>
      <point x="150" y="670" type="move" name="abvm"/>
    </contour>
    <contour>
      <point x="10" y="669" type="line"/>
      <point x="10" y="813"/>
      <point x="-72" y="907"/>
      <point x="-232" y="907" type="curve" smooth="yes"/>
      <point x="-276" y="907"/>
      <point x="-321" y="900"/>
      <point x="-356" y="888" type="curve"/>
      <point x="-350" y="870" type="line"/>
      <point x="-318" y="880"/>
      <point x="-274" y="887"/>
      <point x="-231" y="887" type="curve" smooth="yes"/>
      <point x="-71" y="887"/>
      <point x="-10" y="789"/>
      <point x="-10" y="669" type="curve"/>
    </contour>
  </outline>
</glyph>
<glyph name="uni0A4C" format="1">
  <advance width="0"/>
  <unicode hex="0A4C"/>
  <outline>
    <contour>
      <point x="0" y="670" type="move" name="_abvm"/>
    </contour>
    <contour>
      <point x="189" y="680" type="move" name="abvm_bindu"/>
    </contour>
    <contour>
      <point x="240" y="690" type="move" name="abvm_candra"/>
    </contour>
    <contour>
      <point x="240" y="670" type="move" name="abvm"/>
    </contour>
    <contour>
      <point x="-33" y="874" type="curve" smooth="yes"/>
      <point x="58" y="874"/>
      <point x="63" y="785"/>
      <point x="63" y="757" type="curve"/>
      <point x="83" y="757.0" type="line"/>
      <point x="83.0" y="802.391260553"/>
      <point x="68.3943771176" y="891.599389754"/>
      <point x="-29.9961" y="893.94935" type="curve"/>
      <point x="-30.0" y="894.0" type="line"/>
      <point x="-31.74757" y="893.97419" type="line"/>
      <point x="-34" y="894.0" type="line" smooth="yes"/>
      <point x="-37.9630424224" y="894.0"/>
      <point x="-41.7978880873" y="893.860586026"/>
      <point x="-45.50845" y="893.54584" type="curve"/>
      <point x="-46.2399641639" y="893.50900759"/>
      <point x="-46.9667413042" y="893.462507644"/>
      <point x="-47.68884" y="893.39149" type="curve"/>
      <point x="-48.1034549963" y="893.37770929"/>
      <point x="-48.5164864361" y="893.339538036"/>
      <point x="-48.92794" y="893.29575" type="curve"/>
      <point x="-150.698907215" y="885.804385285"/>
      <point x="-158.82469059" y="818.0"/>
      <point x="-241.0" y="818.0" type="curve" smooth="yes"/>
      <point x="-285" y="818"/>
      <point x="-321" y="836"/>
      <point x="-354" y="878" type="curve"/>
      <point x="-369.0" y="866.0" type="line"/>
      <point x="-335" y="823"/>
      <point x="-294" y="798"/>
      <point x="-240" y="798" type="curve" smooth="yes"/>
      <point x="-183.168775667" y="798.0"/>
      <point x="-158.958276213" y="825.912579021"/>
      <point x="-126.804" y="849.35266" type="curve"/>
      <point x="-146.644320226" y="820.521654615"/>
      <point x="-152.0" y="783.546086475"/>
      <point x="-152.0" y="757.0" type="curve"/>
      <point x="-132" y="757.0" type="line"/>
      <point x="-132" y="780"/>
      <point x="-127" y="874"/>
    </contour>
  </outline>
</glyph>
<glyph name="uni0A4D" format="1">
  <advance width="0"/>
  <unicode hex="0A4D"/>
  <outline>
    <contour>
      <point x="0" y="0" type="move" name="_blwm"/>
    </contour>
    <contour>
      <point x="198" y="-334" type="line"/>
      <point x="168" y="-184"/>
      <point x="80" y="-99"/>
      <point x="-34" y="-77" type="curve"/>
      <point x="-39" y="-96" type="line"/>
      <point x="66" y="-116"/>
      <point x="146" y="-191"/>
      <point x="179" y="-340" type="curve"/>
    </contour>
  </outline>
</glyph>
<glyph name="uni0A51" format="1">
  <advance width="0"/>
  <unicode hex="0A51"/>
  <outline>
    <contour>
      <point x="0" y="0" type="move" name="_blwm"/>
    </contour>
    <contour>
      <point x="208" y="-313" type="line"/>
      <point x="103" y="-313"/>
      <point x="23" y="-218"/>
      <point x="-10" y="-69" type="curve"/>
      <point x="-29" y="-75" type="line"/>
      <point x="2" y="-226"/>
      <point x="91" y="-332"/>
      <point x="207" y="-333" type="curve"/>
    </contour>
  </outline>
</glyph>
<glyph name="uni0A59" format="1">
  <advance width="622"/>
  <unicode hex="0A59"/>
  <outline>
    <contour>
      <point x="500" y="680" type="move" name="abvm_bindu"/>
    </contour>
    <contour>
      <point x="500" y="0" type="move" name="blwm"/>
    </contour>
    <contour>
      <point x="500" y="690" type="move" name="abvm_candra"/>
    </contour>
    <contour>
      <point x="308" y="30" type="move" name="blwm_caret_1"/>
    </contour>
    <contour>
      <point x="125" y="81" type="move" name="blwm_nukta"/>
    </contour>
    <contour>
      <point x="500" y="670" type="move" name="abvm"/>
    </contour>
    <component base="uni0A16"/>
    <component base="uni0A3C" xOffset="125" yOffset="123"/>
  </outline>
</glyph>
<glyph name="uni0A5B" format="1">
  <advance width="617"/>
  <unicode hex="0A5B"/>
  <outline>
    <contour>
      <point x="495" y="680" type="move" name="abvm_bindu"/>
    </contour>
    <contour>
      <point x="495" y="0" type="move" name="blwm"/>
    </contour>
    <contour>
      <point x="495" y="690" type="move" name="abvm_candra"/>
    </contour>
    <contour>
      <point x="309" y="30" type="move" name="blwm_caret_1"/>
    </contour>
    <contour>
      <point x="309" y="21" type="move" name="blwm_nukta"/>
    </contour>
    <contour>
      <point x="495" y="670" type="move" name="abvm"/>
    </contour>
    <component base="uni0A1C"/>
    <component base="uni0A3C" xOffset="309" yOffset="63"/>
  </outline>
</glyph>
<glyph name="uni0A5C" format="1">
  <advance width="611"/>
  <unicode hex="0A5C"/>
  <outline>
    <contour>
      <point x="518" y="680" type="move" name="abvm_bindu"/>
    </contour>
    <contour>
      <point x="298" y="40" type="move" name="blwm"/>
    </contour>
    <contour>
      <point x="518" y="690" type="move" name="abvm_candra"/>
    </contour>
    <contour>
      <point x="298" y="30" type="move" name="blwm_caret_1"/>
    </contour>
    <contour>
      <point x="518" y="670" type="move" name="abvm"/>
    </contour>
    <contour>
      <point x="534" y="-12.0" type="line"/>
      <point x="549" y="0" type="line"/>
      <point x="543" y="7.0" type="line"/>
      <point x="474.85415" y="87.11742" type="line"/>
      <point x="513" y="117"/>
      <point x="537" y="164"/>
      <point x="537" y="219" type="curve" smooth="yes"/>
      <point x="537.0" y="299.708553221"/>
      <point x="485.191661978" y="390.285361304"/>
      <point x="354.72827" y="407.18858" type="curve"/>
      <point x="449.323960269" y="428.629090134"/>
      <point x="522.998811327" y="515.252912602"/>
      <point x="527.75569" y="660" type="curve"/>
      <point x="611" y="660" type="line"/>
      <point x="611" y="680" type="line"/>
      <point x="0" y="680" type="line"/>
      <point x="0" y="660" type="line"/>
      <point x="507.76225" y="660" type="line"/>
      <point x="504.025448461" y="542.00632195"/>
      <point x="455.606506456" y="440.172758485"/>
      <point x="317.92052" y="418.80212" type="curve"/>
      <point x="288.796303571" y="422.758228509"/>
      <point x="249.398151785" y="424.0"/>
      <point x="210.0" y="424.0" type="curve" smooth="yes"/>
      <point x="191" y="424"/>
      <point x="160" y="424"/>
      <point x="130" y="420" type="curve"/>
      <point x="130" y="400.0" type="line"/>
      <point x="161" y="396"/>
      <point x="191" y="393"/>
      <point x="225" y="393" type="curve" smooth="yes"/>
      <point x="247.769996886" y="393.0"/>
      <point x="277.122167461" y="394.012642106"/>
      <point x="302.60842" y="396.76509" type="curve"/>
      <point x="471.017531294" y="384.689771693"/>
      <point x="517.0" y="293.148392105"/>
      <point x="517.0" y="220.0" type="curve" smooth="yes"/>
      <point x="517" y="120"/>
      <point x="431" y="50"/>
      <point x="294" y="50" type="curve" smooth="yes"/>
      <point x="169" y="50"/>
      <point x="163" y="109"/>
      <point x="105" y="109" type="curve" smooth="yes"/>
      <point x="72" y="109"/>
      <point x="52" y="89"/>
      <point x="52" y="52" type="curve" smooth="yes"/>
      <point x="52.0" y="0" type="line"/>
      <point x="72" y="0" type="line"/>
      <point x="72" y="51.0" type="line" smooth="yes"/>
      <point x="72" y="75"/>
      <point x="84" y="89"/>
      <point x="106" y="89" type="curve" smooth="yes"/>
      <point x="151" y="89"/>
      <point x="166" y="30"/>
      <point x="294" y="30" type="curve" smooth="yes"/>
      <point x="361.723571828" y="30.0"/>
      <point x="417.278925624" y="45.9122851181"/>
      <point x="457.94933" y="74.12968" type="curve"/>
    </contour>
  </outline>
</glyph>
<glyph name="uni0A5E" format="1">
  <advance width="573"/>
  <unicode hex="0A5E"/>
  <outline>
    <contour>
      <point x="451" y="680" type="move" name="abvm_bindu"/>
    </contour>
    <contour>
      <point x="322" y="2" type="move" name="blwm"/>
    </contour>
    <contour>
      <point x="451" y="690" type="move" name="abvm_candra"/>
    </contour>
    <contour>
      <point x="309" y="30" type="move" name="blwm_caret_1"/>
    </contour>
    <contour>
      <point x="72" y="0" type="move" name="blwm_nukta"/>
    </contour>
    <contour>
      <point x="451" y="670" type="move" name="abvm"/>
    </contour>
    <component base="uni0A2B"/>
    <component base="uni0A3C" xOffset="77" yOffset="42"/>
  </outline>
</glyph>
<glyph name="uni0A66" format="1">
  <advance width="724"/>
  <unicode hex="0A66"/>
  <outline>
    <contour>
      <point x="652" y="340" type="curve" smooth="yes"/>
      <point x="652" y="513"/>
      <point x="528" y="638"/>
      <point x="362" y="638" type="curve" smooth="yes"/>
      <point x="196" y="638"/>
      <point x="72" y="513"/>
      <point x="72" y="340" type="curve" smooth="yes"/>
      <point x="72" y="166"/>
      <point x="196" y="41"/>
      <point x="362" y="41" type="curve" smooth="yes"/>
      <point x="528" y="41"/>
      <point x="652" y="166"/>
    </contour>
    <contour>
      <point x="92" y="340" type="curve" smooth="yes"/>
      <point x="92" y="504"/>
      <point x="206" y="618"/>
      <point x="362" y="618" type="curve" smooth="yes"/>
      <point x="518" y="618"/>
      <point x="632" y="504"/>
      <point x="632" y="340" type="curve" smooth="yes"/>
      <point x="632" y="175"/>
      <point x="518" y="61"/>
      <point x="362" y="61" type="curve" smooth="yes"/>
      <point x="206" y="61"/>
      <point x="92" y="175"/>
    </contour>
  </outline>
</glyph>
<glyph name="uni0A67" format="1">
  <advance width="600"/>
  <unicode hex="0A67"/>
  <outline>
    <contour>
      <point x="480.0" y="0" type="line"/>
      <point x="480.0" y="458.0" type="line" smooth="yes"/>
      <point x="480" y="574"/>
      <point x="406" y="680"/>
      <point x="262" y="680" type="curve" smooth="yes"/>
      <point x="127" y="680"/>
      <point x="60" y="589"/>
      <point x="60" y="498" type="curve" smooth="yes"/>
      <point x="60" y="408"/>
      <point x="127" y="317"/>
      <point x="259" y="317" type="curve" smooth="yes"/>
      <point x="334.285703029" y="317.0"/>
      <point x="408.002426936" y="347.595092892"/>
      <point x="460.0" y="420.62034" type="curve"/>
      <point x="460.0" y="0" type="line"/>
    </contour>
    <contour>
      <point x="259.0" y="337.0" type="curve" smooth="yes"/>
      <point x="140" y="337"/>
      <point x="80" y="418"/>
      <point x="80" y="499" type="curve" smooth="yes"/>
      <point x="80" y="580"/>
      <point x="140" y="660"/>
      <point x="262" y="660" type="curve" smooth="yes"/>
      <point x="394.570600925" y="660.0"/>
      <point x="461.031672051" y="563.378379525"/>
      <point x="459.82264" y="456.1387" type="curve"/>
      <point x="418.343973097" y="382.786461372"/>
      <point x="346.9609149" y="337.0"/>
    </contour>
  </outline>
</glyph>
<glyph name="uni0A68" format="1">
  <advance width="622"/>
  <unicode hex="0A68"/>
  <outline>
    <contour>
      <point x="528" y="0" type="line"/>
      <point x="528" y="3.0" type="line"/>
      <point x="527.063560315" y="126.610038446"/>
      <point x="462.988932181" y="228.297094791"/>
      <point x="353.84212" y="271.09514" type="curve"/>
      <point x="484.381386864" y="290.514773962"/>
      <point x="547.0" y="379.836525023"/>
      <point x="547.0" y="471.0" type="curve" smooth="yes"/>
      <point x="547" y="575"/>
      <point x="464" y="680"/>
      <point x="303" y="680" type="curve" smooth="yes"/>
      <point x="228" y="680"/>
      <point x="142" y="663"/>
      <point x="75" y="630" type="curve"/>
      <point x="84" y="611" type="line"/>
      <point x="140" y="639"/>
      <point x="216" y="660"/>
      <point x="303" y="660" type="curve" smooth="yes"/>
      <point x="450" y="660"/>
      <point x="528" y="565"/>
      <point x="528" y="471" type="curve" smooth="yes"/>
      <point x="528.0" y="382.77127513"/>
      <point x="460.986615021" y="295.369876"/>
      <point x="320.93973" y="284.81569" type="curve"/>
      <point x="287.825314234" y="293.028685235"/>
      <point x="242.584104656" y="295.0"/>
      <point x="198.0" y="295.0" type="curve" smooth="yes"/>
      <point x="174" y="295"/>
      <point x="136" y="295"/>
      <point x="98" y="290" type="curve"/>
      <point x="98.0" y="270" type="line"/>
      <point x="135" y="266"/>
      <point x="172" y="263"/>
      <point x="214" y="263" type="curve" smooth="yes"/>
      <point x="241.603363875" y="263.0"/>
      <point x="275.329008737" y="264.669712996"/>
      <point x="306.04204" y="265.93256" type="curve"/>
      <point x="431.681136159" y="238.692024492"/>
      <point x="508.0" y="135.495015093"/>
      <point x="508.0" y="4.0" type="curve"/>
      <point x="508.0" y="0" type="line"/>
    </contour>
  </outline>
</glyph>
